<?xml version="1.0" encoding="utf-8"?>
<svg xmlns="http://www.w3.org/2000/svg" xmlns:xlink="http://www.w3.org/1999/xlink" width="600" height="400" viewBox="0 0 2400 1600">
<defs>
  <clipPath id="clip180">
    <rect x="0" y="0" width="2400" height="1600"/>
  </clipPath>
</defs>
<path clip-path="url(#clip180)" d="M0 1600 L2400 1600 L2400 0 L0 0  Z" fill="#ffffff" fill-rule="evenodd" fill-opacity="1"/>
<defs>
  <clipPath id="clip181">
    <rect x="480" y="0" width="1681" height="1600"/>
  </clipPath>
</defs>
<path clip-path="url(#clip180)" d="M170.857 1486.45 L2352.76 1486.45 L2352.76 47.2441 L170.857 47.2441  Z" fill="#ffffff" fill-rule="evenodd" fill-opacity="1"/>
<defs>
  <clipPath id="clip182">
    <rect x="170" y="47" width="2183" height="1440"/>
  </clipPath>
</defs>
<polyline clip-path="url(#clip182)" style="stroke:#000000; stroke-linecap:round; stroke-linejoin:round; stroke-width:2; stroke-opacity:0.1; fill:none" points="290.866,1486.45 290.866,47.2441 "/>
<polyline clip-path="url(#clip182)" style="stroke:#000000; stroke-linecap:round; stroke-linejoin:round; stroke-width:2; stroke-opacity:0.1; fill:none" points="776.336,1486.45 776.336,47.2441 "/>
<polyline clip-path="url(#clip182)" style="stroke:#000000; stroke-linecap:round; stroke-linejoin:round; stroke-width:2; stroke-opacity:0.1; fill:none" points="1261.81,1486.45 1261.81,47.2441 "/>
<polyline clip-path="url(#clip182)" style="stroke:#000000; stroke-linecap:round; stroke-linejoin:round; stroke-width:2; stroke-opacity:0.1; fill:none" points="1747.28,1486.45 1747.28,47.2441 "/>
<polyline clip-path="url(#clip182)" style="stroke:#000000; stroke-linecap:round; stroke-linejoin:round; stroke-width:2; stroke-opacity:0.1; fill:none" points="2232.75,1486.45 2232.75,47.2441 "/>
<polyline clip-path="url(#clip182)" style="stroke:#000000; stroke-linecap:round; stroke-linejoin:round; stroke-width:2; stroke-opacity:0.1; fill:none" points="170.857,1486.45 2352.76,1486.45 "/>
<polyline clip-path="url(#clip182)" style="stroke:#000000; stroke-linecap:round; stroke-linejoin:round; stroke-width:2; stroke-opacity:0.1; fill:none" points="170.857,1151.75 2352.76,1151.75 "/>
<polyline clip-path="url(#clip182)" style="stroke:#000000; stroke-linecap:round; stroke-linejoin:round; stroke-width:2; stroke-opacity:0.1; fill:none" points="170.857,817.051 2352.76,817.051 "/>
<polyline clip-path="url(#clip182)" style="stroke:#000000; stroke-linecap:round; stroke-linejoin:round; stroke-width:2; stroke-opacity:0.1; fill:none" points="170.857,482.352 2352.76,482.352 "/>
<polyline clip-path="url(#clip182)" style="stroke:#000000; stroke-linecap:round; stroke-linejoin:round; stroke-width:2; stroke-opacity:0.1; fill:none" points="170.857,147.654 2352.76,147.654 "/>
<polyline clip-path="url(#clip180)" style="stroke:#000000; stroke-linecap:round; stroke-linejoin:round; stroke-width:4; stroke-opacity:1; fill:none" points="170.857,1486.45 2352.76,1486.45 "/>
<polyline clip-path="url(#clip180)" style="stroke:#000000; stroke-linecap:round; stroke-linejoin:round; stroke-width:4; stroke-opacity:1; fill:none" points="290.866,1486.45 290.866,1467.55 "/>
<polyline clip-path="url(#clip180)" style="stroke:#000000; stroke-linecap:round; stroke-linejoin:round; stroke-width:4; stroke-opacity:1; fill:none" points="776.336,1486.45 776.336,1467.55 "/>
<polyline clip-path="url(#clip180)" style="stroke:#000000; stroke-linecap:round; stroke-linejoin:round; stroke-width:4; stroke-opacity:1; fill:none" points="1261.81,1486.45 1261.81,1467.55 "/>
<polyline clip-path="url(#clip180)" style="stroke:#000000; stroke-linecap:round; stroke-linejoin:round; stroke-width:4; stroke-opacity:1; fill:none" points="1747.28,1486.45 1747.28,1467.55 "/>
<polyline clip-path="url(#clip180)" style="stroke:#000000; stroke-linecap:round; stroke-linejoin:round; stroke-width:4; stroke-opacity:1; fill:none" points="2232.75,1486.45 2232.75,1467.55 "/>
<path clip-path="url(#clip180)" d="M260.507 1532.02 L290.183 1532.02 L290.183 1535.95 L260.507 1535.95 L260.507 1532.02 Z" fill="#000000" fill-rule="nonzero" fill-opacity="1" /><path clip-path="url(#clip180)" d="M300.322 1514.29 L318.678 1514.29 L318.678 1518.22 L304.604 1518.22 L304.604 1526.7 Q305.623 1526.35 306.641 1526.19 Q307.66 1526 308.678 1526 Q314.465 1526 317.845 1529.17 Q321.224 1532.34 321.224 1537.76 Q321.224 1543.34 317.752 1546.44 Q314.28 1549.52 307.961 1549.52 Q305.785 1549.52 303.516 1549.15 Q301.271 1548.78 298.863 1548.04 L298.863 1543.34 Q300.947 1544.47 303.169 1545.03 Q305.391 1545.58 307.868 1545.58 Q311.873 1545.58 314.211 1543.48 Q316.548 1541.37 316.548 1537.76 Q316.548 1534.15 314.211 1532.04 Q311.873 1529.94 307.868 1529.94 Q305.993 1529.94 304.118 1530.35 Q302.266 1530.77 300.322 1531.65 L300.322 1514.29 Z" fill="#000000" fill-rule="nonzero" fill-opacity="1" /><path clip-path="url(#clip180)" d="M776.336 1517.37 Q772.725 1517.37 770.896 1520.93 Q769.091 1524.47 769.091 1531.6 Q769.091 1538.71 770.896 1542.27 Q772.725 1545.82 776.336 1545.82 Q779.97 1545.82 781.776 1542.27 Q783.605 1538.71 783.605 1531.6 Q783.605 1524.47 781.776 1520.93 Q779.97 1517.37 776.336 1517.37 M776.336 1513.66 Q782.146 1513.66 785.202 1518.27 Q788.281 1522.85 788.281 1531.6 Q788.281 1540.33 785.202 1544.94 Q782.146 1549.52 776.336 1549.52 Q770.526 1549.52 767.447 1544.94 Q764.392 1540.33 764.392 1531.6 Q764.392 1522.85 767.447 1518.27 Q770.526 1513.66 776.336 1513.66 Z" fill="#000000" fill-rule="nonzero" fill-opacity="1" /><path clip-path="url(#clip180)" d="M1252.08 1514.29 L1270.44 1514.29 L1270.44 1518.22 L1256.37 1518.22 L1256.37 1526.7 Q1257.39 1526.35 1258.4 1526.19 Q1259.42 1526 1260.44 1526 Q1266.23 1526 1269.61 1529.17 Q1272.99 1532.34 1272.99 1537.76 Q1272.99 1543.34 1269.51 1546.44 Q1266.04 1549.52 1259.72 1549.52 Q1257.55 1549.52 1255.28 1549.15 Q1253.03 1548.78 1250.63 1548.04 L1250.63 1543.34 Q1252.71 1544.47 1254.93 1545.03 Q1257.15 1545.58 1259.63 1545.58 Q1263.64 1545.58 1265.97 1543.48 Q1268.31 1541.37 1268.31 1537.76 Q1268.31 1534.15 1265.97 1532.04 Q1263.64 1529.94 1259.63 1529.94 Q1257.76 1529.94 1255.88 1530.35 Q1254.03 1530.77 1252.08 1531.65 L1252.08 1514.29 Z" fill="#000000" fill-rule="nonzero" fill-opacity="1" /><path clip-path="url(#clip180)" d="M1721.96 1544.91 L1729.6 1544.91 L1729.6 1518.55 L1721.29 1520.21 L1721.29 1515.95 L1729.56 1514.29 L1734.23 1514.29 L1734.23 1544.91 L1741.87 1544.91 L1741.87 1548.85 L1721.96 1548.85 L1721.96 1544.91 Z" fill="#000000" fill-rule="nonzero" fill-opacity="1" /><path clip-path="url(#clip180)" d="M1761.32 1517.37 Q1757.71 1517.37 1755.88 1520.93 Q1754.07 1524.47 1754.07 1531.6 Q1754.07 1538.71 1755.88 1542.27 Q1757.71 1545.82 1761.32 1545.82 Q1764.95 1545.82 1766.76 1542.27 Q1768.58 1538.71 1768.58 1531.6 Q1768.58 1524.47 1766.76 1520.93 Q1764.95 1517.37 1761.32 1517.37 M1761.32 1513.66 Q1767.13 1513.66 1770.18 1518.27 Q1773.26 1522.85 1773.26 1531.6 Q1773.26 1540.33 1770.18 1544.94 Q1767.13 1549.52 1761.32 1549.52 Q1755.51 1549.52 1752.43 1544.94 Q1749.37 1540.33 1749.37 1531.6 Q1749.37 1522.85 1752.43 1518.27 Q1755.51 1513.66 1761.32 1513.66 Z" fill="#000000" fill-rule="nonzero" fill-opacity="1" /><path clip-path="url(#clip180)" d="M2207.93 1544.91 L2215.57 1544.91 L2215.57 1518.55 L2207.26 1520.21 L2207.26 1515.95 L2215.53 1514.29 L2220.2 1514.29 L2220.2 1544.91 L2227.84 1544.91 L2227.84 1548.85 L2207.93 1548.85 L2207.93 1544.91 Z" fill="#000000" fill-rule="nonzero" fill-opacity="1" /><path clip-path="url(#clip180)" d="M2237.33 1514.29 L2255.69 1514.29 L2255.69 1518.22 L2241.61 1518.22 L2241.61 1526.7 Q2242.63 1526.35 2243.65 1526.19 Q2244.67 1526 2245.69 1526 Q2251.47 1526 2254.85 1529.17 Q2258.23 1532.34 2258.23 1537.76 Q2258.23 1543.34 2254.76 1546.44 Q2251.29 1549.52 2244.97 1549.52 Q2242.79 1549.52 2240.53 1549.15 Q2238.28 1548.78 2235.87 1548.04 L2235.87 1543.34 Q2237.96 1544.47 2240.18 1545.03 Q2242.4 1545.58 2244.88 1545.58 Q2248.88 1545.58 2251.22 1543.48 Q2253.56 1541.37 2253.56 1537.76 Q2253.56 1534.15 2251.22 1532.04 Q2248.88 1529.94 2244.88 1529.94 Q2243 1529.94 2241.13 1530.35 Q2239.28 1530.77 2237.33 1531.65 L2237.33 1514.29 Z" fill="#000000" fill-rule="nonzero" fill-opacity="1" /><polyline clip-path="url(#clip180)" style="stroke:#000000; stroke-linecap:round; stroke-linejoin:round; stroke-width:4; stroke-opacity:1; fill:none" points="170.857,1486.45 170.857,47.2441 "/>
<polyline clip-path="url(#clip180)" style="stroke:#000000; stroke-linecap:round; stroke-linejoin:round; stroke-width:4; stroke-opacity:1; fill:none" points="170.857,1486.45 189.755,1486.45 "/>
<polyline clip-path="url(#clip180)" style="stroke:#000000; stroke-linecap:round; stroke-linejoin:round; stroke-width:4; stroke-opacity:1; fill:none" points="170.857,1151.75 189.755,1151.75 "/>
<polyline clip-path="url(#clip180)" style="stroke:#000000; stroke-linecap:round; stroke-linejoin:round; stroke-width:4; stroke-opacity:1; fill:none" points="170.857,817.051 189.755,817.051 "/>
<polyline clip-path="url(#clip180)" style="stroke:#000000; stroke-linecap:round; stroke-linejoin:round; stroke-width:4; stroke-opacity:1; fill:none" points="170.857,482.352 189.755,482.352 "/>
<polyline clip-path="url(#clip180)" style="stroke:#000000; stroke-linecap:round; stroke-linejoin:round; stroke-width:4; stroke-opacity:1; fill:none" points="170.857,147.654 189.755,147.654 "/>
<path clip-path="url(#clip180)" d="M122.913 1472.25 Q119.302 1472.25 117.473 1475.81 Q115.668 1479.35 115.668 1486.48 Q115.668 1493.59 117.473 1497.15 Q119.302 1500.7 122.913 1500.7 Q126.547 1500.7 128.353 1497.15 Q130.182 1493.59 130.182 1486.48 Q130.182 1479.35 128.353 1475.81 Q126.547 1472.25 122.913 1472.25 M122.913 1468.54 Q128.723 1468.54 131.779 1473.15 Q134.857 1477.73 134.857 1486.48 Q134.857 1495.21 131.779 1499.82 Q128.723 1504.4 122.913 1504.4 Q117.103 1504.4 114.024 1499.82 Q110.969 1495.21 110.969 1486.48 Q110.969 1477.73 114.024 1473.15 Q117.103 1468.54 122.913 1468.54 Z" fill="#000000" fill-rule="nonzero" fill-opacity="1" /><path clip-path="url(#clip180)" d="M82.7975 1134.47 L101.154 1134.47 L101.154 1138.4 L87.0799 1138.4 L87.0799 1146.88 Q88.0984 1146.53 89.1169 1146.37 Q90.1354 1146.18 91.1539 1146.18 Q96.941 1146.18 100.321 1149.35 Q103.7 1152.52 103.7 1157.94 Q103.7 1163.52 100.228 1166.62 Q96.7558 1169.7 90.4364 1169.7 Q88.2604 1169.7 85.9919 1169.33 Q83.7466 1168.96 81.3392 1168.22 L81.3392 1163.52 Q83.4225 1164.65 85.6447 1165.21 Q87.8669 1165.77 90.3438 1165.77 Q94.3484 1165.77 96.6863 1163.66 Q99.0243 1161.55 99.0243 1157.94 Q99.0243 1154.33 96.6863 1152.22 Q94.3484 1150.12 90.3438 1150.12 Q88.4688 1150.12 86.5938 1150.53 Q84.7419 1150.95 82.7975 1151.83 L82.7975 1134.47 Z" fill="#000000" fill-rule="nonzero" fill-opacity="1" /><path clip-path="url(#clip180)" d="M122.913 1137.55 Q119.302 1137.55 117.473 1141.11 Q115.668 1144.65 115.668 1151.78 Q115.668 1158.89 117.473 1162.46 Q119.302 1166 122.913 1166 Q126.547 1166 128.353 1162.46 Q130.182 1158.89 130.182 1151.78 Q130.182 1144.65 128.353 1141.11 Q126.547 1137.55 122.913 1137.55 M122.913 1133.84 Q128.723 1133.84 131.779 1138.45 Q134.857 1143.03 134.857 1151.78 Q134.857 1160.51 131.779 1165.12 Q128.723 1169.7 122.913 1169.7 Q117.103 1169.7 114.024 1165.12 Q110.969 1160.51 110.969 1151.78 Q110.969 1143.03 114.024 1138.45 Q117.103 1133.84 122.913 1133.84 Z" fill="#000000" fill-rule="nonzero" fill-opacity="1" /><path clip-path="url(#clip180)" d="M53.3995 830.396 L61.0384 830.396 L61.0384 804.03 L52.7282 805.697 L52.7282 801.437 L60.9921 799.771 L65.668 799.771 L65.668 830.396 L73.3068 830.396 L73.3068 834.331 L53.3995 834.331 L53.3995 830.396 Z" fill="#000000" fill-rule="nonzero" fill-opacity="1" /><path clip-path="url(#clip180)" d="M92.7512 802.849 Q89.1401 802.849 87.3114 806.414 Q85.5058 809.956 85.5058 817.085 Q85.5058 824.192 87.3114 827.757 Q89.1401 831.298 92.7512 831.298 Q96.3854 831.298 98.1909 827.757 Q100.02 824.192 100.02 817.085 Q100.02 809.956 98.1909 806.414 Q96.3854 802.849 92.7512 802.849 M92.7512 799.146 Q98.5613 799.146 101.617 803.752 Q104.696 808.336 104.696 817.085 Q104.696 825.812 101.617 830.419 Q98.5613 835.002 92.7512 835.002 Q86.941 835.002 83.8623 830.419 Q80.8068 825.812 80.8068 817.085 Q80.8068 808.336 83.8623 803.752 Q86.941 799.146 92.7512 799.146 Z" fill="#000000" fill-rule="nonzero" fill-opacity="1" /><path clip-path="url(#clip180)" d="M122.913 802.849 Q119.302 802.849 117.473 806.414 Q115.668 809.956 115.668 817.085 Q115.668 824.192 117.473 827.757 Q119.302 831.298 122.913 831.298 Q126.547 831.298 128.353 827.757 Q130.182 824.192 130.182 817.085 Q130.182 809.956 128.353 806.414 Q126.547 802.849 122.913 802.849 M122.913 799.146 Q128.723 799.146 131.779 803.752 Q134.857 808.336 134.857 817.085 Q134.857 825.812 131.779 830.419 Q128.723 835.002 122.913 835.002 Q117.103 835.002 114.024 830.419 Q110.969 825.812 110.969 817.085 Q110.969 808.336 114.024 803.752 Q117.103 799.146 122.913 799.146 Z" fill="#000000" fill-rule="nonzero" fill-opacity="1" /><path clip-path="url(#clip180)" d="M53.3995 495.697 L61.0384 495.697 L61.0384 469.331 L52.7282 470.998 L52.7282 466.739 L60.9921 465.072 L65.668 465.072 L65.668 495.697 L73.3068 495.697 L73.3068 499.632 L53.3995 499.632 L53.3995 495.697 Z" fill="#000000" fill-rule="nonzero" fill-opacity="1" /><path clip-path="url(#clip180)" d="M82.7975 465.072 L101.154 465.072 L101.154 469.007 L87.0799 469.007 L87.0799 477.48 Q88.0984 477.132 89.1169 476.97 Q90.1354 476.785 91.1539 476.785 Q96.941 476.785 100.321 479.956 Q103.7 483.128 103.7 488.544 Q103.7 494.123 100.228 497.225 Q96.7558 500.304 90.4364 500.304 Q88.2604 500.304 85.9919 499.933 Q83.7466 499.563 81.3392 498.822 L81.3392 494.123 Q83.4225 495.257 85.6447 495.813 Q87.8669 496.368 90.3438 496.368 Q94.3484 496.368 96.6863 494.262 Q99.0243 492.155 99.0243 488.544 Q99.0243 484.933 96.6863 482.827 Q94.3484 480.72 90.3438 480.72 Q88.4688 480.72 86.5938 481.137 Q84.7419 481.554 82.7975 482.433 L82.7975 465.072 Z" fill="#000000" fill-rule="nonzero" fill-opacity="1" /><path clip-path="url(#clip180)" d="M122.913 468.151 Q119.302 468.151 117.473 471.716 Q115.668 475.257 115.668 482.387 Q115.668 489.493 117.473 493.058 Q119.302 496.6 122.913 496.6 Q126.547 496.6 128.353 493.058 Q130.182 489.493 130.182 482.387 Q130.182 475.257 128.353 471.716 Q126.547 468.151 122.913 468.151 M122.913 464.447 Q128.723 464.447 131.779 469.054 Q134.857 473.637 134.857 482.387 Q134.857 491.114 131.779 495.72 Q128.723 500.304 122.913 500.304 Q117.103 500.304 114.024 495.72 Q110.969 491.114 110.969 482.387 Q110.969 473.637 114.024 469.054 Q117.103 464.447 122.913 464.447 Z" fill="#000000" fill-rule="nonzero" fill-opacity="1" /><path clip-path="url(#clip180)" d="M56.6171 160.998 L72.9365 160.998 L72.9365 164.934 L50.9921 164.934 L50.9921 160.998 Q53.6541 158.244 58.2375 153.614 Q62.8439 148.962 64.0245 147.619 Q66.2698 145.096 67.1494 143.36 Q68.0522 141.6 68.0522 139.911 Q68.0522 137.156 66.1078 135.42 Q64.1865 133.684 61.0847 133.684 Q58.8856 133.684 56.4319 134.448 Q54.0014 135.212 51.2236 136.763 L51.2236 132.04 Q54.0477 130.906 56.5014 130.327 Q58.955 129.749 60.9921 129.749 Q66.3624 129.749 69.5568 132.434 Q72.7513 135.119 72.7513 139.61 Q72.7513 141.739 71.9411 143.661 Q71.1541 145.559 69.0476 148.151 Q68.4689 148.823 65.367 152.04 Q62.2652 155.235 56.6171 160.998 Z" fill="#000000" fill-rule="nonzero" fill-opacity="1" /><path clip-path="url(#clip180)" d="M92.7512 133.452 Q89.1401 133.452 87.3114 137.017 Q85.5058 140.559 85.5058 147.688 Q85.5058 154.795 87.3114 158.36 Q89.1401 161.901 92.7512 161.901 Q96.3854 161.901 98.1909 158.36 Q100.02 154.795 100.02 147.688 Q100.02 140.559 98.1909 137.017 Q96.3854 133.452 92.7512 133.452 M92.7512 129.749 Q98.5613 129.749 101.617 134.355 Q104.696 138.938 104.696 147.688 Q104.696 156.415 101.617 161.022 Q98.5613 165.605 92.7512 165.605 Q86.941 165.605 83.8623 161.022 Q80.8068 156.415 80.8068 147.688 Q80.8068 138.938 83.8623 134.355 Q86.941 129.749 92.7512 129.749 Z" fill="#000000" fill-rule="nonzero" fill-opacity="1" /><path clip-path="url(#clip180)" d="M122.913 133.452 Q119.302 133.452 117.473 137.017 Q115.668 140.559 115.668 147.688 Q115.668 154.795 117.473 158.36 Q119.302 161.901 122.913 161.901 Q126.547 161.901 128.353 158.36 Q130.182 154.795 130.182 147.688 Q130.182 140.559 128.353 137.017 Q126.547 133.452 122.913 133.452 M122.913 129.749 Q128.723 129.749 131.779 134.355 Q134.857 138.938 134.857 147.688 Q134.857 156.415 131.779 161.022 Q128.723 165.605 122.913 165.605 Q117.103 165.605 114.024 161.022 Q110.969 156.415 110.969 147.688 Q110.969 138.938 114.024 134.355 Q117.103 129.749 122.913 129.749 Z" fill="#000000" fill-rule="nonzero" fill-opacity="1" /><path clip-path="url(#clip182)" d="M290.866 1473.06 L290.866 1486.45 L339.413 1486.45 L339.413 1473.06 L290.866 1473.06 L290.866 1473.06  Z" fill="#009af9" fill-rule="evenodd" fill-opacity="1"/>
<polyline clip-path="url(#clip182)" style="stroke:#000000; stroke-linecap:round; stroke-linejoin:round; stroke-width:4; stroke-opacity:1; fill:none" points="290.866,1473.06 290.866,1486.45 339.413,1486.45 339.413,1473.06 290.866,1473.06 "/>
<path clip-path="url(#clip182)" d="M339.413 1452.98 L339.413 1486.45 L387.96 1486.45 L387.96 1452.98 L339.413 1452.98 L339.413 1452.98  Z" fill="#009af9" fill-rule="evenodd" fill-opacity="1"/>
<polyline clip-path="url(#clip182)" style="stroke:#000000; stroke-linecap:round; stroke-linejoin:round; stroke-width:4; stroke-opacity:1; fill:none" points="339.413,1452.98 339.413,1486.45 387.96,1486.45 387.96,1452.98 339.413,1452.98 "/>
<path clip-path="url(#clip182)" d="M387.96 1392.73 L387.96 1486.45 L436.507 1486.45 L436.507 1392.73 L387.96 1392.73 L387.96 1392.73  Z" fill="#009af9" fill-rule="evenodd" fill-opacity="1"/>
<polyline clip-path="url(#clip182)" style="stroke:#000000; stroke-linecap:round; stroke-linejoin:round; stroke-width:4; stroke-opacity:1; fill:none" points="387.96,1392.73 387.96,1486.45 436.507,1486.45 436.507,1392.73 387.96,1392.73 "/>
<path clip-path="url(#clip182)" d="M436.507 1212 L436.507 1486.45 L485.054 1486.45 L485.054 1212 L436.507 1212 L436.507 1212  Z" fill="#009af9" fill-rule="evenodd" fill-opacity="1"/>
<polyline clip-path="url(#clip182)" style="stroke:#000000; stroke-linecap:round; stroke-linejoin:round; stroke-width:4; stroke-opacity:1; fill:none" points="436.507,1212 436.507,1486.45 485.054,1486.45 485.054,1212 436.507,1212 "/>
<path clip-path="url(#clip182)" d="M485.054 1031.26 L485.054 1486.45 L533.601 1486.45 L533.601 1031.26 L485.054 1031.26 L485.054 1031.26  Z" fill="#009af9" fill-rule="evenodd" fill-opacity="1"/>
<polyline clip-path="url(#clip182)" style="stroke:#000000; stroke-linecap:round; stroke-linejoin:round; stroke-width:4; stroke-opacity:1; fill:none" points="485.054,1031.26 485.054,1486.45 533.601,1486.45 533.601,1031.26 485.054,1031.26 "/>
<path clip-path="url(#clip182)" d="M533.601 689.865 L533.601 1486.45 L582.148 1486.45 L582.148 689.865 L533.601 689.865 L533.601 689.865  Z" fill="#009af9" fill-rule="evenodd" fill-opacity="1"/>
<polyline clip-path="url(#clip182)" style="stroke:#000000; stroke-linecap:round; stroke-linejoin:round; stroke-width:4; stroke-opacity:1; fill:none" points="533.601,689.865 533.601,1486.45 582.148,1486.45 582.148,689.865 533.601,689.865 "/>
<path clip-path="url(#clip182)" d="M582.148 381.943 L582.148 1486.45 L630.695 1486.45 L630.695 381.943 L582.148 381.943 L582.148 381.943  Z" fill="#009af9" fill-rule="evenodd" fill-opacity="1"/>
<polyline clip-path="url(#clip182)" style="stroke:#000000; stroke-linecap:round; stroke-linejoin:round; stroke-width:4; stroke-opacity:1; fill:none" points="582.148,381.943 582.148,1486.45 630.695,1486.45 630.695,381.943 582.148,381.943 "/>
<path clip-path="url(#clip182)" d="M630.695 154.348 L630.695 1486.45 L679.242 1486.45 L679.242 154.348 L630.695 154.348 L630.695 154.348  Z" fill="#009af9" fill-rule="evenodd" fill-opacity="1"/>
<polyline clip-path="url(#clip182)" style="stroke:#000000; stroke-linecap:round; stroke-linejoin:round; stroke-width:4; stroke-opacity:1; fill:none" points="630.695,154.348 630.695,1486.45 679.242,1486.45 679.242,154.348 630.695,154.348 "/>
<path clip-path="url(#clip182)" d="M679.242 227.981 L679.242 1486.45 L727.789 1486.45 L727.789 227.981 L679.242 227.981 L679.242 227.981  Z" fill="#009af9" fill-rule="evenodd" fill-opacity="1"/>
<polyline clip-path="url(#clip182)" style="stroke:#000000; stroke-linecap:round; stroke-linejoin:round; stroke-width:4; stroke-opacity:1; fill:none" points="679.242,227.981 679.242,1486.45 727.789,1486.45 727.789,227.981 679.242,227.981 "/>
<path clip-path="url(#clip182)" d="M727.789 1064.73 L727.789 1486.45 L776.336 1486.45 L776.336 1064.73 L727.789 1064.73 L727.789 1064.73  Z" fill="#009af9" fill-rule="evenodd" fill-opacity="1"/>
<polyline clip-path="url(#clip182)" style="stroke:#000000; stroke-linecap:round; stroke-linejoin:round; stroke-width:4; stroke-opacity:1; fill:none" points="727.789,1064.73 727.789,1486.45 776.336,1486.45 776.336,1064.73 727.789,1064.73 "/>
<path clip-path="url(#clip182)" d="M776.336 950.93 L776.336 1486.45 L824.883 1486.45 L824.883 950.93 L776.336 950.93 L776.336 950.93  Z" fill="#009af9" fill-rule="evenodd" fill-opacity="1"/>
<polyline clip-path="url(#clip182)" style="stroke:#000000; stroke-linecap:round; stroke-linejoin:round; stroke-width:4; stroke-opacity:1; fill:none" points="776.336,950.93 776.336,1486.45 824.883,1486.45 824.883,950.93 776.336,950.93 "/>
<path clip-path="url(#clip182)" d="M824.883 214.593 L824.883 1486.45 L873.43 1486.45 L873.43 214.593 L824.883 214.593 L824.883 214.593  Z" fill="#009af9" fill-rule="evenodd" fill-opacity="1"/>
<polyline clip-path="url(#clip182)" style="stroke:#000000; stroke-linecap:round; stroke-linejoin:round; stroke-width:4; stroke-opacity:1; fill:none" points="824.883,214.593 824.883,1486.45 873.43,1486.45 873.43,214.593 824.883,214.593 "/>
<path clip-path="url(#clip182)" d="M873.43 147.654 L873.43 1486.45 L921.977 1486.45 L921.977 147.654 L873.43 147.654 L873.43 147.654  Z" fill="#009af9" fill-rule="evenodd" fill-opacity="1"/>
<polyline clip-path="url(#clip182)" style="stroke:#000000; stroke-linecap:round; stroke-linejoin:round; stroke-width:4; stroke-opacity:1; fill:none" points="873.43,147.654 873.43,1486.45 921.977,1486.45 921.977,147.654 873.43,147.654 "/>
<path clip-path="url(#clip182)" d="M921.977 47.2441 L921.977 1486.45 L970.524 1486.45 L970.524 47.2441 L921.977 47.2441 L921.977 47.2441  Z" fill="#009af9" fill-rule="evenodd" fill-opacity="1"/>
<polyline clip-path="url(#clip182)" style="stroke:#000000; stroke-linecap:round; stroke-linejoin:round; stroke-width:4; stroke-opacity:1; fill:none" points="921.977,47.2441 921.977,1486.45 970.524,1486.45 970.524,47.2441 921.977,47.2441 "/>
<path clip-path="url(#clip182)" d="M970.524 643.008 L970.524 1486.45 L1019.07 1486.45 L1019.07 643.008 L970.524 643.008 L970.524 643.008  Z" fill="#009af9" fill-rule="evenodd" fill-opacity="1"/>
<polyline clip-path="url(#clip182)" style="stroke:#000000; stroke-linecap:round; stroke-linejoin:round; stroke-width:4; stroke-opacity:1; fill:none" points="970.524,643.008 970.524,1486.45 1019.07,1486.45 1019.07,643.008 970.524,643.008 "/>
<path clip-path="url(#clip182)" d="M1019.07 957.624 L1019.07 1486.45 L1067.62 1486.45 L1067.62 957.624 L1019.07 957.624 L1019.07 957.624  Z" fill="#009af9" fill-rule="evenodd" fill-opacity="1"/>
<polyline clip-path="url(#clip182)" style="stroke:#000000; stroke-linecap:round; stroke-linejoin:round; stroke-width:4; stroke-opacity:1; fill:none" points="1019.07,957.624 1019.07,1486.45 1067.62,1486.45 1067.62,957.624 1019.07,957.624 "/>
<path clip-path="url(#clip182)" d="M1067.62 1265.55 L1067.62 1486.45 L1116.17 1486.45 L1116.17 1265.55 L1067.62 1265.55 L1067.62 1265.55  Z" fill="#009af9" fill-rule="evenodd" fill-opacity="1"/>
<polyline clip-path="url(#clip182)" style="stroke:#000000; stroke-linecap:round; stroke-linejoin:round; stroke-width:4; stroke-opacity:1; fill:none" points="1067.62,1265.55 1067.62,1486.45 1116.17,1486.45 1116.17,1265.55 1067.62,1265.55 "/>
<path clip-path="url(#clip182)" d="M1116.17 1426.2 L1116.17 1486.45 L1164.71 1486.45 L1164.71 1426.2 L1116.17 1426.2 L1116.17 1426.2  Z" fill="#009af9" fill-rule="evenodd" fill-opacity="1"/>
<polyline clip-path="url(#clip182)" style="stroke:#000000; stroke-linecap:round; stroke-linejoin:round; stroke-width:4; stroke-opacity:1; fill:none" points="1116.17,1426.2 1116.17,1486.45 1164.71,1486.45 1164.71,1426.2 1116.17,1426.2 "/>
<path clip-path="url(#clip182)" d="M1164.71 1466.37 L1164.71 1486.45 L1213.26 1486.45 L1213.26 1466.37 L1164.71 1466.37 L1164.71 1466.37  Z" fill="#009af9" fill-rule="evenodd" fill-opacity="1"/>
<polyline clip-path="url(#clip182)" style="stroke:#000000; stroke-linecap:round; stroke-linejoin:round; stroke-width:4; stroke-opacity:1; fill:none" points="1164.71,1466.37 1164.71,1486.45 1213.26,1486.45 1213.26,1466.37 1164.71,1466.37 "/>
<path clip-path="url(#clip182)" d="M1213.26 1479.75 L1213.26 1486.45 L1261.81 1486.45 L1261.81 1479.75 L1213.26 1479.75 L1213.26 1479.75  Z" fill="#009af9" fill-rule="evenodd" fill-opacity="1"/>
<polyline clip-path="url(#clip182)" style="stroke:#000000; stroke-linecap:round; stroke-linejoin:round; stroke-width:4; stroke-opacity:1; fill:none" points="1213.26,1479.75 1213.26,1486.45 1261.81,1486.45 1261.81,1479.75 1213.26,1479.75 "/>
<path clip-path="url(#clip182)" d="M1261.81 1486.45 L1261.81 1486.45 L1310.35 1486.45 L1310.35 1486.45 L1261.81 1486.45 L1261.81 1486.45  Z" fill="#009af9" fill-rule="evenodd" fill-opacity="1"/>
<polyline clip-path="url(#clip182)" style="stroke:#000000; stroke-linecap:round; stroke-linejoin:round; stroke-width:4; stroke-opacity:1; fill:none" points="1261.81,1486.45 1261.81,1486.45 1310.35,1486.45 1261.81,1486.45 "/>
<path clip-path="url(#clip182)" d="M1310.35 1486.45 L1310.35 1486.45 L1358.9 1486.45 L1358.9 1486.45 L1310.35 1486.45 L1310.35 1486.45  Z" fill="#009af9" fill-rule="evenodd" fill-opacity="1"/>
<polyline clip-path="url(#clip182)" style="stroke:#000000; stroke-linecap:round; stroke-linejoin:round; stroke-width:4; stroke-opacity:1; fill:none" points="1310.35,1486.45 1310.35,1486.45 1358.9,1486.45 1310.35,1486.45 "/>
<path clip-path="url(#clip182)" d="M1358.9 1486.45 L1358.9 1486.45 L1407.45 1486.45 L1407.45 1486.45 L1358.9 1486.45 L1358.9 1486.45  Z" fill="#009af9" fill-rule="evenodd" fill-opacity="1"/>
<polyline clip-path="url(#clip182)" style="stroke:#000000; stroke-linecap:round; stroke-linejoin:round; stroke-width:4; stroke-opacity:1; fill:none" points="1358.9,1486.45 1358.9,1486.45 1407.45,1486.45 1358.9,1486.45 "/>
<path clip-path="url(#clip182)" d="M1407.45 1486.45 L1407.45 1486.45 L1455.99 1486.45 L1455.99 1486.45 L1407.45 1486.45 L1407.45 1486.45  Z" fill="#009af9" fill-rule="evenodd" fill-opacity="1"/>
<polyline clip-path="url(#clip182)" style="stroke:#000000; stroke-linecap:round; stroke-linejoin:round; stroke-width:4; stroke-opacity:1; fill:none" points="1407.45,1486.45 1407.45,1486.45 1455.99,1486.45 1407.45,1486.45 "/>
<path clip-path="url(#clip182)" d="M1455.99 1479.75 L1455.99 1486.45 L1504.54 1486.45 L1504.54 1479.75 L1455.99 1479.75 L1455.99 1479.75  Z" fill="#009af9" fill-rule="evenodd" fill-opacity="1"/>
<polyline clip-path="url(#clip182)" style="stroke:#000000; stroke-linecap:round; stroke-linejoin:round; stroke-width:4; stroke-opacity:1; fill:none" points="1455.99,1479.75 1455.99,1486.45 1504.54,1486.45 1504.54,1479.75 1455.99,1479.75 "/>
<path clip-path="url(#clip182)" d="M1504.54 1473.06 L1504.54 1486.45 L1553.09 1486.45 L1553.09 1473.06 L1504.54 1473.06 L1504.54 1473.06  Z" fill="#009af9" fill-rule="evenodd" fill-opacity="1"/>
<polyline clip-path="url(#clip182)" style="stroke:#000000; stroke-linecap:round; stroke-linejoin:round; stroke-width:4; stroke-opacity:1; fill:none" points="1504.54,1473.06 1504.54,1486.45 1553.09,1486.45 1553.09,1473.06 1504.54,1473.06 "/>
<path clip-path="url(#clip182)" d="M1553.09 1473.06 L1553.09 1486.45 L1601.64 1486.45 L1601.64 1473.06 L1553.09 1473.06 L1553.09 1473.06  Z" fill="#009af9" fill-rule="evenodd" fill-opacity="1"/>
<polyline clip-path="url(#clip182)" style="stroke:#000000; stroke-linecap:round; stroke-linejoin:round; stroke-width:4; stroke-opacity:1; fill:none" points="1553.09,1473.06 1553.09,1486.45 1601.64,1486.45 1601.64,1473.06 1553.09,1473.06 "/>
<path clip-path="url(#clip182)" d="M1601.64 1406.12 L1601.64 1486.45 L1650.18 1486.45 L1650.18 1406.12 L1601.64 1406.12 L1601.64 1406.12  Z" fill="#009af9" fill-rule="evenodd" fill-opacity="1"/>
<polyline clip-path="url(#clip182)" style="stroke:#000000; stroke-linecap:round; stroke-linejoin:round; stroke-width:4; stroke-opacity:1; fill:none" points="1601.64,1406.12 1601.64,1486.45 1650.18,1486.45 1650.18,1406.12 1601.64,1406.12 "/>
<path clip-path="url(#clip182)" d="M1650.18 1439.59 L1650.18 1486.45 L1698.73 1486.45 L1698.73 1439.59 L1650.18 1439.59 L1650.18 1439.59  Z" fill="#009af9" fill-rule="evenodd" fill-opacity="1"/>
<polyline clip-path="url(#clip182)" style="stroke:#000000; stroke-linecap:round; stroke-linejoin:round; stroke-width:4; stroke-opacity:1; fill:none" points="1650.18,1439.59 1650.18,1486.45 1698.73,1486.45 1698.73,1439.59 1650.18,1439.59 "/>
<path clip-path="url(#clip182)" d="M1698.73 1332.49 L1698.73 1486.45 L1747.28 1486.45 L1747.28 1332.49 L1698.73 1332.49 L1698.73 1332.49  Z" fill="#009af9" fill-rule="evenodd" fill-opacity="1"/>
<polyline clip-path="url(#clip182)" style="stroke:#000000; stroke-linecap:round; stroke-linejoin:round; stroke-width:4; stroke-opacity:1; fill:none" points="1698.73,1332.49 1698.73,1486.45 1747.28,1486.45 1747.28,1332.49 1698.73,1332.49 "/>
<path clip-path="url(#clip182)" d="M1747.28 1319.1 L1747.28 1486.45 L1795.82 1486.45 L1795.82 1319.1 L1747.28 1319.1 L1747.28 1319.1  Z" fill="#009af9" fill-rule="evenodd" fill-opacity="1"/>
<polyline clip-path="url(#clip182)" style="stroke:#000000; stroke-linecap:round; stroke-linejoin:round; stroke-width:4; stroke-opacity:1; fill:none" points="1747.28,1319.1 1747.28,1486.45 1795.82,1486.45 1795.82,1319.1 1747.28,1319.1 "/>
<path clip-path="url(#clip182)" d="M1795.82 1299.02 L1795.82 1486.45 L1844.37 1486.45 L1844.37 1299.02 L1795.82 1299.02 L1795.82 1299.02  Z" fill="#009af9" fill-rule="evenodd" fill-opacity="1"/>
<polyline clip-path="url(#clip182)" style="stroke:#000000; stroke-linecap:round; stroke-linejoin:round; stroke-width:4; stroke-opacity:1; fill:none" points="1795.82,1299.02 1795.82,1486.45 1844.37,1486.45 1844.37,1299.02 1795.82,1299.02 "/>
<path clip-path="url(#clip182)" d="M1844.37 1312.4 L1844.37 1486.45 L1892.92 1486.45 L1892.92 1312.4 L1844.37 1312.4 L1844.37 1312.4  Z" fill="#009af9" fill-rule="evenodd" fill-opacity="1"/>
<polyline clip-path="url(#clip182)" style="stroke:#000000; stroke-linecap:round; stroke-linejoin:round; stroke-width:4; stroke-opacity:1; fill:none" points="1844.37,1312.4 1844.37,1486.45 1892.92,1486.45 1892.92,1312.4 1844.37,1312.4 "/>
<path clip-path="url(#clip182)" d="M1892.92 1319.1 L1892.92 1486.45 L1941.47 1486.45 L1941.47 1319.1 L1892.92 1319.1 L1892.92 1319.1  Z" fill="#009af9" fill-rule="evenodd" fill-opacity="1"/>
<polyline clip-path="url(#clip182)" style="stroke:#000000; stroke-linecap:round; stroke-linejoin:round; stroke-width:4; stroke-opacity:1; fill:none" points="1892.92,1319.1 1892.92,1486.45 1941.47,1486.45 1941.47,1319.1 1892.92,1319.1 "/>
<path clip-path="url(#clip182)" d="M1941.47 1392.73 L1941.47 1486.45 L1990.01 1486.45 L1990.01 1392.73 L1941.47 1392.73 L1941.47 1392.73  Z" fill="#009af9" fill-rule="evenodd" fill-opacity="1"/>
<polyline clip-path="url(#clip182)" style="stroke:#000000; stroke-linecap:round; stroke-linejoin:round; stroke-width:4; stroke-opacity:1; fill:none" points="1941.47,1392.73 1941.47,1486.45 1990.01,1486.45 1990.01,1392.73 1941.47,1392.73 "/>
<path clip-path="url(#clip182)" d="M1990.01 1399.43 L1990.01 1486.45 L2038.56 1486.45 L2038.56 1399.43 L1990.01 1399.43 L1990.01 1399.43  Z" fill="#009af9" fill-rule="evenodd" fill-opacity="1"/>
<polyline clip-path="url(#clip182)" style="stroke:#000000; stroke-linecap:round; stroke-linejoin:round; stroke-width:4; stroke-opacity:1; fill:none" points="1990.01,1399.43 1990.01,1486.45 2038.56,1486.45 2038.56,1399.43 1990.01,1399.43 "/>
<path clip-path="url(#clip182)" d="M2038.56 1439.59 L2038.56 1486.45 L2087.11 1486.45 L2087.11 1439.59 L2038.56 1439.59 L2038.56 1439.59  Z" fill="#009af9" fill-rule="evenodd" fill-opacity="1"/>
<polyline clip-path="url(#clip182)" style="stroke:#000000; stroke-linecap:round; stroke-linejoin:round; stroke-width:4; stroke-opacity:1; fill:none" points="2038.56,1439.59 2038.56,1486.45 2087.11,1486.45 2087.11,1439.59 2038.56,1439.59 "/>
<path clip-path="url(#clip182)" d="M2087.11 1412.81 L2087.11 1486.45 L2135.65 1486.45 L2135.65 1412.81 L2087.11 1412.81 L2087.11 1412.81  Z" fill="#009af9" fill-rule="evenodd" fill-opacity="1"/>
<polyline clip-path="url(#clip182)" style="stroke:#000000; stroke-linecap:round; stroke-linejoin:round; stroke-width:4; stroke-opacity:1; fill:none" points="2087.11,1412.81 2087.11,1486.45 2135.65,1486.45 2135.65,1412.81 2087.11,1412.81 "/>
<path clip-path="url(#clip182)" d="M2135.65 1473.06 L2135.65 1486.45 L2184.2 1486.45 L2184.2 1473.06 L2135.65 1473.06 L2135.65 1473.06  Z" fill="#009af9" fill-rule="evenodd" fill-opacity="1"/>
<polyline clip-path="url(#clip182)" style="stroke:#000000; stroke-linecap:round; stroke-linejoin:round; stroke-width:4; stroke-opacity:1; fill:none" points="2135.65,1473.06 2135.65,1486.45 2184.2,1486.45 2184.2,1473.06 2135.65,1473.06 "/>
<path clip-path="url(#clip182)" d="M2184.2 1473.06 L2184.2 1486.45 L2232.75 1486.45 L2232.75 1473.06 L2184.2 1473.06 L2184.2 1473.06  Z" fill="#009af9" fill-rule="evenodd" fill-opacity="1"/>
<polyline clip-path="url(#clip182)" style="stroke:#000000; stroke-linecap:round; stroke-linejoin:round; stroke-width:4; stroke-opacity:1; fill:none" points="2184.2,1473.06 2184.2,1486.45 2232.75,1486.45 2232.75,1473.06 2184.2,1473.06 "/>
<circle clip-path="url(#clip182)" style="fill:#009af9; stroke:none; fill-opacity:0" cx="315.139" cy="1473.06" r="2"/>
<circle clip-path="url(#clip182)" style="fill:#009af9; stroke:none; fill-opacity:0" cx="363.686" cy="1452.98" r="2"/>
<circle clip-path="url(#clip182)" style="fill:#009af9; stroke:none; fill-opacity:0" cx="412.233" cy="1392.73" r="2"/>
<circle clip-path="url(#clip182)" style="fill:#009af9; stroke:none; fill-opacity:0" cx="460.78" cy="1212" r="2"/>
<circle clip-path="url(#clip182)" style="fill:#009af9; stroke:none; fill-opacity:0" cx="509.327" cy="1031.26" r="2"/>
<circle clip-path="url(#clip182)" style="fill:#009af9; stroke:none; fill-opacity:0" cx="557.874" cy="689.865" r="2"/>
<circle clip-path="url(#clip182)" style="fill:#009af9; stroke:none; fill-opacity:0" cx="606.422" cy="381.943" r="2"/>
<circle clip-path="url(#clip182)" style="fill:#009af9; stroke:none; fill-opacity:0" cx="654.969" cy="154.348" r="2"/>
<circle clip-path="url(#clip182)" style="fill:#009af9; stroke:none; fill-opacity:0" cx="703.516" cy="227.981" r="2"/>
<circle clip-path="url(#clip182)" style="fill:#009af9; stroke:none; fill-opacity:0" cx="752.063" cy="1064.73" r="2"/>
<circle clip-path="url(#clip182)" style="fill:#009af9; stroke:none; fill-opacity:0" cx="800.61" cy="950.93" r="2"/>
<circle clip-path="url(#clip182)" style="fill:#009af9; stroke:none; fill-opacity:0" cx="849.157" cy="214.593" r="2"/>
<circle clip-path="url(#clip182)" style="fill:#009af9; stroke:none; fill-opacity:0" cx="897.704" cy="147.654" r="2"/>
<circle clip-path="url(#clip182)" style="fill:#009af9; stroke:none; fill-opacity:0" cx="946.251" cy="47.2441" r="2"/>
<circle clip-path="url(#clip182)" style="fill:#009af9; stroke:none; fill-opacity:0" cx="994.798" cy="643.008" r="2"/>
<circle clip-path="url(#clip182)" style="fill:#009af9; stroke:none; fill-opacity:0" cx="1043.34" cy="957.624" r="2"/>
<circle clip-path="url(#clip182)" style="fill:#009af9; stroke:none; fill-opacity:0" cx="1091.89" cy="1265.55" r="2"/>
<circle clip-path="url(#clip182)" style="fill:#009af9; stroke:none; fill-opacity:0" cx="1140.44" cy="1426.2" r="2"/>
<circle clip-path="url(#clip182)" style="fill:#009af9; stroke:none; fill-opacity:0" cx="1188.99" cy="1466.37" r="2"/>
<circle clip-path="url(#clip182)" style="fill:#009af9; stroke:none; fill-opacity:0" cx="1237.53" cy="1479.75" r="2"/>
<circle clip-path="url(#clip182)" style="fill:#009af9; stroke:none; fill-opacity:0" cx="1286.08" cy="1486.45" r="2"/>
<circle clip-path="url(#clip182)" style="fill:#009af9; stroke:none; fill-opacity:0" cx="1334.63" cy="1486.45" r="2"/>
<circle clip-path="url(#clip182)" style="fill:#009af9; stroke:none; fill-opacity:0" cx="1383.17" cy="1486.45" r="2"/>
<circle clip-path="url(#clip182)" style="fill:#009af9; stroke:none; fill-opacity:0" cx="1431.72" cy="1486.45" r="2"/>
<circle clip-path="url(#clip182)" style="fill:#009af9; stroke:none; fill-opacity:0" cx="1480.27" cy="1479.75" r="2"/>
<circle clip-path="url(#clip182)" style="fill:#009af9; stroke:none; fill-opacity:0" cx="1528.82" cy="1473.06" r="2"/>
<circle clip-path="url(#clip182)" style="fill:#009af9; stroke:none; fill-opacity:0" cx="1577.36" cy="1473.06" r="2"/>
<circle clip-path="url(#clip182)" style="fill:#009af9; stroke:none; fill-opacity:0" cx="1625.91" cy="1406.12" r="2"/>
<circle clip-path="url(#clip182)" style="fill:#009af9; stroke:none; fill-opacity:0" cx="1674.46" cy="1439.59" r="2"/>
<circle clip-path="url(#clip182)" style="fill:#009af9; stroke:none; fill-opacity:0" cx="1723" cy="1332.49" r="2"/>
<circle clip-path="url(#clip182)" style="fill:#009af9; stroke:none; fill-opacity:0" cx="1771.55" cy="1319.1" r="2"/>
<circle clip-path="url(#clip182)" style="fill:#009af9; stroke:none; fill-opacity:0" cx="1820.1" cy="1299.02" r="2"/>
<circle clip-path="url(#clip182)" style="fill:#009af9; stroke:none; fill-opacity:0" cx="1868.64" cy="1312.4" r="2"/>
<circle clip-path="url(#clip182)" style="fill:#009af9; stroke:none; fill-opacity:0" cx="1917.19" cy="1319.1" r="2"/>
<circle clip-path="url(#clip182)" style="fill:#009af9; stroke:none; fill-opacity:0" cx="1965.74" cy="1392.73" r="2"/>
<circle clip-path="url(#clip182)" style="fill:#009af9; stroke:none; fill-opacity:0" cx="2014.29" cy="1399.43" r="2"/>
<circle clip-path="url(#clip182)" style="fill:#009af9; stroke:none; fill-opacity:0" cx="2062.83" cy="1439.59" r="2"/>
<circle clip-path="url(#clip182)" style="fill:#009af9; stroke:none; fill-opacity:0" cx="2111.38" cy="1412.81" r="2"/>
<circle clip-path="url(#clip182)" style="fill:#009af9; stroke:none; fill-opacity:0" cx="2159.93" cy="1473.06" r="2"/>
<circle clip-path="url(#clip182)" style="fill:#009af9; stroke:none; fill-opacity:0" cx="2208.47" cy="1473.06" r="2"/>
<polyline clip-path="url(#clip182)" style="stroke:#e26f46; stroke-linecap:round; stroke-linejoin:round; stroke-width:12; stroke-opacity:1; fill:none" points="1163.15,2925.65 1163.15,-1391.96 "/>
</svg>
