<?xml version="1.0" encoding="utf-8"?>
<svg xmlns="http://www.w3.org/2000/svg" xmlns:xlink="http://www.w3.org/1999/xlink" width="600" height="400" viewBox="0 0 2400 1600">
<defs>
  <clipPath id="clip060">
    <rect x="0" y="0" width="2400" height="1600"/>
  </clipPath>
</defs>
<path clip-path="url(#clip060)" d="M0 1600 L2400 1600 L2400 0 L0 0  Z" fill="#ffffff" fill-rule="evenodd" fill-opacity="1"/>
<defs>
  <clipPath id="clip061">
    <rect x="480" y="0" width="1681" height="1600"/>
  </clipPath>
</defs>
<path clip-path="url(#clip060)" d="M170.857 1486.45 L2352.76 1486.45 L2352.76 47.2441 L170.857 47.2441  Z" fill="#ffffff" fill-rule="evenodd" fill-opacity="1"/>
<defs>
  <clipPath id="clip062">
    <rect x="170" y="47" width="2183" height="1440"/>
  </clipPath>
</defs>
<polyline clip-path="url(#clip062)" style="stroke:#000000; stroke-linecap:round; stroke-linejoin:round; stroke-width:2; stroke-opacity:0.1; fill:none" points="549.783,1486.45 549.783,47.2441 "/>
<polyline clip-path="url(#clip062)" style="stroke:#000000; stroke-linecap:round; stroke-linejoin:round; stroke-width:2; stroke-opacity:0.1; fill:none" points="938.16,1486.45 938.16,47.2441 "/>
<polyline clip-path="url(#clip062)" style="stroke:#000000; stroke-linecap:round; stroke-linejoin:round; stroke-width:2; stroke-opacity:0.1; fill:none" points="1326.54,1486.45 1326.54,47.2441 "/>
<polyline clip-path="url(#clip062)" style="stroke:#000000; stroke-linecap:round; stroke-linejoin:round; stroke-width:2; stroke-opacity:0.1; fill:none" points="1714.91,1486.45 1714.91,47.2441 "/>
<polyline clip-path="url(#clip062)" style="stroke:#000000; stroke-linecap:round; stroke-linejoin:round; stroke-width:2; stroke-opacity:0.1; fill:none" points="2103.29,1486.45 2103.29,47.2441 "/>
<polyline clip-path="url(#clip062)" style="stroke:#000000; stroke-linecap:round; stroke-linejoin:round; stroke-width:2; stroke-opacity:0.1; fill:none" points="170.857,1486.45 2352.76,1486.45 "/>
<polyline clip-path="url(#clip062)" style="stroke:#000000; stroke-linecap:round; stroke-linejoin:round; stroke-width:2; stroke-opacity:0.1; fill:none" points="170.857,1079.89 2352.76,1079.89 "/>
<polyline clip-path="url(#clip062)" style="stroke:#000000; stroke-linecap:round; stroke-linejoin:round; stroke-width:2; stroke-opacity:0.1; fill:none" points="170.857,673.338 2352.76,673.338 "/>
<polyline clip-path="url(#clip062)" style="stroke:#000000; stroke-linecap:round; stroke-linejoin:round; stroke-width:2; stroke-opacity:0.1; fill:none" points="170.857,266.784 2352.76,266.784 "/>
<polyline clip-path="url(#clip060)" style="stroke:#000000; stroke-linecap:round; stroke-linejoin:round; stroke-width:4; stroke-opacity:1; fill:none" points="170.857,1486.45 2352.76,1486.45 "/>
<polyline clip-path="url(#clip060)" style="stroke:#000000; stroke-linecap:round; stroke-linejoin:round; stroke-width:4; stroke-opacity:1; fill:none" points="549.783,1486.45 549.783,1467.55 "/>
<polyline clip-path="url(#clip060)" style="stroke:#000000; stroke-linecap:round; stroke-linejoin:round; stroke-width:4; stroke-opacity:1; fill:none" points="938.16,1486.45 938.16,1467.55 "/>
<polyline clip-path="url(#clip060)" style="stroke:#000000; stroke-linecap:round; stroke-linejoin:round; stroke-width:4; stroke-opacity:1; fill:none" points="1326.54,1486.45 1326.54,1467.55 "/>
<polyline clip-path="url(#clip060)" style="stroke:#000000; stroke-linecap:round; stroke-linejoin:round; stroke-width:4; stroke-opacity:1; fill:none" points="1714.91,1486.45 1714.91,1467.55 "/>
<polyline clip-path="url(#clip060)" style="stroke:#000000; stroke-linecap:round; stroke-linejoin:round; stroke-width:4; stroke-opacity:1; fill:none" points="2103.29,1486.45 2103.29,1467.55 "/>
<path clip-path="url(#clip060)" d="M518.846 1532.02 L548.522 1532.02 L548.522 1535.95 L518.846 1535.95 L518.846 1532.02 Z" fill="#000000" fill-rule="nonzero" fill-opacity="1" /><path clip-path="url(#clip060)" d="M569.193 1529.7 Q566.045 1529.7 564.193 1531.86 Q562.364 1534.01 562.364 1537.76 Q562.364 1541.49 564.193 1543.66 Q566.045 1545.82 569.193 1545.82 Q572.341 1545.82 574.17 1543.66 Q576.022 1541.49 576.022 1537.76 Q576.022 1534.01 574.17 1531.86 Q572.341 1529.7 569.193 1529.7 M578.475 1515.05 L578.475 1519.31 Q576.716 1518.48 574.91 1518.04 Q573.128 1517.6 571.369 1517.6 Q566.739 1517.6 564.286 1520.72 Q561.855 1523.85 561.508 1530.17 Q562.874 1528.15 564.934 1527.09 Q566.994 1526 569.471 1526 Q574.679 1526 577.688 1529.17 Q580.721 1532.32 580.721 1537.76 Q580.721 1543.08 577.573 1546.3 Q574.424 1549.52 569.193 1549.52 Q563.198 1549.52 560.026 1544.94 Q556.855 1540.33 556.855 1531.6 Q556.855 1523.41 560.744 1518.55 Q564.633 1513.66 571.184 1513.66 Q572.943 1513.66 574.725 1514.01 Q576.531 1514.36 578.475 1515.05 Z" fill="#000000" fill-rule="nonzero" fill-opacity="1" /><path clip-path="url(#clip060)" d="M907.627 1532.02 L937.303 1532.02 L937.303 1535.95 L907.627 1535.95 L907.627 1532.02 Z" fill="#000000" fill-rule="nonzero" fill-opacity="1" /><path clip-path="url(#clip060)" d="M961.562 1530.21 Q964.919 1530.93 966.794 1533.2 Q968.692 1535.47 968.692 1538.8 Q968.692 1543.92 965.173 1546.72 Q961.655 1549.52 955.173 1549.52 Q952.998 1549.52 950.683 1549.08 Q948.391 1548.66 945.937 1547.81 L945.937 1543.29 Q947.882 1544.43 950.197 1545.01 Q952.511 1545.58 955.035 1545.58 Q959.433 1545.58 961.724 1543.85 Q964.039 1542.11 964.039 1538.8 Q964.039 1535.75 961.886 1534.03 Q959.757 1532.3 955.937 1532.3 L951.91 1532.3 L951.91 1528.45 L956.123 1528.45 Q959.572 1528.45 961.4 1527.09 Q963.229 1525.7 963.229 1523.11 Q963.229 1520.45 961.331 1519.03 Q959.456 1517.6 955.937 1517.6 Q954.016 1517.6 951.817 1518.01 Q949.618 1518.43 946.979 1519.31 L946.979 1515.14 Q949.641 1514.4 951.956 1514.03 Q954.294 1513.66 956.354 1513.66 Q961.678 1513.66 964.78 1516.09 Q967.882 1518.5 967.882 1522.62 Q967.882 1525.49 966.238 1527.48 Q964.595 1529.45 961.562 1530.21 Z" fill="#000000" fill-rule="nonzero" fill-opacity="1" /><path clip-path="url(#clip060)" d="M1326.54 1517.37 Q1322.92 1517.37 1321.1 1520.93 Q1319.29 1524.47 1319.29 1531.6 Q1319.29 1538.71 1321.1 1542.27 Q1322.92 1545.82 1326.54 1545.82 Q1330.17 1545.82 1331.98 1542.27 Q1333.8 1538.71 1333.8 1531.6 Q1333.8 1524.47 1331.98 1520.93 Q1330.17 1517.37 1326.54 1517.37 M1326.54 1513.66 Q1332.35 1513.66 1335.4 1518.27 Q1338.48 1522.85 1338.48 1531.6 Q1338.48 1540.33 1335.4 1544.94 Q1332.35 1549.52 1326.54 1549.52 Q1320.73 1549.52 1317.65 1544.94 Q1314.59 1540.33 1314.59 1531.6 Q1314.59 1522.85 1317.65 1518.27 Q1320.73 1513.66 1326.54 1513.66 Z" fill="#000000" fill-rule="nonzero" fill-opacity="1" /><path clip-path="url(#clip060)" d="M1719.16 1530.21 Q1722.52 1530.93 1724.39 1533.2 Q1726.29 1535.47 1726.29 1538.8 Q1726.29 1543.92 1722.77 1546.72 Q1719.25 1549.52 1712.77 1549.52 Q1710.6 1549.52 1708.28 1549.08 Q1705.99 1548.66 1703.54 1547.81 L1703.54 1543.29 Q1705.48 1544.43 1707.79 1545.01 Q1710.11 1545.58 1712.63 1545.58 Q1717.03 1545.58 1719.32 1543.85 Q1721.64 1542.11 1721.64 1538.8 Q1721.64 1535.75 1719.48 1534.03 Q1717.35 1532.3 1713.54 1532.3 L1709.51 1532.3 L1709.51 1528.45 L1713.72 1528.45 Q1717.17 1528.45 1719 1527.09 Q1720.83 1525.7 1720.83 1523.11 Q1720.83 1520.45 1718.93 1519.03 Q1717.05 1517.6 1713.54 1517.6 Q1711.61 1517.6 1709.41 1518.01 Q1707.22 1518.43 1704.58 1519.31 L1704.58 1515.14 Q1707.24 1514.4 1709.55 1514.03 Q1711.89 1513.66 1713.95 1513.66 Q1719.28 1513.66 1722.38 1516.09 Q1725.48 1518.5 1725.48 1522.62 Q1725.48 1525.49 1723.84 1527.48 Q1722.19 1529.45 1719.16 1530.21 Z" fill="#000000" fill-rule="nonzero" fill-opacity="1" /><path clip-path="url(#clip060)" d="M2103.69 1529.7 Q2100.55 1529.7 2098.69 1531.86 Q2096.87 1534.01 2096.87 1537.76 Q2096.87 1541.49 2098.69 1543.66 Q2100.55 1545.82 2103.69 1545.82 Q2106.84 1545.82 2108.67 1543.66 Q2110.52 1541.49 2110.52 1537.76 Q2110.52 1534.01 2108.67 1531.86 Q2106.84 1529.7 2103.69 1529.7 M2112.98 1515.05 L2112.98 1519.31 Q2111.22 1518.48 2109.41 1518.04 Q2107.63 1517.6 2105.87 1517.6 Q2101.24 1517.6 2098.79 1520.72 Q2096.36 1523.85 2096.01 1530.17 Q2097.37 1528.15 2099.43 1527.09 Q2101.49 1526 2103.97 1526 Q2109.18 1526 2112.19 1529.17 Q2115.22 1532.32 2115.22 1537.76 Q2115.22 1543.08 2112.07 1546.3 Q2108.93 1549.52 2103.69 1549.52 Q2097.7 1549.52 2094.53 1544.94 Q2091.36 1540.33 2091.36 1531.6 Q2091.36 1523.41 2095.24 1518.55 Q2099.13 1513.66 2105.68 1513.66 Q2107.44 1513.66 2109.23 1514.01 Q2111.03 1514.36 2112.98 1515.05 Z" fill="#000000" fill-rule="nonzero" fill-opacity="1" /><polyline clip-path="url(#clip060)" style="stroke:#000000; stroke-linecap:round; stroke-linejoin:round; stroke-width:4; stroke-opacity:1; fill:none" points="170.857,1486.45 170.857,47.2441 "/>
<polyline clip-path="url(#clip060)" style="stroke:#000000; stroke-linecap:round; stroke-linejoin:round; stroke-width:4; stroke-opacity:1; fill:none" points="170.857,1486.45 189.755,1486.45 "/>
<polyline clip-path="url(#clip060)" style="stroke:#000000; stroke-linecap:round; stroke-linejoin:round; stroke-width:4; stroke-opacity:1; fill:none" points="170.857,1079.89 189.755,1079.89 "/>
<polyline clip-path="url(#clip060)" style="stroke:#000000; stroke-linecap:round; stroke-linejoin:round; stroke-width:4; stroke-opacity:1; fill:none" points="170.857,673.338 189.755,673.338 "/>
<polyline clip-path="url(#clip060)" style="stroke:#000000; stroke-linecap:round; stroke-linejoin:round; stroke-width:4; stroke-opacity:1; fill:none" points="170.857,266.784 189.755,266.784 "/>
<path clip-path="url(#clip060)" d="M122.913 1472.25 Q119.302 1472.25 117.473 1475.81 Q115.668 1479.35 115.668 1486.48 Q115.668 1493.59 117.473 1497.15 Q119.302 1500.7 122.913 1500.7 Q126.547 1500.7 128.353 1497.15 Q130.182 1493.59 130.182 1486.48 Q130.182 1479.35 128.353 1475.81 Q126.547 1472.25 122.913 1472.25 M122.913 1468.54 Q128.723 1468.54 131.779 1473.15 Q134.857 1477.73 134.857 1486.48 Q134.857 1495.21 131.779 1499.82 Q128.723 1504.4 122.913 1504.4 Q117.103 1504.4 114.024 1499.82 Q110.969 1495.21 110.969 1486.48 Q110.969 1477.73 114.024 1473.15 Q117.103 1468.54 122.913 1468.54 Z" fill="#000000" fill-rule="nonzero" fill-opacity="1" /><path clip-path="url(#clip060)" d="M53.3995 1093.24 L61.0384 1093.24 L61.0384 1066.87 L52.7282 1068.54 L52.7282 1064.28 L60.9921 1062.61 L65.668 1062.61 L65.668 1093.24 L73.3068 1093.24 L73.3068 1097.17 L53.3995 1097.17 L53.3995 1093.24 Z" fill="#000000" fill-rule="nonzero" fill-opacity="1" /><path clip-path="url(#clip060)" d="M92.7512 1065.69 Q89.1401 1065.69 87.3114 1069.26 Q85.5058 1072.8 85.5058 1079.93 Q85.5058 1087.03 87.3114 1090.6 Q89.1401 1094.14 92.7512 1094.14 Q96.3854 1094.14 98.1909 1090.6 Q100.02 1087.03 100.02 1079.93 Q100.02 1072.8 98.1909 1069.26 Q96.3854 1065.69 92.7512 1065.69 M92.7512 1061.99 Q98.5613 1061.99 101.617 1066.59 Q104.696 1071.18 104.696 1079.93 Q104.696 1088.65 101.617 1093.26 Q98.5613 1097.84 92.7512 1097.84 Q86.941 1097.84 83.8623 1093.26 Q80.8068 1088.65 80.8068 1079.93 Q80.8068 1071.18 83.8623 1066.59 Q86.941 1061.99 92.7512 1061.99 Z" fill="#000000" fill-rule="nonzero" fill-opacity="1" /><path clip-path="url(#clip060)" d="M122.913 1065.69 Q119.302 1065.69 117.473 1069.26 Q115.668 1072.8 115.668 1079.93 Q115.668 1087.03 117.473 1090.6 Q119.302 1094.14 122.913 1094.14 Q126.547 1094.14 128.353 1090.6 Q130.182 1087.03 130.182 1079.93 Q130.182 1072.8 128.353 1069.26 Q126.547 1065.69 122.913 1065.69 M122.913 1061.99 Q128.723 1061.99 131.779 1066.59 Q134.857 1071.18 134.857 1079.93 Q134.857 1088.65 131.779 1093.26 Q128.723 1097.84 122.913 1097.84 Q117.103 1097.84 114.024 1093.26 Q110.969 1088.65 110.969 1079.93 Q110.969 1071.18 114.024 1066.59 Q117.103 1061.99 122.913 1061.99 Z" fill="#000000" fill-rule="nonzero" fill-opacity="1" /><path clip-path="url(#clip060)" d="M56.6171 686.683 L72.9365 686.683 L72.9365 690.618 L50.9921 690.618 L50.9921 686.683 Q53.6541 683.929 58.2375 679.299 Q62.8439 674.646 64.0245 673.304 Q66.2698 670.781 67.1494 669.044 Q68.0522 667.285 68.0522 665.595 Q68.0522 662.841 66.1078 661.105 Q64.1865 659.369 61.0847 659.369 Q58.8856 659.369 56.4319 660.132 Q54.0014 660.896 51.2236 662.447 L51.2236 657.725 Q54.0477 656.591 56.5014 656.012 Q58.955 655.433 60.9921 655.433 Q66.3624 655.433 69.5568 658.119 Q72.7513 660.804 72.7513 665.294 Q72.7513 667.424 71.9411 669.345 Q71.1541 671.243 69.0476 673.836 Q68.4689 674.507 65.367 677.725 Q62.2652 680.919 56.6171 686.683 Z" fill="#000000" fill-rule="nonzero" fill-opacity="1" /><path clip-path="url(#clip060)" d="M92.7512 659.137 Q89.1401 659.137 87.3114 662.702 Q85.5058 666.244 85.5058 673.373 Q85.5058 680.48 87.3114 684.044 Q89.1401 687.586 92.7512 687.586 Q96.3854 687.586 98.1909 684.044 Q100.02 680.48 100.02 673.373 Q100.02 666.244 98.1909 662.702 Q96.3854 659.137 92.7512 659.137 M92.7512 655.433 Q98.5613 655.433 101.617 660.04 Q104.696 664.623 104.696 673.373 Q104.696 682.1 101.617 686.706 Q98.5613 691.29 92.7512 691.29 Q86.941 691.29 83.8623 686.706 Q80.8068 682.1 80.8068 673.373 Q80.8068 664.623 83.8623 660.04 Q86.941 655.433 92.7512 655.433 Z" fill="#000000" fill-rule="nonzero" fill-opacity="1" /><path clip-path="url(#clip060)" d="M122.913 659.137 Q119.302 659.137 117.473 662.702 Q115.668 666.244 115.668 673.373 Q115.668 680.48 117.473 684.044 Q119.302 687.586 122.913 687.586 Q126.547 687.586 128.353 684.044 Q130.182 680.48 130.182 673.373 Q130.182 666.244 128.353 662.702 Q126.547 659.137 122.913 659.137 M122.913 655.433 Q128.723 655.433 131.779 660.04 Q134.857 664.623 134.857 673.373 Q134.857 682.1 131.779 686.706 Q128.723 691.29 122.913 691.29 Q117.103 691.29 114.024 686.706 Q110.969 682.1 110.969 673.373 Q110.969 664.623 114.024 660.04 Q117.103 655.433 122.913 655.433 Z" fill="#000000" fill-rule="nonzero" fill-opacity="1" /><path clip-path="url(#clip060)" d="M66.7559 265.429 Q70.1124 266.147 71.9874 268.416 Q73.8855 270.684 73.8855 274.017 Q73.8855 279.133 70.367 281.934 Q66.8485 284.735 60.3671 284.735 Q58.1912 284.735 55.8764 284.295 Q53.5847 283.878 51.131 283.022 L51.131 278.508 Q53.0754 279.642 55.3903 280.221 Q57.7051 280.8 60.2282 280.8 Q64.6263 280.8 66.918 279.064 Q69.2328 277.328 69.2328 274.017 Q69.2328 270.962 67.08 269.249 Q64.9504 267.513 61.131 267.513 L57.1032 267.513 L57.1032 263.67 L61.3161 263.67 Q64.7652 263.67 66.5939 262.305 Q68.4226 260.916 68.4226 258.323 Q68.4226 255.661 66.5245 254.249 Q64.6495 252.814 61.131 252.814 Q59.2097 252.814 57.0106 253.23 Q54.8115 253.647 52.1727 254.527 L52.1727 250.36 Q54.8347 249.619 57.1495 249.249 Q59.4875 248.879 61.5476 248.879 Q66.8717 248.879 69.9735 251.309 Q73.0753 253.717 73.0753 257.837 Q73.0753 260.707 71.4318 262.698 Q69.7883 264.666 66.7559 265.429 Z" fill="#000000" fill-rule="nonzero" fill-opacity="1" /><path clip-path="url(#clip060)" d="M92.7512 252.582 Q89.1401 252.582 87.3114 256.147 Q85.5058 259.689 85.5058 266.818 Q85.5058 273.925 87.3114 277.49 Q89.1401 281.031 92.7512 281.031 Q96.3854 281.031 98.1909 277.49 Q100.02 273.925 100.02 266.818 Q100.02 259.689 98.1909 256.147 Q96.3854 252.582 92.7512 252.582 M92.7512 248.879 Q98.5613 248.879 101.617 253.485 Q104.696 258.068 104.696 266.818 Q104.696 275.545 101.617 280.152 Q98.5613 284.735 92.7512 284.735 Q86.941 284.735 83.8623 280.152 Q80.8068 275.545 80.8068 266.818 Q80.8068 258.068 83.8623 253.485 Q86.941 248.879 92.7512 248.879 Z" fill="#000000" fill-rule="nonzero" fill-opacity="1" /><path clip-path="url(#clip060)" d="M122.913 252.582 Q119.302 252.582 117.473 256.147 Q115.668 259.689 115.668 266.818 Q115.668 273.925 117.473 277.49 Q119.302 281.031 122.913 281.031 Q126.547 281.031 128.353 277.49 Q130.182 273.925 130.182 266.818 Q130.182 259.689 128.353 256.147 Q126.547 252.582 122.913 252.582 M122.913 248.879 Q128.723 248.879 131.779 253.485 Q134.857 258.068 134.857 266.818 Q134.857 275.545 131.779 280.152 Q128.723 284.735 122.913 284.735 Q117.103 284.735 114.024 280.152 Q110.969 275.545 110.969 266.818 Q110.969 258.068 114.024 253.485 Q117.103 248.879 122.913 248.879 Z" fill="#000000" fill-rule="nonzero" fill-opacity="1" /><path clip-path="url(#clip062)" d="M290.866 1478.32 L290.866 1486.45 L420.325 1486.45 L420.325 1478.32 L290.866 1478.32 L290.866 1478.32  Z" fill="#009af9" fill-rule="evenodd" fill-opacity="1"/>
<polyline clip-path="url(#clip062)" style="stroke:#000000; stroke-linecap:round; stroke-linejoin:round; stroke-width:4; stroke-opacity:1; fill:none" points="290.866,1478.32 290.866,1486.45 420.325,1486.45 420.325,1478.32 290.866,1478.32 "/>
<path clip-path="url(#clip062)" d="M420.325 1470.19 L420.325 1486.45 L549.783 1486.45 L549.783 1470.19 L420.325 1470.19 L420.325 1470.19  Z" fill="#009af9" fill-rule="evenodd" fill-opacity="1"/>
<polyline clip-path="url(#clip062)" style="stroke:#000000; stroke-linecap:round; stroke-linejoin:round; stroke-width:4; stroke-opacity:1; fill:none" points="420.325,1470.19 420.325,1486.45 549.783,1486.45 549.783,1470.19 420.325,1470.19 "/>
<path clip-path="url(#clip062)" d="M549.783 1425.46 L549.783 1486.45 L679.242 1486.45 L679.242 1425.46 L549.783 1425.46 L549.783 1425.46  Z" fill="#009af9" fill-rule="evenodd" fill-opacity="1"/>
<polyline clip-path="url(#clip062)" style="stroke:#000000; stroke-linecap:round; stroke-linejoin:round; stroke-width:4; stroke-opacity:1; fill:none" points="549.783,1425.46 549.783,1486.45 679.242,1486.45 679.242,1425.46 549.783,1425.46 "/>
<path clip-path="url(#clip062)" d="M679.242 1287.24 L679.242 1486.45 L808.701 1486.45 L808.701 1287.24 L679.242 1287.24 L679.242 1287.24  Z" fill="#009af9" fill-rule="evenodd" fill-opacity="1"/>
<polyline clip-path="url(#clip062)" style="stroke:#000000; stroke-linecap:round; stroke-linejoin:round; stroke-width:4; stroke-opacity:1; fill:none" points="679.242,1287.24 679.242,1486.45 808.701,1486.45 808.701,1287.24 679.242,1287.24 "/>
<path clip-path="url(#clip062)" d="M808.701 909.14 L808.701 1486.45 L938.16 1486.45 L938.16 909.14 L808.701 909.14 L808.701 909.14  Z" fill="#009af9" fill-rule="evenodd" fill-opacity="1"/>
<polyline clip-path="url(#clip062)" style="stroke:#000000; stroke-linecap:round; stroke-linejoin:round; stroke-width:4; stroke-opacity:1; fill:none" points="808.701,909.14 808.701,1486.45 938.16,1486.45 938.16,909.14 808.701,909.14 "/>
<path clip-path="url(#clip062)" d="M938.16 360.291 L938.16 1486.45 L1067.62 1486.45 L1067.62 360.291 L938.16 360.291 L938.16 360.291  Z" fill="#009af9" fill-rule="evenodd" fill-opacity="1"/>
<polyline clip-path="url(#clip062)" style="stroke:#000000; stroke-linecap:round; stroke-linejoin:round; stroke-width:4; stroke-opacity:1; fill:none" points="938.16,360.291 938.16,1486.45 1067.62,1486.45 1067.62,360.291 938.16,360.291 "/>
<path clip-path="url(#clip062)" d="M1067.62 157.014 L1067.62 1486.45 L1197.08 1486.45 L1197.08 157.014 L1067.62 157.014 L1067.62 157.014  Z" fill="#009af9" fill-rule="evenodd" fill-opacity="1"/>
<polyline clip-path="url(#clip062)" style="stroke:#000000; stroke-linecap:round; stroke-linejoin:round; stroke-width:4; stroke-opacity:1; fill:none" points="1067.62,157.014 1067.62,1486.45 1197.08,1486.45 1197.08,157.014 1067.62,157.014 "/>
<path clip-path="url(#clip062)" d="M1197.08 872.55 L1197.08 1486.45 L1326.54 1486.45 L1326.54 872.55 L1197.08 872.55 L1197.08 872.55  Z" fill="#009af9" fill-rule="evenodd" fill-opacity="1"/>
<polyline clip-path="url(#clip062)" style="stroke:#000000; stroke-linecap:round; stroke-linejoin:round; stroke-width:4; stroke-opacity:1; fill:none" points="1197.08,872.55 1197.08,1486.45 1326.54,1486.45 1326.54,872.55 1197.08,872.55 "/>
<path clip-path="url(#clip062)" d="M1326.54 831.895 L1326.54 1486.45 L1455.99 1486.45 L1455.99 831.895 L1326.54 831.895 L1326.54 831.895  Z" fill="#009af9" fill-rule="evenodd" fill-opacity="1"/>
<polyline clip-path="url(#clip062)" style="stroke:#000000; stroke-linecap:round; stroke-linejoin:round; stroke-width:4; stroke-opacity:1; fill:none" points="1326.54,831.895 1326.54,1486.45 1455.99,1486.45 1455.99,831.895 1326.54,831.895 "/>
<path clip-path="url(#clip062)" d="M1455.99 47.2441 L1455.99 1486.45 L1585.45 1486.45 L1585.45 47.2441 L1455.99 47.2441 L1455.99 47.2441  Z" fill="#009af9" fill-rule="evenodd" fill-opacity="1"/>
<polyline clip-path="url(#clip062)" style="stroke:#000000; stroke-linecap:round; stroke-linejoin:round; stroke-width:4; stroke-opacity:1; fill:none" points="1455.99,47.2441 1455.99,1486.45 1585.45,1486.45 1585.45,47.2441 1455.99,47.2441 "/>
<path clip-path="url(#clip062)" d="M1585.45 315.57 L1585.45 1486.45 L1714.91 1486.45 L1714.91 315.57 L1585.45 315.57 L1585.45 315.57  Z" fill="#009af9" fill-rule="evenodd" fill-opacity="1"/>
<polyline clip-path="url(#clip062)" style="stroke:#000000; stroke-linecap:round; stroke-linejoin:round; stroke-width:4; stroke-opacity:1; fill:none" points="1585.45,315.57 1585.45,1486.45 1714.91,1486.45 1714.91,315.57 1585.45,315.57 "/>
<path clip-path="url(#clip062)" d="M1714.91 868.485 L1714.91 1486.45 L1844.37 1486.45 L1844.37 868.485 L1714.91 868.485 L1714.91 868.485  Z" fill="#009af9" fill-rule="evenodd" fill-opacity="1"/>
<polyline clip-path="url(#clip062)" style="stroke:#000000; stroke-linecap:round; stroke-linejoin:round; stroke-width:4; stroke-opacity:1; fill:none" points="1714.91,868.485 1714.91,1486.45 1844.37,1486.45 1844.37,868.485 1714.91,868.485 "/>
<path clip-path="url(#clip062)" d="M1844.37 1234.38 L1844.37 1486.45 L1973.83 1486.45 L1973.83 1234.38 L1844.37 1234.38 L1844.37 1234.38  Z" fill="#009af9" fill-rule="evenodd" fill-opacity="1"/>
<polyline clip-path="url(#clip062)" style="stroke:#000000; stroke-linecap:round; stroke-linejoin:round; stroke-width:4; stroke-opacity:1; fill:none" points="1844.37,1234.38 1844.37,1486.45 1973.83,1486.45 1973.83,1234.38 1844.37,1234.38 "/>
<path clip-path="url(#clip062)" d="M1973.83 1441.73 L1973.83 1486.45 L2103.29 1486.45 L2103.29 1441.73 L1973.83 1441.73 L1973.83 1441.73  Z" fill="#009af9" fill-rule="evenodd" fill-opacity="1"/>
<polyline clip-path="url(#clip062)" style="stroke:#000000; stroke-linecap:round; stroke-linejoin:round; stroke-width:4; stroke-opacity:1; fill:none" points="1973.83,1441.73 1973.83,1486.45 2103.29,1486.45 2103.29,1441.73 1973.83,1441.73 "/>
<path clip-path="url(#clip062)" d="M2103.29 1466.12 L2103.29 1486.45 L2232.75 1486.45 L2232.75 1466.12 L2103.29 1466.12 L2103.29 1466.12  Z" fill="#009af9" fill-rule="evenodd" fill-opacity="1"/>
<polyline clip-path="url(#clip062)" style="stroke:#000000; stroke-linecap:round; stroke-linejoin:round; stroke-width:4; stroke-opacity:1; fill:none" points="2103.29,1466.12 2103.29,1486.45 2232.75,1486.45 2232.75,1466.12 2103.29,1466.12 "/>
<circle clip-path="url(#clip062)" style="fill:#009af9; stroke:none; fill-opacity:0" cx="355.595" cy="1478.32" r="2"/>
<circle clip-path="url(#clip062)" style="fill:#009af9; stroke:none; fill-opacity:0" cx="485.054" cy="1470.19" r="2"/>
<circle clip-path="url(#clip062)" style="fill:#009af9; stroke:none; fill-opacity:0" cx="614.513" cy="1425.46" r="2"/>
<circle clip-path="url(#clip062)" style="fill:#009af9; stroke:none; fill-opacity:0" cx="743.971" cy="1287.24" r="2"/>
<circle clip-path="url(#clip062)" style="fill:#009af9; stroke:none; fill-opacity:0" cx="873.43" cy="909.14" r="2"/>
<circle clip-path="url(#clip062)" style="fill:#009af9; stroke:none; fill-opacity:0" cx="1002.89" cy="360.291" r="2"/>
<circle clip-path="url(#clip062)" style="fill:#009af9; stroke:none; fill-opacity:0" cx="1132.35" cy="157.014" r="2"/>
<circle clip-path="url(#clip062)" style="fill:#009af9; stroke:none; fill-opacity:0" cx="1261.81" cy="872.55" r="2"/>
<circle clip-path="url(#clip062)" style="fill:#009af9; stroke:none; fill-opacity:0" cx="1391.27" cy="831.895" r="2"/>
<circle clip-path="url(#clip062)" style="fill:#009af9; stroke:none; fill-opacity:0" cx="1520.72" cy="47.2441" r="2"/>
<circle clip-path="url(#clip062)" style="fill:#009af9; stroke:none; fill-opacity:0" cx="1650.18" cy="315.57" r="2"/>
<circle clip-path="url(#clip062)" style="fill:#009af9; stroke:none; fill-opacity:0" cx="1779.64" cy="868.485" r="2"/>
<circle clip-path="url(#clip062)" style="fill:#009af9; stroke:none; fill-opacity:0" cx="1909.1" cy="1234.38" r="2"/>
<circle clip-path="url(#clip062)" style="fill:#009af9; stroke:none; fill-opacity:0" cx="2038.56" cy="1441.73" r="2"/>
<circle clip-path="url(#clip062)" style="fill:#009af9; stroke:none; fill-opacity:0" cx="2168.02" cy="1466.12" r="2"/>
</svg>
