<?xml version="1.0" encoding="utf-8"?>
<svg xmlns="http://www.w3.org/2000/svg" xmlns:xlink="http://www.w3.org/1999/xlink" width="600" height="400" viewBox="0 0 2400 1600">
<defs>
  <clipPath id="clip300">
    <rect x="0" y="0" width="2400" height="1600"/>
  </clipPath>
</defs>
<path clip-path="url(#clip300)" d="M0 1600 L2400 1600 L2400 0 L0 0  Z" fill="#ffffff" fill-rule="evenodd" fill-opacity="1"/>
<defs>
  <clipPath id="clip301">
    <rect x="480" y="0" width="1681" height="1600"/>
  </clipPath>
</defs>
<path clip-path="url(#clip300)" d="M169.121 1486.45 L2352.76 1486.45 L2352.76 47.2441 L169.121 47.2441  Z" fill="#ffffff" fill-rule="evenodd" fill-opacity="1"/>
<defs>
  <clipPath id="clip302">
    <rect x="169" y="47" width="2185" height="1440"/>
  </clipPath>
</defs>
<polyline clip-path="url(#clip302)" style="stroke:#000000; stroke-linecap:round; stroke-linejoin:round; stroke-width:2; stroke-opacity:0.1; fill:none" points="349.957,1486.45 349.957,47.2441 "/>
<polyline clip-path="url(#clip302)" style="stroke:#000000; stroke-linecap:round; stroke-linejoin:round; stroke-width:2; stroke-opacity:0.1; fill:none" points="653.618,1486.45 653.618,47.2441 "/>
<polyline clip-path="url(#clip302)" style="stroke:#000000; stroke-linecap:round; stroke-linejoin:round; stroke-width:2; stroke-opacity:0.1; fill:none" points="957.278,1486.45 957.278,47.2441 "/>
<polyline clip-path="url(#clip302)" style="stroke:#000000; stroke-linecap:round; stroke-linejoin:round; stroke-width:2; stroke-opacity:0.1; fill:none" points="1260.94,1486.45 1260.94,47.2441 "/>
<polyline clip-path="url(#clip302)" style="stroke:#000000; stroke-linecap:round; stroke-linejoin:round; stroke-width:2; stroke-opacity:0.1; fill:none" points="1564.6,1486.45 1564.6,47.2441 "/>
<polyline clip-path="url(#clip302)" style="stroke:#000000; stroke-linecap:round; stroke-linejoin:round; stroke-width:2; stroke-opacity:0.1; fill:none" points="1868.26,1486.45 1868.26,47.2441 "/>
<polyline clip-path="url(#clip302)" style="stroke:#000000; stroke-linecap:round; stroke-linejoin:round; stroke-width:2; stroke-opacity:0.1; fill:none" points="2171.92,1486.45 2171.92,47.2441 "/>
<polyline clip-path="url(#clip302)" style="stroke:#000000; stroke-linecap:round; stroke-linejoin:round; stroke-width:2; stroke-opacity:0.1; fill:none" points="169.121,1486.45 2352.76,1486.45 "/>
<polyline clip-path="url(#clip302)" style="stroke:#000000; stroke-linecap:round; stroke-linejoin:round; stroke-width:2; stroke-opacity:0.1; fill:none" points="169.121,1113.6 2352.76,1113.6 "/>
<polyline clip-path="url(#clip302)" style="stroke:#000000; stroke-linecap:round; stroke-linejoin:round; stroke-width:2; stroke-opacity:0.1; fill:none" points="169.121,740.746 2352.76,740.746 "/>
<polyline clip-path="url(#clip302)" style="stroke:#000000; stroke-linecap:round; stroke-linejoin:round; stroke-width:2; stroke-opacity:0.1; fill:none" points="169.121,367.896 2352.76,367.896 "/>
<polyline clip-path="url(#clip300)" style="stroke:#000000; stroke-linecap:round; stroke-linejoin:round; stroke-width:4; stroke-opacity:1; fill:none" points="169.121,1486.45 2352.76,1486.45 "/>
<polyline clip-path="url(#clip300)" style="stroke:#000000; stroke-linecap:round; stroke-linejoin:round; stroke-width:4; stroke-opacity:1; fill:none" points="349.957,1486.45 349.957,1467.55 "/>
<polyline clip-path="url(#clip300)" style="stroke:#000000; stroke-linecap:round; stroke-linejoin:round; stroke-width:4; stroke-opacity:1; fill:none" points="653.618,1486.45 653.618,1467.55 "/>
<polyline clip-path="url(#clip300)" style="stroke:#000000; stroke-linecap:round; stroke-linejoin:round; stroke-width:4; stroke-opacity:1; fill:none" points="957.278,1486.45 957.278,1467.55 "/>
<polyline clip-path="url(#clip300)" style="stroke:#000000; stroke-linecap:round; stroke-linejoin:round; stroke-width:4; stroke-opacity:1; fill:none" points="1260.94,1486.45 1260.94,1467.55 "/>
<polyline clip-path="url(#clip300)" style="stroke:#000000; stroke-linecap:round; stroke-linejoin:round; stroke-width:4; stroke-opacity:1; fill:none" points="1564.6,1486.45 1564.6,1467.55 "/>
<polyline clip-path="url(#clip300)" style="stroke:#000000; stroke-linecap:round; stroke-linejoin:round; stroke-width:4; stroke-opacity:1; fill:none" points="1868.26,1486.45 1868.26,1467.55 "/>
<polyline clip-path="url(#clip300)" style="stroke:#000000; stroke-linecap:round; stroke-linejoin:round; stroke-width:4; stroke-opacity:1; fill:none" points="2171.92,1486.45 2171.92,1467.55 "/>
<path clip-path="url(#clip300)" d="M319.599 1532.02 L349.274 1532.02 L349.274 1535.95 L319.599 1535.95 L319.599 1532.02 Z" fill="#000000" fill-rule="nonzero" fill-opacity="1" /><path clip-path="url(#clip300)" d="M359.413 1514.29 L377.77 1514.29 L377.77 1518.22 L363.696 1518.22 L363.696 1526.7 Q364.714 1526.35 365.733 1526.19 Q366.751 1526 367.77 1526 Q373.557 1526 376.936 1529.17 Q380.316 1532.34 380.316 1537.76 Q380.316 1543.34 376.844 1546.44 Q373.371 1549.52 367.052 1549.52 Q364.876 1549.52 362.608 1549.15 Q360.362 1548.78 357.955 1548.04 L357.955 1543.34 Q360.038 1544.47 362.26 1545.03 Q364.483 1545.58 366.959 1545.58 Q370.964 1545.58 373.302 1543.48 Q375.64 1541.37 375.64 1537.76 Q375.64 1534.15 373.302 1532.04 Q370.964 1529.94 366.959 1529.94 Q365.084 1529.94 363.209 1530.35 Q361.358 1530.77 359.413 1531.65 L359.413 1514.29 Z" fill="#000000" fill-rule="nonzero" fill-opacity="1" /><path clip-path="url(#clip300)" d="M653.618 1517.37 Q650.007 1517.37 648.178 1520.93 Q646.372 1524.47 646.372 1531.6 Q646.372 1538.71 648.178 1542.27 Q650.007 1545.82 653.618 1545.82 Q657.252 1545.82 659.057 1542.27 Q660.886 1538.71 660.886 1531.6 Q660.886 1524.47 659.057 1520.93 Q657.252 1517.37 653.618 1517.37 M653.618 1513.66 Q659.428 1513.66 662.483 1518.27 Q665.562 1522.85 665.562 1531.6 Q665.562 1540.33 662.483 1544.94 Q659.428 1549.52 653.618 1549.52 Q647.808 1549.52 644.729 1544.94 Q641.673 1540.33 641.673 1531.6 Q641.673 1522.85 644.729 1518.27 Q647.808 1513.66 653.618 1513.66 Z" fill="#000000" fill-rule="nonzero" fill-opacity="1" /><path clip-path="url(#clip300)" d="M947.556 1514.29 L965.912 1514.29 L965.912 1518.22 L951.838 1518.22 L951.838 1526.7 Q952.857 1526.35 953.875 1526.19 Q954.894 1526 955.912 1526 Q961.699 1526 965.079 1529.17 Q968.459 1532.34 968.459 1537.76 Q968.459 1543.34 964.986 1546.44 Q961.514 1549.52 955.195 1549.52 Q953.019 1549.52 950.75 1549.15 Q948.505 1548.78 946.098 1548.04 L946.098 1543.34 Q948.181 1544.47 950.403 1545.03 Q952.625 1545.58 955.102 1545.58 Q959.107 1545.58 961.445 1543.48 Q963.783 1541.37 963.783 1537.76 Q963.783 1534.15 961.445 1532.04 Q959.107 1529.94 955.102 1529.94 Q953.227 1529.94 951.352 1530.35 Q949.5 1530.77 947.556 1531.65 L947.556 1514.29 Z" fill="#000000" fill-rule="nonzero" fill-opacity="1" /><path clip-path="url(#clip300)" d="M1235.63 1544.91 L1243.27 1544.91 L1243.27 1518.55 L1234.95 1520.21 L1234.95 1515.95 L1243.22 1514.29 L1247.89 1514.29 L1247.89 1544.91 L1255.53 1544.91 L1255.53 1548.85 L1235.63 1548.85 L1235.63 1544.91 Z" fill="#000000" fill-rule="nonzero" fill-opacity="1" /><path clip-path="url(#clip300)" d="M1274.98 1517.37 Q1271.37 1517.37 1269.54 1520.93 Q1267.73 1524.47 1267.73 1531.6 Q1267.73 1538.71 1269.54 1542.27 Q1271.37 1545.82 1274.98 1545.82 Q1278.61 1545.82 1280.42 1542.27 Q1282.25 1538.71 1282.25 1531.6 Q1282.25 1524.47 1280.42 1520.93 Q1278.61 1517.37 1274.98 1517.37 M1274.98 1513.66 Q1280.79 1513.66 1283.84 1518.27 Q1286.92 1522.85 1286.92 1531.6 Q1286.92 1540.33 1283.84 1544.94 Q1280.79 1549.52 1274.98 1549.52 Q1269.17 1549.52 1266.09 1544.94 Q1263.03 1540.33 1263.03 1531.6 Q1263.03 1522.85 1266.09 1518.27 Q1269.17 1513.66 1274.98 1513.66 Z" fill="#000000" fill-rule="nonzero" fill-opacity="1" /><path clip-path="url(#clip300)" d="M1539.78 1544.91 L1547.42 1544.91 L1547.42 1518.55 L1539.11 1520.21 L1539.11 1515.95 L1547.38 1514.29 L1552.05 1514.29 L1552.05 1544.91 L1559.69 1544.91 L1559.69 1548.85 L1539.78 1548.85 L1539.78 1544.91 Z" fill="#000000" fill-rule="nonzero" fill-opacity="1" /><path clip-path="url(#clip300)" d="M1569.18 1514.29 L1587.54 1514.29 L1587.54 1518.22 L1573.46 1518.22 L1573.46 1526.7 Q1574.48 1526.35 1575.5 1526.19 Q1576.52 1526 1577.54 1526 Q1583.33 1526 1586.71 1529.17 Q1590.09 1532.34 1590.09 1537.76 Q1590.09 1543.34 1586.61 1546.44 Q1583.14 1549.52 1576.82 1549.52 Q1574.65 1549.52 1572.38 1549.15 Q1570.13 1548.78 1567.72 1548.04 L1567.72 1543.34 Q1569.81 1544.47 1572.03 1545.03 Q1574.25 1545.58 1576.73 1545.58 Q1580.73 1545.58 1583.07 1543.48 Q1585.41 1541.37 1585.41 1537.76 Q1585.41 1534.15 1583.07 1532.04 Q1580.73 1529.94 1576.73 1529.94 Q1574.85 1529.94 1572.98 1530.35 Q1571.13 1530.77 1569.18 1531.65 L1569.18 1514.29 Z" fill="#000000" fill-rule="nonzero" fill-opacity="1" /><path clip-path="url(#clip300)" d="M1847.03 1544.91 L1863.35 1544.91 L1863.35 1548.85 L1841.41 1548.85 L1841.41 1544.91 Q1844.07 1542.16 1848.65 1537.53 Q1853.26 1532.88 1854.44 1531.53 Q1856.69 1529.01 1857.57 1527.27 Q1858.47 1525.51 1858.47 1523.82 Q1858.47 1521.07 1856.52 1519.33 Q1854.6 1517.6 1851.5 1517.6 Q1849.3 1517.6 1846.85 1518.36 Q1844.42 1519.13 1841.64 1520.68 L1841.64 1515.95 Q1844.46 1514.82 1846.92 1514.24 Q1849.37 1513.66 1851.41 1513.66 Q1856.78 1513.66 1859.97 1516.35 Q1863.17 1519.03 1863.17 1523.52 Q1863.17 1525.65 1862.36 1527.57 Q1861.57 1529.47 1859.46 1532.07 Q1858.88 1532.74 1855.78 1535.95 Q1852.68 1539.15 1847.03 1544.91 Z" fill="#000000" fill-rule="nonzero" fill-opacity="1" /><path clip-path="url(#clip300)" d="M1883.17 1517.37 Q1879.56 1517.37 1877.73 1520.93 Q1875.92 1524.47 1875.92 1531.6 Q1875.92 1538.71 1877.73 1542.27 Q1879.56 1545.82 1883.17 1545.82 Q1886.8 1545.82 1888.61 1542.27 Q1890.44 1538.71 1890.44 1531.6 Q1890.44 1524.47 1888.61 1520.93 Q1886.8 1517.37 1883.17 1517.37 M1883.17 1513.66 Q1888.98 1513.66 1892.03 1518.27 Q1895.11 1522.85 1895.11 1531.6 Q1895.11 1540.33 1892.03 1544.94 Q1888.98 1549.52 1883.17 1549.52 Q1877.36 1549.52 1874.28 1544.94 Q1871.22 1540.33 1871.22 1531.6 Q1871.22 1522.85 1874.28 1518.27 Q1877.36 1513.66 1883.17 1513.66 Z" fill="#000000" fill-rule="nonzero" fill-opacity="1" /><path clip-path="url(#clip300)" d="M2151.19 1544.91 L2167.51 1544.91 L2167.51 1548.85 L2145.57 1548.85 L2145.57 1544.91 Q2148.23 1542.16 2152.81 1537.53 Q2157.42 1532.88 2158.6 1531.53 Q2160.84 1529.01 2161.72 1527.27 Q2162.63 1525.51 2162.63 1523.82 Q2162.63 1521.07 2160.68 1519.33 Q2158.76 1517.6 2155.66 1517.6 Q2153.46 1517.6 2151.01 1518.36 Q2148.58 1519.13 2145.8 1520.68 L2145.8 1515.95 Q2148.62 1514.82 2151.08 1514.24 Q2153.53 1513.66 2155.57 1513.66 Q2160.94 1513.66 2164.13 1516.35 Q2167.33 1519.03 2167.33 1523.52 Q2167.33 1525.65 2166.51 1527.57 Q2165.73 1529.47 2163.62 1532.07 Q2163.04 1532.74 2159.94 1535.95 Q2156.84 1539.15 2151.19 1544.91 Z" fill="#000000" fill-rule="nonzero" fill-opacity="1" /><path clip-path="url(#clip300)" d="M2177.37 1514.29 L2195.73 1514.29 L2195.73 1518.22 L2181.65 1518.22 L2181.65 1526.7 Q2182.67 1526.35 2183.69 1526.19 Q2184.71 1526 2185.73 1526 Q2191.51 1526 2194.89 1529.17 Q2198.27 1532.34 2198.27 1537.76 Q2198.27 1543.34 2194.8 1546.44 Q2191.33 1549.52 2185.01 1549.52 Q2182.83 1549.52 2180.57 1549.15 Q2178.32 1548.78 2175.91 1548.04 L2175.91 1543.34 Q2178 1544.47 2180.22 1545.03 Q2182.44 1545.58 2184.92 1545.58 Q2188.92 1545.58 2191.26 1543.48 Q2193.6 1541.37 2193.6 1537.76 Q2193.6 1534.15 2191.26 1532.04 Q2188.92 1529.94 2184.92 1529.94 Q2183.04 1529.94 2181.17 1530.35 Q2179.32 1530.77 2177.37 1531.65 L2177.37 1514.29 Z" fill="#000000" fill-rule="nonzero" fill-opacity="1" /><polyline clip-path="url(#clip300)" style="stroke:#000000; stroke-linecap:round; stroke-linejoin:round; stroke-width:4; stroke-opacity:1; fill:none" points="169.121,1486.45 169.121,47.2441 "/>
<polyline clip-path="url(#clip300)" style="stroke:#000000; stroke-linecap:round; stroke-linejoin:round; stroke-width:4; stroke-opacity:1; fill:none" points="169.121,1486.45 188.019,1486.45 "/>
<polyline clip-path="url(#clip300)" style="stroke:#000000; stroke-linecap:round; stroke-linejoin:round; stroke-width:4; stroke-opacity:1; fill:none" points="169.121,1113.6 188.019,1113.6 "/>
<polyline clip-path="url(#clip300)" style="stroke:#000000; stroke-linecap:round; stroke-linejoin:round; stroke-width:4; stroke-opacity:1; fill:none" points="169.121,740.746 188.019,740.746 "/>
<polyline clip-path="url(#clip300)" style="stroke:#000000; stroke-linecap:round; stroke-linejoin:round; stroke-width:4; stroke-opacity:1; fill:none" points="169.121,367.896 188.019,367.896 "/>
<path clip-path="url(#clip300)" d="M121.177 1472.25 Q117.566 1472.25 115.737 1475.81 Q113.932 1479.35 113.932 1486.48 Q113.932 1493.59 115.737 1497.15 Q117.566 1500.7 121.177 1500.7 Q124.811 1500.7 126.617 1497.15 Q128.445 1493.59 128.445 1486.48 Q128.445 1479.35 126.617 1475.81 Q124.811 1472.25 121.177 1472.25 M121.177 1468.54 Q126.987 1468.54 130.043 1473.15 Q133.121 1477.73 133.121 1486.48 Q133.121 1495.21 130.043 1499.82 Q126.987 1504.4 121.177 1504.4 Q115.367 1504.4 112.288 1499.82 Q109.233 1495.21 109.233 1486.48 Q109.233 1477.73 112.288 1473.15 Q115.367 1468.54 121.177 1468.54 Z" fill="#000000" fill-rule="nonzero" fill-opacity="1" /><path clip-path="url(#clip300)" d="M81.0614 1096.32 L99.4178 1096.32 L99.4178 1100.25 L85.3438 1100.25 L85.3438 1108.72 Q86.3623 1108.38 87.3808 1108.22 Q88.3993 1108.03 89.4178 1108.03 Q95.2049 1108.03 98.5845 1111.2 Q101.964 1114.37 101.964 1119.79 Q101.964 1125.37 98.4919 1128.47 Q95.0197 1131.55 88.7003 1131.55 Q86.5243 1131.55 84.2558 1131.18 Q82.0105 1130.81 79.6031 1130.07 L79.6031 1125.37 Q81.6864 1126.5 83.9086 1127.06 Q86.1308 1127.61 88.6077 1127.61 Q92.6123 1127.61 94.9502 1125.51 Q97.2882 1123.4 97.2882 1119.79 Q97.2882 1116.18 94.9502 1114.07 Q92.6123 1111.97 88.6077 1111.97 Q86.7327 1111.97 84.8577 1112.38 Q83.0058 1112.8 81.0614 1113.68 L81.0614 1096.32 Z" fill="#000000" fill-rule="nonzero" fill-opacity="1" /><path clip-path="url(#clip300)" d="M121.177 1099.4 Q117.566 1099.4 115.737 1102.96 Q113.932 1106.5 113.932 1113.63 Q113.932 1120.74 115.737 1124.3 Q117.566 1127.84 121.177 1127.84 Q124.811 1127.84 126.617 1124.3 Q128.445 1120.74 128.445 1113.63 Q128.445 1106.5 126.617 1102.96 Q124.811 1099.4 121.177 1099.4 M121.177 1095.69 Q126.987 1095.69 130.043 1100.3 Q133.121 1104.88 133.121 1113.63 Q133.121 1122.36 130.043 1126.97 Q126.987 1131.55 121.177 1131.55 Q115.367 1131.55 112.288 1126.97 Q109.233 1122.36 109.233 1113.63 Q109.233 1104.88 112.288 1100.3 Q115.367 1095.69 121.177 1095.69 Z" fill="#000000" fill-rule="nonzero" fill-opacity="1" /><path clip-path="url(#clip300)" d="M51.6634 754.091 L59.3023 754.091 L59.3023 727.726 L50.9921 729.392 L50.9921 725.133 L59.256 723.466 L63.9319 723.466 L63.9319 754.091 L71.5707 754.091 L71.5707 758.026 L51.6634 758.026 L51.6634 754.091 Z" fill="#000000" fill-rule="nonzero" fill-opacity="1" /><path clip-path="url(#clip300)" d="M91.0151 726.545 Q87.404 726.545 85.5753 730.11 Q83.7697 733.652 83.7697 740.781 Q83.7697 747.888 85.5753 751.452 Q87.404 754.994 91.0151 754.994 Q94.6493 754.994 96.4548 751.452 Q98.2835 747.888 98.2835 740.781 Q98.2835 733.652 96.4548 730.11 Q94.6493 726.545 91.0151 726.545 M91.0151 722.841 Q96.8252 722.841 99.8808 727.448 Q102.959 732.031 102.959 740.781 Q102.959 749.508 99.8808 754.114 Q96.8252 758.698 91.0151 758.698 Q85.2049 758.698 82.1262 754.114 Q79.0707 749.508 79.0707 740.781 Q79.0707 732.031 82.1262 727.448 Q85.2049 722.841 91.0151 722.841 Z" fill="#000000" fill-rule="nonzero" fill-opacity="1" /><path clip-path="url(#clip300)" d="M121.177 726.545 Q117.566 726.545 115.737 730.11 Q113.932 733.652 113.932 740.781 Q113.932 747.888 115.737 751.452 Q117.566 754.994 121.177 754.994 Q124.811 754.994 126.617 751.452 Q128.445 747.888 128.445 740.781 Q128.445 733.652 126.617 730.11 Q124.811 726.545 121.177 726.545 M121.177 722.841 Q126.987 722.841 130.043 727.448 Q133.121 732.031 133.121 740.781 Q133.121 749.508 130.043 754.114 Q126.987 758.698 121.177 758.698 Q115.367 758.698 112.288 754.114 Q109.233 749.508 109.233 740.781 Q109.233 732.031 112.288 727.448 Q115.367 722.841 121.177 722.841 Z" fill="#000000" fill-rule="nonzero" fill-opacity="1" /><path clip-path="url(#clip300)" d="M51.6634 381.241 L59.3023 381.241 L59.3023 354.875 L50.9921 356.542 L50.9921 352.282 L59.256 350.616 L63.9319 350.616 L63.9319 381.241 L71.5707 381.241 L71.5707 385.176 L51.6634 385.176 L51.6634 381.241 Z" fill="#000000" fill-rule="nonzero" fill-opacity="1" /><path clip-path="url(#clip300)" d="M81.0614 350.616 L99.4178 350.616 L99.4178 354.551 L85.3438 354.551 L85.3438 363.023 Q86.3623 362.676 87.3808 362.514 Q88.3993 362.329 89.4178 362.329 Q95.2049 362.329 98.5845 365.5 Q101.964 368.671 101.964 374.088 Q101.964 379.666 98.4919 382.768 Q95.0197 385.847 88.7003 385.847 Q86.5243 385.847 84.2558 385.477 Q82.0105 385.106 79.6031 384.366 L79.6031 379.666 Q81.6864 380.801 83.9086 381.356 Q86.1308 381.912 88.6077 381.912 Q92.6123 381.912 94.9502 379.805 Q97.2882 377.699 97.2882 374.088 Q97.2882 370.477 94.9502 368.37 Q92.6123 366.264 88.6077 366.264 Q86.7327 366.264 84.8577 366.68 Q83.0058 367.097 81.0614 367.977 L81.0614 350.616 Z" fill="#000000" fill-rule="nonzero" fill-opacity="1" /><path clip-path="url(#clip300)" d="M121.177 353.694 Q117.566 353.694 115.737 357.259 Q113.932 360.801 113.932 367.93 Q113.932 375.037 115.737 378.602 Q117.566 382.143 121.177 382.143 Q124.811 382.143 126.617 378.602 Q128.445 375.037 128.445 367.93 Q128.445 360.801 126.617 357.259 Q124.811 353.694 121.177 353.694 M121.177 349.991 Q126.987 349.991 130.043 354.597 Q133.121 359.18 133.121 367.93 Q133.121 376.657 130.043 381.264 Q126.987 385.847 121.177 385.847 Q115.367 385.847 112.288 381.264 Q109.233 376.657 109.233 367.93 Q109.233 359.18 112.288 354.597 Q115.367 349.991 121.177 349.991 Z" fill="#000000" fill-rule="nonzero" fill-opacity="1" /><path clip-path="url(#clip302)" d="M289.225 1478.99 L289.225 1486.45 L319.591 1486.45 L319.591 1478.99 L289.225 1478.99 L289.225 1478.99  Z" fill="#009af9" fill-rule="evenodd" fill-opacity="1"/>
<polyline clip-path="url(#clip302)" style="stroke:#000000; stroke-linecap:round; stroke-linejoin:round; stroke-width:4; stroke-opacity:1; fill:none" points="289.225,1478.99 289.225,1486.45 319.591,1486.45 319.591,1478.99 289.225,1478.99 "/>
<path clip-path="url(#clip302)" d="M319.591 1486.45 L319.591 1486.45 L349.957 1486.45 L349.957 1486.45 L319.591 1486.45 L319.591 1486.45  Z" fill="#009af9" fill-rule="evenodd" fill-opacity="1"/>
<polyline clip-path="url(#clip302)" style="stroke:#000000; stroke-linecap:round; stroke-linejoin:round; stroke-width:4; stroke-opacity:1; fill:none" points="319.591,1486.45 319.591,1486.45 349.957,1486.45 319.591,1486.45 "/>
<path clip-path="url(#clip302)" d="M349.957 1464.08 L349.957 1486.45 L380.323 1486.45 L380.323 1464.08 L349.957 1464.08 L349.957 1464.08  Z" fill="#009af9" fill-rule="evenodd" fill-opacity="1"/>
<polyline clip-path="url(#clip302)" style="stroke:#000000; stroke-linecap:round; stroke-linejoin:round; stroke-width:4; stroke-opacity:1; fill:none" points="349.957,1464.08 349.957,1486.45 380.323,1486.45 380.323,1464.08 349.957,1464.08 "/>
<path clip-path="url(#clip302)" d="M380.323 1434.25 L380.323 1486.45 L410.689 1486.45 L410.689 1434.25 L380.323 1434.25 L380.323 1434.25  Z" fill="#009af9" fill-rule="evenodd" fill-opacity="1"/>
<polyline clip-path="url(#clip302)" style="stroke:#000000; stroke-linecap:round; stroke-linejoin:round; stroke-width:4; stroke-opacity:1; fill:none" points="380.323,1434.25 380.323,1486.45 410.689,1486.45 410.689,1434.25 380.323,1434.25 "/>
<path clip-path="url(#clip302)" d="M410.689 1337.31 L410.689 1486.45 L441.055 1486.45 L441.055 1337.31 L410.689 1337.31 L410.689 1337.31  Z" fill="#009af9" fill-rule="evenodd" fill-opacity="1"/>
<polyline clip-path="url(#clip302)" style="stroke:#000000; stroke-linecap:round; stroke-linejoin:round; stroke-width:4; stroke-opacity:1; fill:none" points="410.689,1337.31 410.689,1486.45 441.055,1486.45 441.055,1337.31 410.689,1337.31 "/>
<path clip-path="url(#clip302)" d="M441.055 1173.25 L441.055 1486.45 L471.421 1486.45 L471.421 1173.25 L441.055 1173.25 L441.055 1173.25  Z" fill="#009af9" fill-rule="evenodd" fill-opacity="1"/>
<polyline clip-path="url(#clip302)" style="stroke:#000000; stroke-linecap:round; stroke-linejoin:round; stroke-width:4; stroke-opacity:1; fill:none" points="441.055,1173.25 441.055,1486.45 471.421,1486.45 471.421,1173.25 441.055,1173.25 "/>
<path clip-path="url(#clip302)" d="M471.421 837.688 L471.421 1486.45 L501.787 1486.45 L501.787 837.688 L471.421 837.688 L471.421 837.688  Z" fill="#009af9" fill-rule="evenodd" fill-opacity="1"/>
<polyline clip-path="url(#clip302)" style="stroke:#000000; stroke-linecap:round; stroke-linejoin:round; stroke-width:4; stroke-opacity:1; fill:none" points="471.421,837.688 471.421,1486.45 501.787,1486.45 501.787,837.688 471.421,837.688 "/>
<path clip-path="url(#clip302)" d="M501.787 435.009 L501.787 1486.45 L532.153 1486.45 L532.153 435.009 L501.787 435.009 L501.787 435.009  Z" fill="#009af9" fill-rule="evenodd" fill-opacity="1"/>
<polyline clip-path="url(#clip302)" style="stroke:#000000; stroke-linecap:round; stroke-linejoin:round; stroke-width:4; stroke-opacity:1; fill:none" points="501.787,435.009 501.787,1486.45 532.153,1486.45 532.153,435.009 501.787,435.009 "/>
<path clip-path="url(#clip302)" d="M532.153 47.2441 L532.153 1486.45 L562.52 1486.45 L562.52 47.2441 L532.153 47.2441 L532.153 47.2441  Z" fill="#009af9" fill-rule="evenodd" fill-opacity="1"/>
<polyline clip-path="url(#clip302)" style="stroke:#000000; stroke-linecap:round; stroke-linejoin:round; stroke-width:4; stroke-opacity:1; fill:none" points="532.153,47.2441 532.153,1486.45 562.52,1486.45 562.52,47.2441 532.153,47.2441 "/>
<path clip-path="url(#clip302)" d="M562.52 84.5292 L562.52 1486.45 L592.886 1486.45 L592.886 84.5292 L562.52 84.5292 L562.52 84.5292  Z" fill="#009af9" fill-rule="evenodd" fill-opacity="1"/>
<polyline clip-path="url(#clip302)" style="stroke:#000000; stroke-linecap:round; stroke-linejoin:round; stroke-width:4; stroke-opacity:1; fill:none" points="562.52,84.5292 562.52,1486.45 592.886,1486.45 592.886,84.5292 562.52,84.5292 "/>
<path clip-path="url(#clip302)" d="M592.886 196.384 L592.886 1486.45 L623.252 1486.45 L623.252 196.384 L592.886 196.384 L592.886 196.384  Z" fill="#009af9" fill-rule="evenodd" fill-opacity="1"/>
<polyline clip-path="url(#clip302)" style="stroke:#000000; stroke-linecap:round; stroke-linejoin:round; stroke-width:4; stroke-opacity:1; fill:none" points="592.886,196.384 592.886,1486.45 623.252,1486.45 623.252,196.384 592.886,196.384 "/>
<path clip-path="url(#clip302)" d="M623.252 942.086 L623.252 1486.45 L653.618 1486.45 L653.618 942.086 L623.252 942.086 L623.252 942.086  Z" fill="#009af9" fill-rule="evenodd" fill-opacity="1"/>
<polyline clip-path="url(#clip302)" style="stroke:#000000; stroke-linecap:round; stroke-linejoin:round; stroke-width:4; stroke-opacity:1; fill:none" points="623.252,942.086 623.252,1486.45 653.618,1486.45 653.618,942.086 623.252,942.086 "/>
<path clip-path="url(#clip302)" d="M653.618 1039.03 L653.618 1486.45 L683.984 1486.45 L683.984 1039.03 L653.618 1039.03 L653.618 1039.03  Z" fill="#009af9" fill-rule="evenodd" fill-opacity="1"/>
<polyline clip-path="url(#clip302)" style="stroke:#000000; stroke-linecap:round; stroke-linejoin:round; stroke-width:4; stroke-opacity:1; fill:none" points="653.618,1039.03 653.618,1486.45 683.984,1486.45 683.984,1039.03 653.618,1039.03 "/>
<path clip-path="url(#clip302)" d="M683.984 151.642 L683.984 1486.45 L714.35 1486.45 L714.35 151.642 L683.984 151.642 L683.984 151.642  Z" fill="#009af9" fill-rule="evenodd" fill-opacity="1"/>
<polyline clip-path="url(#clip302)" style="stroke:#000000; stroke-linecap:round; stroke-linejoin:round; stroke-width:4; stroke-opacity:1; fill:none" points="683.984,151.642 683.984,1486.45 714.35,1486.45 714.35,151.642 683.984,151.642 "/>
<path clip-path="url(#clip302)" d="M714.35 114.357 L714.35 1486.45 L744.716 1486.45 L744.716 114.357 L714.35 114.357 L714.35 114.357  Z" fill="#009af9" fill-rule="evenodd" fill-opacity="1"/>
<polyline clip-path="url(#clip302)" style="stroke:#000000; stroke-linecap:round; stroke-linejoin:round; stroke-width:4; stroke-opacity:1; fill:none" points="714.35,114.357 714.35,1486.45 744.716,1486.45 744.716,114.357 714.35,114.357 "/>
<path clip-path="url(#clip302)" d="M744.716 159.099 L744.716 1486.45 L775.082 1486.45 L775.082 159.099 L744.716 159.099 L744.716 159.099  Z" fill="#009af9" fill-rule="evenodd" fill-opacity="1"/>
<polyline clip-path="url(#clip302)" style="stroke:#000000; stroke-linecap:round; stroke-linejoin:round; stroke-width:4; stroke-opacity:1; fill:none" points="744.716,159.099 744.716,1486.45 775.082,1486.45 775.082,159.099 744.716,159.099 "/>
<path clip-path="url(#clip302)" d="M775.082 494.665 L775.082 1486.45 L805.448 1486.45 L805.448 494.665 L775.082 494.665 L775.082 494.665  Z" fill="#009af9" fill-rule="evenodd" fill-opacity="1"/>
<polyline clip-path="url(#clip302)" style="stroke:#000000; stroke-linecap:round; stroke-linejoin:round; stroke-width:4; stroke-opacity:1; fill:none" points="775.082,494.665 775.082,1486.45 805.448,1486.45 805.448,494.665 775.082,494.665 "/>
<path clip-path="url(#clip302)" d="M805.448 830.231 L805.448 1486.45 L835.814 1486.45 L835.814 830.231 L805.448 830.231 L805.448 830.231  Z" fill="#009af9" fill-rule="evenodd" fill-opacity="1"/>
<polyline clip-path="url(#clip302)" style="stroke:#000000; stroke-linecap:round; stroke-linejoin:round; stroke-width:4; stroke-opacity:1; fill:none" points="805.448,830.231 805.448,1486.45 835.814,1486.45 835.814,830.231 805.448,830.231 "/>
<path clip-path="url(#clip302)" d="M835.814 1247.82 L835.814 1486.45 L866.18 1486.45 L866.18 1247.82 L835.814 1247.82 L835.814 1247.82  Z" fill="#009af9" fill-rule="evenodd" fill-opacity="1"/>
<polyline clip-path="url(#clip302)" style="stroke:#000000; stroke-linecap:round; stroke-linejoin:round; stroke-width:4; stroke-opacity:1; fill:none" points="835.814,1247.82 835.814,1486.45 866.18,1486.45 866.18,1247.82 835.814,1247.82 "/>
<path clip-path="url(#clip302)" d="M866.18 1419.33 L866.18 1486.45 L896.546 1486.45 L896.546 1419.33 L866.18 1419.33 L866.18 1419.33  Z" fill="#009af9" fill-rule="evenodd" fill-opacity="1"/>
<polyline clip-path="url(#clip302)" style="stroke:#000000; stroke-linecap:round; stroke-linejoin:round; stroke-width:4; stroke-opacity:1; fill:none" points="866.18,1419.33 866.18,1486.45 896.546,1486.45 896.546,1419.33 866.18,1419.33 "/>
<path clip-path="url(#clip302)" d="M896.546 1426.79 L896.546 1486.45 L926.912 1486.45 L926.912 1426.79 L896.546 1426.79 L896.546 1426.79  Z" fill="#009af9" fill-rule="evenodd" fill-opacity="1"/>
<polyline clip-path="url(#clip302)" style="stroke:#000000; stroke-linecap:round; stroke-linejoin:round; stroke-width:4; stroke-opacity:1; fill:none" points="896.546,1426.79 896.546,1486.45 926.912,1486.45 926.912,1426.79 896.546,1426.79 "/>
<path clip-path="url(#clip302)" d="M926.912 1486.45 L926.912 1486.45 L957.278 1486.45 L957.278 1486.45 L926.912 1486.45 L926.912 1486.45  Z" fill="#009af9" fill-rule="evenodd" fill-opacity="1"/>
<polyline clip-path="url(#clip302)" style="stroke:#000000; stroke-linecap:round; stroke-linejoin:round; stroke-width:4; stroke-opacity:1; fill:none" points="926.912,1486.45 926.912,1486.45 957.278,1486.45 926.912,1486.45 "/>
<path clip-path="url(#clip302)" d="M957.278 1478.99 L957.278 1486.45 L987.644 1486.45 L987.644 1478.99 L957.278 1478.99 L957.278 1478.99  Z" fill="#009af9" fill-rule="evenodd" fill-opacity="1"/>
<polyline clip-path="url(#clip302)" style="stroke:#000000; stroke-linecap:round; stroke-linejoin:round; stroke-width:4; stroke-opacity:1; fill:none" points="957.278,1478.99 957.278,1486.45 987.644,1486.45 987.644,1478.99 957.278,1478.99 "/>
<path clip-path="url(#clip302)" d="M987.644 1486.45 L987.644 1486.45 L1018.01 1486.45 L1018.01 1486.45 L987.644 1486.45 L987.644 1486.45  Z" fill="#009af9" fill-rule="evenodd" fill-opacity="1"/>
<polyline clip-path="url(#clip302)" style="stroke:#000000; stroke-linecap:round; stroke-linejoin:round; stroke-width:4; stroke-opacity:1; fill:none" points="987.644,1486.45 987.644,1486.45 1018.01,1486.45 987.644,1486.45 "/>
<path clip-path="url(#clip302)" d="M1018.01 1486.45 L1018.01 1486.45 L1048.38 1486.45 L1048.38 1486.45 L1018.01 1486.45 L1018.01 1486.45  Z" fill="#009af9" fill-rule="evenodd" fill-opacity="1"/>
<polyline clip-path="url(#clip302)" style="stroke:#000000; stroke-linecap:round; stroke-linejoin:round; stroke-width:4; stroke-opacity:1; fill:none" points="1018.01,1486.45 1018.01,1486.45 1048.38,1486.45 1018.01,1486.45 "/>
<path clip-path="url(#clip302)" d="M1048.38 1486.45 L1048.38 1486.45 L1078.74 1486.45 L1078.74 1486.45 L1048.38 1486.45 L1048.38 1486.45  Z" fill="#009af9" fill-rule="evenodd" fill-opacity="1"/>
<polyline clip-path="url(#clip302)" style="stroke:#000000; stroke-linecap:round; stroke-linejoin:round; stroke-width:4; stroke-opacity:1; fill:none" points="1048.38,1486.45 1048.38,1486.45 1078.74,1486.45 1048.38,1486.45 "/>
<path clip-path="url(#clip302)" d="M1078.74 1486.45 L1078.74 1486.45 L1109.11 1486.45 L1109.11 1486.45 L1078.74 1486.45 L1078.74 1486.45  Z" fill="#009af9" fill-rule="evenodd" fill-opacity="1"/>
<polyline clip-path="url(#clip302)" style="stroke:#000000; stroke-linecap:round; stroke-linejoin:round; stroke-width:4; stroke-opacity:1; fill:none" points="1078.74,1486.45 1078.74,1486.45 1109.11,1486.45 1078.74,1486.45 "/>
<path clip-path="url(#clip302)" d="M1109.11 1486.45 L1109.11 1486.45 L1139.47 1486.45 L1139.47 1486.45 L1109.11 1486.45 L1109.11 1486.45  Z" fill="#009af9" fill-rule="evenodd" fill-opacity="1"/>
<polyline clip-path="url(#clip302)" style="stroke:#000000; stroke-linecap:round; stroke-linejoin:round; stroke-width:4; stroke-opacity:1; fill:none" points="1109.11,1486.45 1109.11,1486.45 1139.47,1486.45 1109.11,1486.45 "/>
<path clip-path="url(#clip302)" d="M1139.47 1486.45 L1139.47 1486.45 L1169.84 1486.45 L1169.84 1486.45 L1139.47 1486.45 L1139.47 1486.45  Z" fill="#009af9" fill-rule="evenodd" fill-opacity="1"/>
<polyline clip-path="url(#clip302)" style="stroke:#000000; stroke-linecap:round; stroke-linejoin:round; stroke-width:4; stroke-opacity:1; fill:none" points="1139.47,1486.45 1139.47,1486.45 1169.84,1486.45 1139.47,1486.45 "/>
<path clip-path="url(#clip302)" d="M1169.84 1486.45 L1169.84 1486.45 L1200.21 1486.45 L1200.21 1486.45 L1169.84 1486.45 L1169.84 1486.45  Z" fill="#009af9" fill-rule="evenodd" fill-opacity="1"/>
<polyline clip-path="url(#clip302)" style="stroke:#000000; stroke-linecap:round; stroke-linejoin:round; stroke-width:4; stroke-opacity:1; fill:none" points="1169.84,1486.45 1169.84,1486.45 1200.21,1486.45 1169.84,1486.45 "/>
<path clip-path="url(#clip302)" d="M1200.21 1486.45 L1200.21 1486.45 L1230.57 1486.45 L1230.57 1486.45 L1200.21 1486.45 L1200.21 1486.45  Z" fill="#009af9" fill-rule="evenodd" fill-opacity="1"/>
<polyline clip-path="url(#clip302)" style="stroke:#000000; stroke-linecap:round; stroke-linejoin:round; stroke-width:4; stroke-opacity:1; fill:none" points="1200.21,1486.45 1200.21,1486.45 1230.57,1486.45 1200.21,1486.45 "/>
<path clip-path="url(#clip302)" d="M1230.57 1486.45 L1230.57 1486.45 L1260.94 1486.45 L1260.94 1486.45 L1230.57 1486.45 L1230.57 1486.45  Z" fill="#009af9" fill-rule="evenodd" fill-opacity="1"/>
<polyline clip-path="url(#clip302)" style="stroke:#000000; stroke-linecap:round; stroke-linejoin:round; stroke-width:4; stroke-opacity:1; fill:none" points="1230.57,1486.45 1230.57,1486.45 1260.94,1486.45 1230.57,1486.45 "/>
<path clip-path="url(#clip302)" d="M1260.94 1486.45 L1260.94 1486.45 L1291.3 1486.45 L1291.3 1486.45 L1260.94 1486.45 L1260.94 1486.45  Z" fill="#009af9" fill-rule="evenodd" fill-opacity="1"/>
<polyline clip-path="url(#clip302)" style="stroke:#000000; stroke-linecap:round; stroke-linejoin:round; stroke-width:4; stroke-opacity:1; fill:none" points="1260.94,1486.45 1260.94,1486.45 1291.3,1486.45 1260.94,1486.45 "/>
<path clip-path="url(#clip302)" d="M1291.3 1486.45 L1291.3 1486.45 L1321.67 1486.45 L1321.67 1486.45 L1291.3 1486.45 L1291.3 1486.45  Z" fill="#009af9" fill-rule="evenodd" fill-opacity="1"/>
<polyline clip-path="url(#clip302)" style="stroke:#000000; stroke-linecap:round; stroke-linejoin:round; stroke-width:4; stroke-opacity:1; fill:none" points="1291.3,1486.45 1291.3,1486.45 1321.67,1486.45 1291.3,1486.45 "/>
<path clip-path="url(#clip302)" d="M1321.67 1486.45 L1321.67 1486.45 L1352.04 1486.45 L1352.04 1486.45 L1321.67 1486.45 L1321.67 1486.45  Z" fill="#009af9" fill-rule="evenodd" fill-opacity="1"/>
<polyline clip-path="url(#clip302)" style="stroke:#000000; stroke-linecap:round; stroke-linejoin:round; stroke-width:4; stroke-opacity:1; fill:none" points="1321.67,1486.45 1321.67,1486.45 1352.04,1486.45 1321.67,1486.45 "/>
<path clip-path="url(#clip302)" d="M1352.04 1486.45 L1352.04 1486.45 L1382.4 1486.45 L1382.4 1486.45 L1352.04 1486.45 L1352.04 1486.45  Z" fill="#009af9" fill-rule="evenodd" fill-opacity="1"/>
<polyline clip-path="url(#clip302)" style="stroke:#000000; stroke-linecap:round; stroke-linejoin:round; stroke-width:4; stroke-opacity:1; fill:none" points="1352.04,1486.45 1352.04,1486.45 1382.4,1486.45 1352.04,1486.45 "/>
<path clip-path="url(#clip302)" d="M1382.4 1486.45 L1382.4 1486.45 L1412.77 1486.45 L1412.77 1486.45 L1382.4 1486.45 L1382.4 1486.45  Z" fill="#009af9" fill-rule="evenodd" fill-opacity="1"/>
<polyline clip-path="url(#clip302)" style="stroke:#000000; stroke-linecap:round; stroke-linejoin:round; stroke-width:4; stroke-opacity:1; fill:none" points="1382.4,1486.45 1382.4,1486.45 1412.77,1486.45 1382.4,1486.45 "/>
<path clip-path="url(#clip302)" d="M1412.77 1486.45 L1412.77 1486.45 L1443.13 1486.45 L1443.13 1486.45 L1412.77 1486.45 L1412.77 1486.45  Z" fill="#009af9" fill-rule="evenodd" fill-opacity="1"/>
<polyline clip-path="url(#clip302)" style="stroke:#000000; stroke-linecap:round; stroke-linejoin:round; stroke-width:4; stroke-opacity:1; fill:none" points="1412.77,1486.45 1412.77,1486.45 1443.13,1486.45 1412.77,1486.45 "/>
<path clip-path="url(#clip302)" d="M1443.13 1486.45 L1443.13 1486.45 L1473.5 1486.45 L1473.5 1486.45 L1443.13 1486.45 L1443.13 1486.45  Z" fill="#009af9" fill-rule="evenodd" fill-opacity="1"/>
<polyline clip-path="url(#clip302)" style="stroke:#000000; stroke-linecap:round; stroke-linejoin:round; stroke-width:4; stroke-opacity:1; fill:none" points="1443.13,1486.45 1443.13,1486.45 1473.5,1486.45 1443.13,1486.45 "/>
<path clip-path="url(#clip302)" d="M1473.5 1486.45 L1473.5 1486.45 L1503.87 1486.45 L1503.87 1486.45 L1473.5 1486.45 L1473.5 1486.45  Z" fill="#009af9" fill-rule="evenodd" fill-opacity="1"/>
<polyline clip-path="url(#clip302)" style="stroke:#000000; stroke-linecap:round; stroke-linejoin:round; stroke-width:4; stroke-opacity:1; fill:none" points="1473.5,1486.45 1473.5,1486.45 1503.87,1486.45 1473.5,1486.45 "/>
<path clip-path="url(#clip302)" d="M1503.87 1486.45 L1503.87 1486.45 L1534.23 1486.45 L1534.23 1486.45 L1503.87 1486.45 L1503.87 1486.45  Z" fill="#009af9" fill-rule="evenodd" fill-opacity="1"/>
<polyline clip-path="url(#clip302)" style="stroke:#000000; stroke-linecap:round; stroke-linejoin:round; stroke-width:4; stroke-opacity:1; fill:none" points="1503.87,1486.45 1503.87,1486.45 1534.23,1486.45 1503.87,1486.45 "/>
<path clip-path="url(#clip302)" d="M1534.23 1486.45 L1534.23 1486.45 L1564.6 1486.45 L1564.6 1486.45 L1534.23 1486.45 L1534.23 1486.45  Z" fill="#009af9" fill-rule="evenodd" fill-opacity="1"/>
<polyline clip-path="url(#clip302)" style="stroke:#000000; stroke-linecap:round; stroke-linejoin:round; stroke-width:4; stroke-opacity:1; fill:none" points="1534.23,1486.45 1534.23,1486.45 1564.6,1486.45 1534.23,1486.45 "/>
<path clip-path="url(#clip302)" d="M1564.6 1486.45 L1564.6 1486.45 L1594.97 1486.45 L1594.97 1486.45 L1564.6 1486.45 L1564.6 1486.45  Z" fill="#009af9" fill-rule="evenodd" fill-opacity="1"/>
<polyline clip-path="url(#clip302)" style="stroke:#000000; stroke-linecap:round; stroke-linejoin:round; stroke-width:4; stroke-opacity:1; fill:none" points="1564.6,1486.45 1564.6,1486.45 1594.97,1486.45 1564.6,1486.45 "/>
<path clip-path="url(#clip302)" d="M1594.97 1486.45 L1594.97 1486.45 L1625.33 1486.45 L1625.33 1486.45 L1594.97 1486.45 L1594.97 1486.45  Z" fill="#009af9" fill-rule="evenodd" fill-opacity="1"/>
<polyline clip-path="url(#clip302)" style="stroke:#000000; stroke-linecap:round; stroke-linejoin:round; stroke-width:4; stroke-opacity:1; fill:none" points="1594.97,1486.45 1594.97,1486.45 1625.33,1486.45 1594.97,1486.45 "/>
<path clip-path="url(#clip302)" d="M1625.33 1486.45 L1625.33 1486.45 L1655.7 1486.45 L1655.7 1486.45 L1625.33 1486.45 L1625.33 1486.45  Z" fill="#009af9" fill-rule="evenodd" fill-opacity="1"/>
<polyline clip-path="url(#clip302)" style="stroke:#000000; stroke-linecap:round; stroke-linejoin:round; stroke-width:4; stroke-opacity:1; fill:none" points="1625.33,1486.45 1625.33,1486.45 1655.7,1486.45 1625.33,1486.45 "/>
<path clip-path="url(#clip302)" d="M1655.7 1486.45 L1655.7 1486.45 L1686.06 1486.45 L1686.06 1486.45 L1655.7 1486.45 L1655.7 1486.45  Z" fill="#009af9" fill-rule="evenodd" fill-opacity="1"/>
<polyline clip-path="url(#clip302)" style="stroke:#000000; stroke-linecap:round; stroke-linejoin:round; stroke-width:4; stroke-opacity:1; fill:none" points="1655.7,1486.45 1655.7,1486.45 1686.06,1486.45 1655.7,1486.45 "/>
<path clip-path="url(#clip302)" d="M1686.06 1486.45 L1686.06 1486.45 L1716.43 1486.45 L1716.43 1486.45 L1686.06 1486.45 L1686.06 1486.45  Z" fill="#009af9" fill-rule="evenodd" fill-opacity="1"/>
<polyline clip-path="url(#clip302)" style="stroke:#000000; stroke-linecap:round; stroke-linejoin:round; stroke-width:4; stroke-opacity:1; fill:none" points="1686.06,1486.45 1686.06,1486.45 1716.43,1486.45 1686.06,1486.45 "/>
<path clip-path="url(#clip302)" d="M1716.43 1486.45 L1716.43 1486.45 L1746.8 1486.45 L1746.8 1486.45 L1716.43 1486.45 L1716.43 1486.45  Z" fill="#009af9" fill-rule="evenodd" fill-opacity="1"/>
<polyline clip-path="url(#clip302)" style="stroke:#000000; stroke-linecap:round; stroke-linejoin:round; stroke-width:4; stroke-opacity:1; fill:none" points="1716.43,1486.45 1716.43,1486.45 1746.8,1486.45 1716.43,1486.45 "/>
<path clip-path="url(#clip302)" d="M1746.8 1486.45 L1746.8 1486.45 L1777.16 1486.45 L1777.16 1486.45 L1746.8 1486.45 L1746.8 1486.45  Z" fill="#009af9" fill-rule="evenodd" fill-opacity="1"/>
<polyline clip-path="url(#clip302)" style="stroke:#000000; stroke-linecap:round; stroke-linejoin:round; stroke-width:4; stroke-opacity:1; fill:none" points="1746.8,1486.45 1746.8,1486.45 1777.16,1486.45 1746.8,1486.45 "/>
<path clip-path="url(#clip302)" d="M1777.16 1486.45 L1777.16 1486.45 L1807.53 1486.45 L1807.53 1486.45 L1777.16 1486.45 L1777.16 1486.45  Z" fill="#009af9" fill-rule="evenodd" fill-opacity="1"/>
<polyline clip-path="url(#clip302)" style="stroke:#000000; stroke-linecap:round; stroke-linejoin:round; stroke-width:4; stroke-opacity:1; fill:none" points="1777.16,1486.45 1777.16,1486.45 1807.53,1486.45 1777.16,1486.45 "/>
<path clip-path="url(#clip302)" d="M1807.53 1449.16 L1807.53 1486.45 L1837.89 1486.45 L1837.89 1449.16 L1807.53 1449.16 L1807.53 1449.16  Z" fill="#009af9" fill-rule="evenodd" fill-opacity="1"/>
<polyline clip-path="url(#clip302)" style="stroke:#000000; stroke-linecap:round; stroke-linejoin:round; stroke-width:4; stroke-opacity:1; fill:none" points="1807.53,1449.16 1807.53,1486.45 1837.89,1486.45 1837.89,1449.16 1807.53,1449.16 "/>
<path clip-path="url(#clip302)" d="M1837.89 1434.25 L1837.89 1486.45 L1868.26 1486.45 L1868.26 1434.25 L1837.89 1434.25 L1837.89 1434.25  Z" fill="#009af9" fill-rule="evenodd" fill-opacity="1"/>
<polyline clip-path="url(#clip302)" style="stroke:#000000; stroke-linecap:round; stroke-linejoin:round; stroke-width:4; stroke-opacity:1; fill:none" points="1837.89,1434.25 1837.89,1486.45 1868.26,1486.45 1868.26,1434.25 1837.89,1434.25 "/>
<path clip-path="url(#clip302)" d="M1868.26 1374.59 L1868.26 1486.45 L1898.63 1486.45 L1898.63 1374.59 L1868.26 1374.59 L1868.26 1374.59  Z" fill="#009af9" fill-rule="evenodd" fill-opacity="1"/>
<polyline clip-path="url(#clip302)" style="stroke:#000000; stroke-linecap:round; stroke-linejoin:round; stroke-width:4; stroke-opacity:1; fill:none" points="1868.26,1374.59 1868.26,1486.45 1898.63,1486.45 1898.63,1374.59 1868.26,1374.59 "/>
<path clip-path="url(#clip302)" d="M1898.63 1337.31 L1898.63 1486.45 L1928.99 1486.45 L1928.99 1337.31 L1898.63 1337.31 L1898.63 1337.31  Z" fill="#009af9" fill-rule="evenodd" fill-opacity="1"/>
<polyline clip-path="url(#clip302)" style="stroke:#000000; stroke-linecap:round; stroke-linejoin:round; stroke-width:4; stroke-opacity:1; fill:none" points="1898.63,1337.31 1898.63,1486.45 1928.99,1486.45 1928.99,1337.31 1898.63,1337.31 "/>
<path clip-path="url(#clip302)" d="M1928.99 1322.39 L1928.99 1486.45 L1959.36 1486.45 L1959.36 1322.39 L1928.99 1322.39 L1928.99 1322.39  Z" fill="#009af9" fill-rule="evenodd" fill-opacity="1"/>
<polyline clip-path="url(#clip302)" style="stroke:#000000; stroke-linecap:round; stroke-linejoin:round; stroke-width:4; stroke-opacity:1; fill:none" points="1928.99,1322.39 1928.99,1486.45 1959.36,1486.45 1959.36,1322.39 1928.99,1322.39 "/>
<path clip-path="url(#clip302)" d="M1959.36 1240.37 L1959.36 1486.45 L1989.72 1486.45 L1989.72 1240.37 L1959.36 1240.37 L1959.36 1240.37  Z" fill="#009af9" fill-rule="evenodd" fill-opacity="1"/>
<polyline clip-path="url(#clip302)" style="stroke:#000000; stroke-linecap:round; stroke-linejoin:round; stroke-width:4; stroke-opacity:1; fill:none" points="1959.36,1240.37 1959.36,1486.45 1989.72,1486.45 1989.72,1240.37 1959.36,1240.37 "/>
<path clip-path="url(#clip302)" d="M1989.72 1285.11 L1989.72 1486.45 L2020.09 1486.45 L2020.09 1285.11 L1989.72 1285.11 L1989.72 1285.11  Z" fill="#009af9" fill-rule="evenodd" fill-opacity="1"/>
<polyline clip-path="url(#clip302)" style="stroke:#000000; stroke-linecap:round; stroke-linejoin:round; stroke-width:4; stroke-opacity:1; fill:none" points="1989.72,1285.11 1989.72,1486.45 2020.09,1486.45 2020.09,1285.11 1989.72,1285.11 "/>
<path clip-path="url(#clip302)" d="M2020.09 1337.31 L2020.09 1486.45 L2050.46 1486.45 L2050.46 1337.31 L2020.09 1337.31 L2020.09 1337.31  Z" fill="#009af9" fill-rule="evenodd" fill-opacity="1"/>
<polyline clip-path="url(#clip302)" style="stroke:#000000; stroke-linecap:round; stroke-linejoin:round; stroke-width:4; stroke-opacity:1; fill:none" points="2020.09,1337.31 2020.09,1486.45 2050.46,1486.45 2050.46,1337.31 2020.09,1337.31 "/>
<path clip-path="url(#clip302)" d="M2050.46 1389.51 L2050.46 1486.45 L2080.82 1486.45 L2080.82 1389.51 L2050.46 1389.51 L2050.46 1389.51  Z" fill="#009af9" fill-rule="evenodd" fill-opacity="1"/>
<polyline clip-path="url(#clip302)" style="stroke:#000000; stroke-linecap:round; stroke-linejoin:round; stroke-width:4; stroke-opacity:1; fill:none" points="2050.46,1389.51 2050.46,1486.45 2080.82,1486.45 2080.82,1389.51 2050.46,1389.51 "/>
<path clip-path="url(#clip302)" d="M2080.82 1359.68 L2080.82 1486.45 L2111.19 1486.45 L2111.19 1359.68 L2080.82 1359.68 L2080.82 1359.68  Z" fill="#009af9" fill-rule="evenodd" fill-opacity="1"/>
<polyline clip-path="url(#clip302)" style="stroke:#000000; stroke-linecap:round; stroke-linejoin:round; stroke-width:4; stroke-opacity:1; fill:none" points="2080.82,1359.68 2080.82,1486.45 2111.19,1486.45 2111.19,1359.68 2080.82,1359.68 "/>
<path clip-path="url(#clip302)" d="M2111.19 1419.33 L2111.19 1486.45 L2141.55 1486.45 L2141.55 1419.33 L2111.19 1419.33 L2111.19 1419.33  Z" fill="#009af9" fill-rule="evenodd" fill-opacity="1"/>
<polyline clip-path="url(#clip302)" style="stroke:#000000; stroke-linecap:round; stroke-linejoin:round; stroke-width:4; stroke-opacity:1; fill:none" points="2111.19,1419.33 2111.19,1486.45 2141.55,1486.45 2141.55,1419.33 2111.19,1419.33 "/>
<path clip-path="url(#clip302)" d="M2141.55 1449.16 L2141.55 1486.45 L2171.92 1486.45 L2171.92 1449.16 L2141.55 1449.16 L2141.55 1449.16  Z" fill="#009af9" fill-rule="evenodd" fill-opacity="1"/>
<polyline clip-path="url(#clip302)" style="stroke:#000000; stroke-linecap:round; stroke-linejoin:round; stroke-width:4; stroke-opacity:1; fill:none" points="2141.55,1449.16 2141.55,1486.45 2171.92,1486.45 2171.92,1449.16 2141.55,1449.16 "/>
<path clip-path="url(#clip302)" d="M2171.92 1449.16 L2171.92 1486.45 L2202.29 1486.45 L2202.29 1449.16 L2171.92 1449.16 L2171.92 1449.16  Z" fill="#009af9" fill-rule="evenodd" fill-opacity="1"/>
<polyline clip-path="url(#clip302)" style="stroke:#000000; stroke-linecap:round; stroke-linejoin:round; stroke-width:4; stroke-opacity:1; fill:none" points="2171.92,1449.16 2171.92,1486.45 2202.29,1486.45 2202.29,1449.16 2171.92,1449.16 "/>
<path clip-path="url(#clip302)" d="M2202.29 1471.53 L2202.29 1486.45 L2232.65 1486.45 L2232.65 1471.53 L2202.29 1471.53 L2202.29 1471.53  Z" fill="#009af9" fill-rule="evenodd" fill-opacity="1"/>
<polyline clip-path="url(#clip302)" style="stroke:#000000; stroke-linecap:round; stroke-linejoin:round; stroke-width:4; stroke-opacity:1; fill:none" points="2202.29,1471.53 2202.29,1486.45 2232.65,1486.45 2232.65,1471.53 2202.29,1471.53 "/>
<circle clip-path="url(#clip302)" style="fill:#009af9; stroke:none; fill-opacity:0" cx="304.408" cy="1478.99" r="2"/>
<circle clip-path="url(#clip302)" style="fill:#009af9; stroke:none; fill-opacity:0" cx="334.774" cy="1486.45" r="2"/>
<circle clip-path="url(#clip302)" style="fill:#009af9; stroke:none; fill-opacity:0" cx="365.14" cy="1464.08" r="2"/>
<circle clip-path="url(#clip302)" style="fill:#009af9; stroke:none; fill-opacity:0" cx="395.506" cy="1434.25" r="2"/>
<circle clip-path="url(#clip302)" style="fill:#009af9; stroke:none; fill-opacity:0" cx="425.872" cy="1337.31" r="2"/>
<circle clip-path="url(#clip302)" style="fill:#009af9; stroke:none; fill-opacity:0" cx="456.238" cy="1173.25" r="2"/>
<circle clip-path="url(#clip302)" style="fill:#009af9; stroke:none; fill-opacity:0" cx="486.604" cy="837.688" r="2"/>
<circle clip-path="url(#clip302)" style="fill:#009af9; stroke:none; fill-opacity:0" cx="516.97" cy="435.009" r="2"/>
<circle clip-path="url(#clip302)" style="fill:#009af9; stroke:none; fill-opacity:0" cx="547.337" cy="47.2441" r="2"/>
<circle clip-path="url(#clip302)" style="fill:#009af9; stroke:none; fill-opacity:0" cx="577.703" cy="84.5292" r="2"/>
<circle clip-path="url(#clip302)" style="fill:#009af9; stroke:none; fill-opacity:0" cx="608.069" cy="196.384" r="2"/>
<circle clip-path="url(#clip302)" style="fill:#009af9; stroke:none; fill-opacity:0" cx="638.435" cy="942.086" r="2"/>
<circle clip-path="url(#clip302)" style="fill:#009af9; stroke:none; fill-opacity:0" cx="668.801" cy="1039.03" r="2"/>
<circle clip-path="url(#clip302)" style="fill:#009af9; stroke:none; fill-opacity:0" cx="699.167" cy="151.642" r="2"/>
<circle clip-path="url(#clip302)" style="fill:#009af9; stroke:none; fill-opacity:0" cx="729.533" cy="114.357" r="2"/>
<circle clip-path="url(#clip302)" style="fill:#009af9; stroke:none; fill-opacity:0" cx="759.899" cy="159.099" r="2"/>
<circle clip-path="url(#clip302)" style="fill:#009af9; stroke:none; fill-opacity:0" cx="790.265" cy="494.665" r="2"/>
<circle clip-path="url(#clip302)" style="fill:#009af9; stroke:none; fill-opacity:0" cx="820.631" cy="830.231" r="2"/>
<circle clip-path="url(#clip302)" style="fill:#009af9; stroke:none; fill-opacity:0" cx="850.997" cy="1247.82" r="2"/>
<circle clip-path="url(#clip302)" style="fill:#009af9; stroke:none; fill-opacity:0" cx="881.363" cy="1419.33" r="2"/>
<circle clip-path="url(#clip302)" style="fill:#009af9; stroke:none; fill-opacity:0" cx="911.729" cy="1426.79" r="2"/>
<circle clip-path="url(#clip302)" style="fill:#009af9; stroke:none; fill-opacity:0" cx="942.095" cy="1486.45" r="2"/>
<circle clip-path="url(#clip302)" style="fill:#009af9; stroke:none; fill-opacity:0" cx="972.461" cy="1478.99" r="2"/>
<circle clip-path="url(#clip302)" style="fill:#009af9; stroke:none; fill-opacity:0" cx="1002.83" cy="1486.45" r="2"/>
<circle clip-path="url(#clip302)" style="fill:#009af9; stroke:none; fill-opacity:0" cx="1033.19" cy="1486.45" r="2"/>
<circle clip-path="url(#clip302)" style="fill:#009af9; stroke:none; fill-opacity:0" cx="1063.56" cy="1486.45" r="2"/>
<circle clip-path="url(#clip302)" style="fill:#009af9; stroke:none; fill-opacity:0" cx="1093.93" cy="1486.45" r="2"/>
<circle clip-path="url(#clip302)" style="fill:#009af9; stroke:none; fill-opacity:0" cx="1124.29" cy="1486.45" r="2"/>
<circle clip-path="url(#clip302)" style="fill:#009af9; stroke:none; fill-opacity:0" cx="1154.66" cy="1486.45" r="2"/>
<circle clip-path="url(#clip302)" style="fill:#009af9; stroke:none; fill-opacity:0" cx="1185.02" cy="1486.45" r="2"/>
<circle clip-path="url(#clip302)" style="fill:#009af9; stroke:none; fill-opacity:0" cx="1215.39" cy="1486.45" r="2"/>
<circle clip-path="url(#clip302)" style="fill:#009af9; stroke:none; fill-opacity:0" cx="1245.76" cy="1486.45" r="2"/>
<circle clip-path="url(#clip302)" style="fill:#009af9; stroke:none; fill-opacity:0" cx="1276.12" cy="1486.45" r="2"/>
<circle clip-path="url(#clip302)" style="fill:#009af9; stroke:none; fill-opacity:0" cx="1306.49" cy="1486.45" r="2"/>
<circle clip-path="url(#clip302)" style="fill:#009af9; stroke:none; fill-opacity:0" cx="1336.85" cy="1486.45" r="2"/>
<circle clip-path="url(#clip302)" style="fill:#009af9; stroke:none; fill-opacity:0" cx="1367.22" cy="1486.45" r="2"/>
<circle clip-path="url(#clip302)" style="fill:#009af9; stroke:none; fill-opacity:0" cx="1397.59" cy="1486.45" r="2"/>
<circle clip-path="url(#clip302)" style="fill:#009af9; stroke:none; fill-opacity:0" cx="1427.95" cy="1486.45" r="2"/>
<circle clip-path="url(#clip302)" style="fill:#009af9; stroke:none; fill-opacity:0" cx="1458.32" cy="1486.45" r="2"/>
<circle clip-path="url(#clip302)" style="fill:#009af9; stroke:none; fill-opacity:0" cx="1488.68" cy="1486.45" r="2"/>
<circle clip-path="url(#clip302)" style="fill:#009af9; stroke:none; fill-opacity:0" cx="1519.05" cy="1486.45" r="2"/>
<circle clip-path="url(#clip302)" style="fill:#009af9; stroke:none; fill-opacity:0" cx="1549.42" cy="1486.45" r="2"/>
<circle clip-path="url(#clip302)" style="fill:#009af9; stroke:none; fill-opacity:0" cx="1579.78" cy="1486.45" r="2"/>
<circle clip-path="url(#clip302)" style="fill:#009af9; stroke:none; fill-opacity:0" cx="1610.15" cy="1486.45" r="2"/>
<circle clip-path="url(#clip302)" style="fill:#009af9; stroke:none; fill-opacity:0" cx="1640.51" cy="1486.45" r="2"/>
<circle clip-path="url(#clip302)" style="fill:#009af9; stroke:none; fill-opacity:0" cx="1670.88" cy="1486.45" r="2"/>
<circle clip-path="url(#clip302)" style="fill:#009af9; stroke:none; fill-opacity:0" cx="1701.25" cy="1486.45" r="2"/>
<circle clip-path="url(#clip302)" style="fill:#009af9; stroke:none; fill-opacity:0" cx="1731.61" cy="1486.45" r="2"/>
<circle clip-path="url(#clip302)" style="fill:#009af9; stroke:none; fill-opacity:0" cx="1761.98" cy="1486.45" r="2"/>
<circle clip-path="url(#clip302)" style="fill:#009af9; stroke:none; fill-opacity:0" cx="1792.34" cy="1486.45" r="2"/>
<circle clip-path="url(#clip302)" style="fill:#009af9; stroke:none; fill-opacity:0" cx="1822.71" cy="1449.16" r="2"/>
<circle clip-path="url(#clip302)" style="fill:#009af9; stroke:none; fill-opacity:0" cx="1853.08" cy="1434.25" r="2"/>
<circle clip-path="url(#clip302)" style="fill:#009af9; stroke:none; fill-opacity:0" cx="1883.44" cy="1374.59" r="2"/>
<circle clip-path="url(#clip302)" style="fill:#009af9; stroke:none; fill-opacity:0" cx="1913.81" cy="1337.31" r="2"/>
<circle clip-path="url(#clip302)" style="fill:#009af9; stroke:none; fill-opacity:0" cx="1944.17" cy="1322.39" r="2"/>
<circle clip-path="url(#clip302)" style="fill:#009af9; stroke:none; fill-opacity:0" cx="1974.54" cy="1240.37" r="2"/>
<circle clip-path="url(#clip302)" style="fill:#009af9; stroke:none; fill-opacity:0" cx="2004.91" cy="1285.11" r="2"/>
<circle clip-path="url(#clip302)" style="fill:#009af9; stroke:none; fill-opacity:0" cx="2035.27" cy="1337.31" r="2"/>
<circle clip-path="url(#clip302)" style="fill:#009af9; stroke:none; fill-opacity:0" cx="2065.64" cy="1389.51" r="2"/>
<circle clip-path="url(#clip302)" style="fill:#009af9; stroke:none; fill-opacity:0" cx="2096" cy="1359.68" r="2"/>
<circle clip-path="url(#clip302)" style="fill:#009af9; stroke:none; fill-opacity:0" cx="2126.37" cy="1419.33" r="2"/>
<circle clip-path="url(#clip302)" style="fill:#009af9; stroke:none; fill-opacity:0" cx="2156.74" cy="1449.16" r="2"/>
<circle clip-path="url(#clip302)" style="fill:#009af9; stroke:none; fill-opacity:0" cx="2187.1" cy="1449.16" r="2"/>
<circle clip-path="url(#clip302)" style="fill:#009af9; stroke:none; fill-opacity:0" cx="2217.47" cy="1471.53" r="2"/>
<polyline clip-path="url(#clip302)" style="stroke:#e26f46; stroke-linecap:round; stroke-linejoin:round; stroke-width:12; stroke-opacity:1; fill:none" points="900.414,2925.65 900.414,-1391.96 "/>
</svg>
