<?xml version="1.0" encoding="utf-8"?>
<svg xmlns="http://www.w3.org/2000/svg" xmlns:xlink="http://www.w3.org/1999/xlink" width="600" height="400" viewBox="0 0 2400 1600">
<defs>
  <clipPath id="clip940">
    <rect x="0" y="0" width="2400" height="1600"/>
  </clipPath>
</defs>
<path clip-path="url(#clip940)" d="M0 1600 L2400 1600 L2400 0 L0 0  Z" fill="#ffffff" fill-rule="evenodd" fill-opacity="1"/>
<defs>
  <clipPath id="clip941">
    <rect x="480" y="0" width="1681" height="1600"/>
  </clipPath>
</defs>
<path clip-path="url(#clip940)" d="M170.857 1486.45 L2352.76 1486.45 L2352.76 47.2441 L170.857 47.2441  Z" fill="#ffffff" fill-rule="evenodd" fill-opacity="1"/>
<defs>
  <clipPath id="clip942">
    <rect x="170" y="47" width="2183" height="1440"/>
  </clipPath>
</defs>
<polyline clip-path="url(#clip942)" style="stroke:#000000; stroke-linecap:round; stroke-linejoin:round; stroke-width:2; stroke-opacity:0.1; fill:none" points="565.014,1486.45 565.014,47.2441 "/>
<polyline clip-path="url(#clip942)" style="stroke:#000000; stroke-linecap:round; stroke-linejoin:round; stroke-width:2; stroke-opacity:0.1; fill:none" points="1021.93,1486.45 1021.93,47.2441 "/>
<polyline clip-path="url(#clip942)" style="stroke:#000000; stroke-linecap:round; stroke-linejoin:round; stroke-width:2; stroke-opacity:0.1; fill:none" points="1478.84,1486.45 1478.84,47.2441 "/>
<polyline clip-path="url(#clip942)" style="stroke:#000000; stroke-linecap:round; stroke-linejoin:round; stroke-width:2; stroke-opacity:0.1; fill:none" points="1935.75,1486.45 1935.75,47.2441 "/>
<polyline clip-path="url(#clip942)" style="stroke:#000000; stroke-linecap:round; stroke-linejoin:round; stroke-width:2; stroke-opacity:0.1; fill:none" points="170.857,1486.45 2352.76,1486.45 "/>
<polyline clip-path="url(#clip942)" style="stroke:#000000; stroke-linecap:round; stroke-linejoin:round; stroke-width:2; stroke-opacity:0.1; fill:none" points="170.857,1240.01 2352.76,1240.01 "/>
<polyline clip-path="url(#clip942)" style="stroke:#000000; stroke-linecap:round; stroke-linejoin:round; stroke-width:2; stroke-opacity:0.1; fill:none" points="170.857,993.57 2352.76,993.57 "/>
<polyline clip-path="url(#clip942)" style="stroke:#000000; stroke-linecap:round; stroke-linejoin:round; stroke-width:2; stroke-opacity:0.1; fill:none" points="170.857,747.131 2352.76,747.131 "/>
<polyline clip-path="url(#clip942)" style="stroke:#000000; stroke-linecap:round; stroke-linejoin:round; stroke-width:2; stroke-opacity:0.1; fill:none" points="170.857,500.692 2352.76,500.692 "/>
<polyline clip-path="url(#clip942)" style="stroke:#000000; stroke-linecap:round; stroke-linejoin:round; stroke-width:2; stroke-opacity:0.1; fill:none" points="170.857,254.253 2352.76,254.253 "/>
<polyline clip-path="url(#clip940)" style="stroke:#000000; stroke-linecap:round; stroke-linejoin:round; stroke-width:4; stroke-opacity:1; fill:none" points="170.857,1486.45 2352.76,1486.45 "/>
<polyline clip-path="url(#clip940)" style="stroke:#000000; stroke-linecap:round; stroke-linejoin:round; stroke-width:4; stroke-opacity:1; fill:none" points="565.014,1486.45 565.014,1467.55 "/>
<polyline clip-path="url(#clip940)" style="stroke:#000000; stroke-linecap:round; stroke-linejoin:round; stroke-width:4; stroke-opacity:1; fill:none" points="1021.93,1486.45 1021.93,1467.55 "/>
<polyline clip-path="url(#clip940)" style="stroke:#000000; stroke-linecap:round; stroke-linejoin:round; stroke-width:4; stroke-opacity:1; fill:none" points="1478.84,1486.45 1478.84,1467.55 "/>
<polyline clip-path="url(#clip940)" style="stroke:#000000; stroke-linecap:round; stroke-linejoin:round; stroke-width:4; stroke-opacity:1; fill:none" points="1935.75,1486.45 1935.75,1467.55 "/>
<path clip-path="url(#clip940)" d="M565.014 1517.37 Q561.403 1517.37 559.574 1520.93 Q557.768 1524.47 557.768 1531.6 Q557.768 1538.71 559.574 1542.27 Q561.403 1545.82 565.014 1545.82 Q568.648 1545.82 570.454 1542.27 Q572.282 1538.71 572.282 1531.6 Q572.282 1524.47 570.454 1520.93 Q568.648 1517.37 565.014 1517.37 M565.014 1513.66 Q570.824 1513.66 573.879 1518.27 Q576.958 1522.85 576.958 1531.6 Q576.958 1540.33 573.879 1544.94 Q570.824 1549.52 565.014 1549.52 Q559.204 1549.52 556.125 1544.94 Q553.069 1540.33 553.069 1531.6 Q553.069 1522.85 556.125 1518.27 Q559.204 1513.66 565.014 1513.66 Z" fill="#000000" fill-rule="nonzero" fill-opacity="1" /><path clip-path="url(#clip940)" d="M1000.7 1544.91 L1017.02 1544.91 L1017.02 1548.85 L995.075 1548.85 L995.075 1544.91 Q997.737 1542.16 1002.32 1537.53 Q1006.93 1532.88 1008.11 1531.53 Q1010.35 1529.01 1011.23 1527.27 Q1012.14 1525.51 1012.14 1523.82 Q1012.14 1521.07 1010.19 1519.33 Q1008.27 1517.6 1005.17 1517.6 Q1002.97 1517.6 1000.52 1518.36 Q998.085 1519.13 995.307 1520.68 L995.307 1515.95 Q998.131 1514.82 1000.58 1514.24 Q1003.04 1513.66 1005.08 1513.66 Q1010.45 1513.66 1013.64 1516.35 Q1016.83 1519.03 1016.83 1523.52 Q1016.83 1525.65 1016.02 1527.57 Q1015.24 1529.47 1013.13 1532.07 Q1012.55 1532.74 1009.45 1535.95 Q1006.35 1539.15 1000.7 1544.91 Z" fill="#000000" fill-rule="nonzero" fill-opacity="1" /><path clip-path="url(#clip940)" d="M1036.83 1517.37 Q1033.22 1517.37 1031.39 1520.93 Q1029.59 1524.47 1029.59 1531.6 Q1029.59 1538.71 1031.39 1542.27 Q1033.22 1545.82 1036.83 1545.82 Q1040.47 1545.82 1042.27 1542.27 Q1044.1 1538.71 1044.1 1531.6 Q1044.1 1524.47 1042.27 1520.93 Q1040.47 1517.37 1036.83 1517.37 M1036.83 1513.66 Q1042.64 1513.66 1045.7 1518.27 Q1048.78 1522.85 1048.78 1531.6 Q1048.78 1540.33 1045.7 1544.94 Q1042.64 1549.52 1036.83 1549.52 Q1031.02 1549.52 1027.95 1544.94 Q1024.89 1540.33 1024.89 1531.6 Q1024.89 1522.85 1027.95 1518.27 Q1031.02 1513.66 1036.83 1513.66 Z" fill="#000000" fill-rule="nonzero" fill-opacity="1" /><path clip-path="url(#clip940)" d="M1467.01 1518.36 L1455.21 1536.81 L1467.01 1536.81 L1467.01 1518.36 M1465.79 1514.29 L1471.66 1514.29 L1471.66 1536.81 L1476.6 1536.81 L1476.6 1540.7 L1471.66 1540.7 L1471.66 1548.85 L1467.01 1548.85 L1467.01 1540.7 L1451.41 1540.7 L1451.41 1536.19 L1465.79 1514.29 Z" fill="#000000" fill-rule="nonzero" fill-opacity="1" /><path clip-path="url(#clip940)" d="M1494.33 1517.37 Q1490.72 1517.37 1488.89 1520.93 Q1487.08 1524.47 1487.08 1531.6 Q1487.08 1538.71 1488.89 1542.27 Q1490.72 1545.82 1494.33 1545.82 Q1497.96 1545.82 1499.77 1542.27 Q1501.6 1538.71 1501.6 1531.6 Q1501.6 1524.47 1499.77 1520.93 Q1497.96 1517.37 1494.33 1517.37 M1494.33 1513.66 Q1500.14 1513.66 1503.19 1518.27 Q1506.27 1522.85 1506.27 1531.6 Q1506.27 1540.33 1503.19 1544.94 Q1500.14 1549.52 1494.33 1549.52 Q1488.52 1549.52 1485.44 1544.94 Q1482.38 1540.33 1482.38 1531.6 Q1482.38 1522.85 1485.44 1518.27 Q1488.52 1513.66 1494.33 1513.66 Z" fill="#000000" fill-rule="nonzero" fill-opacity="1" /><path clip-path="url(#clip940)" d="M1921.16 1529.7 Q1918.01 1529.7 1916.16 1531.86 Q1914.33 1534.01 1914.33 1537.76 Q1914.33 1541.49 1916.16 1543.66 Q1918.01 1545.82 1921.16 1545.82 Q1924.31 1545.82 1926.14 1543.66 Q1927.99 1541.49 1927.99 1537.76 Q1927.99 1534.01 1926.14 1531.86 Q1924.31 1529.7 1921.16 1529.7 M1930.44 1515.05 L1930.44 1519.31 Q1928.68 1518.48 1926.88 1518.04 Q1925.09 1517.6 1923.33 1517.6 Q1918.71 1517.6 1916.25 1520.72 Q1913.82 1523.85 1913.47 1530.17 Q1914.84 1528.15 1916.9 1527.09 Q1918.96 1526 1921.44 1526 Q1926.65 1526 1929.65 1529.17 Q1932.69 1532.32 1932.69 1537.76 Q1932.69 1543.08 1929.54 1546.3 Q1926.39 1549.52 1921.16 1549.52 Q1915.16 1549.52 1911.99 1544.94 Q1908.82 1540.33 1908.82 1531.6 Q1908.82 1523.41 1912.71 1518.55 Q1916.6 1513.66 1923.15 1513.66 Q1924.91 1513.66 1926.69 1514.01 Q1928.5 1514.36 1930.44 1515.05 Z" fill="#000000" fill-rule="nonzero" fill-opacity="1" /><path clip-path="url(#clip940)" d="M1950.74 1517.37 Q1947.13 1517.37 1945.3 1520.93 Q1943.5 1524.47 1943.5 1531.6 Q1943.5 1538.71 1945.3 1542.27 Q1947.13 1545.82 1950.74 1545.82 Q1954.38 1545.82 1956.18 1542.27 Q1958.01 1538.71 1958.01 1531.6 Q1958.01 1524.47 1956.18 1520.93 Q1954.38 1517.37 1950.74 1517.37 M1950.74 1513.66 Q1956.55 1513.66 1959.61 1518.27 Q1962.69 1522.85 1962.69 1531.6 Q1962.69 1540.33 1959.61 1544.94 Q1956.55 1549.52 1950.74 1549.52 Q1944.93 1549.52 1941.85 1544.94 Q1938.8 1540.33 1938.8 1531.6 Q1938.8 1522.85 1941.85 1518.27 Q1944.93 1513.66 1950.74 1513.66 Z" fill="#000000" fill-rule="nonzero" fill-opacity="1" /><polyline clip-path="url(#clip940)" style="stroke:#000000; stroke-linecap:round; stroke-linejoin:round; stroke-width:4; stroke-opacity:1; fill:none" points="170.857,1486.45 170.857,47.2441 "/>
<polyline clip-path="url(#clip940)" style="stroke:#000000; stroke-linecap:round; stroke-linejoin:round; stroke-width:4; stroke-opacity:1; fill:none" points="170.857,1486.45 189.755,1486.45 "/>
<polyline clip-path="url(#clip940)" style="stroke:#000000; stroke-linecap:round; stroke-linejoin:round; stroke-width:4; stroke-opacity:1; fill:none" points="170.857,1240.01 189.755,1240.01 "/>
<polyline clip-path="url(#clip940)" style="stroke:#000000; stroke-linecap:round; stroke-linejoin:round; stroke-width:4; stroke-opacity:1; fill:none" points="170.857,993.57 189.755,993.57 "/>
<polyline clip-path="url(#clip940)" style="stroke:#000000; stroke-linecap:round; stroke-linejoin:round; stroke-width:4; stroke-opacity:1; fill:none" points="170.857,747.131 189.755,747.131 "/>
<polyline clip-path="url(#clip940)" style="stroke:#000000; stroke-linecap:round; stroke-linejoin:round; stroke-width:4; stroke-opacity:1; fill:none" points="170.857,500.692 189.755,500.692 "/>
<polyline clip-path="url(#clip940)" style="stroke:#000000; stroke-linecap:round; stroke-linejoin:round; stroke-width:4; stroke-opacity:1; fill:none" points="170.857,254.253 189.755,254.253 "/>
<path clip-path="url(#clip940)" d="M122.913 1472.25 Q119.302 1472.25 117.473 1475.81 Q115.668 1479.35 115.668 1486.48 Q115.668 1493.59 117.473 1497.15 Q119.302 1500.7 122.913 1500.7 Q126.547 1500.7 128.353 1497.15 Q130.182 1493.59 130.182 1486.48 Q130.182 1479.35 128.353 1475.81 Q126.547 1472.25 122.913 1472.25 M122.913 1468.54 Q128.723 1468.54 131.779 1473.15 Q134.857 1477.73 134.857 1486.48 Q134.857 1495.21 131.779 1499.82 Q128.723 1504.4 122.913 1504.4 Q117.103 1504.4 114.024 1499.82 Q110.969 1495.21 110.969 1486.48 Q110.969 1477.73 114.024 1473.15 Q117.103 1468.54 122.913 1468.54 Z" fill="#000000" fill-rule="nonzero" fill-opacity="1" /><path clip-path="url(#clip940)" d="M82.7975 1222.73 L101.154 1222.73 L101.154 1226.66 L87.0799 1226.66 L87.0799 1235.14 Q88.0984 1234.79 89.1169 1234.63 Q90.1354 1234.44 91.1539 1234.44 Q96.941 1234.44 100.321 1237.61 Q103.7 1240.78 103.7 1246.2 Q103.7 1251.78 100.228 1254.88 Q96.7558 1257.96 90.4364 1257.96 Q88.2604 1257.96 85.9919 1257.59 Q83.7466 1257.22 81.3392 1256.48 L81.3392 1251.78 Q83.4225 1252.91 85.6447 1253.47 Q87.8669 1254.02 90.3438 1254.02 Q94.3484 1254.02 96.6863 1251.92 Q99.0243 1249.81 99.0243 1246.2 Q99.0243 1242.59 96.6863 1240.48 Q94.3484 1238.38 90.3438 1238.38 Q88.4688 1238.38 86.5938 1238.79 Q84.7419 1239.21 82.7975 1240.09 L82.7975 1222.73 Z" fill="#000000" fill-rule="nonzero" fill-opacity="1" /><path clip-path="url(#clip940)" d="M122.913 1225.81 Q119.302 1225.81 117.473 1229.37 Q115.668 1232.91 115.668 1240.04 Q115.668 1247.15 117.473 1250.71 Q119.302 1254.26 122.913 1254.26 Q126.547 1254.26 128.353 1250.71 Q130.182 1247.15 130.182 1240.04 Q130.182 1232.91 128.353 1229.37 Q126.547 1225.81 122.913 1225.81 M122.913 1222.1 Q128.723 1222.1 131.779 1226.71 Q134.857 1231.29 134.857 1240.04 Q134.857 1248.77 131.779 1253.38 Q128.723 1257.96 122.913 1257.96 Q117.103 1257.96 114.024 1253.38 Q110.969 1248.77 110.969 1240.04 Q110.969 1231.29 114.024 1226.71 Q117.103 1222.1 122.913 1222.1 Z" fill="#000000" fill-rule="nonzero" fill-opacity="1" /><path clip-path="url(#clip940)" d="M53.3995 1006.91 L61.0384 1006.91 L61.0384 980.549 L52.7282 982.216 L52.7282 977.957 L60.9921 976.29 L65.668 976.29 L65.668 1006.91 L73.3068 1006.91 L73.3068 1010.85 L53.3995 1010.85 L53.3995 1006.91 Z" fill="#000000" fill-rule="nonzero" fill-opacity="1" /><path clip-path="url(#clip940)" d="M92.7512 979.369 Q89.1401 979.369 87.3114 982.933 Q85.5058 986.475 85.5058 993.605 Q85.5058 1000.71 87.3114 1004.28 Q89.1401 1007.82 92.7512 1007.82 Q96.3854 1007.82 98.1909 1004.28 Q100.02 1000.71 100.02 993.605 Q100.02 986.475 98.1909 982.933 Q96.3854 979.369 92.7512 979.369 M92.7512 975.665 Q98.5613 975.665 101.617 980.271 Q104.696 984.855 104.696 993.605 Q104.696 1002.33 101.617 1006.94 Q98.5613 1011.52 92.7512 1011.52 Q86.941 1011.52 83.8623 1006.94 Q80.8068 1002.33 80.8068 993.605 Q80.8068 984.855 83.8623 980.271 Q86.941 975.665 92.7512 975.665 Z" fill="#000000" fill-rule="nonzero" fill-opacity="1" /><path clip-path="url(#clip940)" d="M122.913 979.369 Q119.302 979.369 117.473 982.933 Q115.668 986.475 115.668 993.605 Q115.668 1000.71 117.473 1004.28 Q119.302 1007.82 122.913 1007.82 Q126.547 1007.82 128.353 1004.28 Q130.182 1000.71 130.182 993.605 Q130.182 986.475 128.353 982.933 Q126.547 979.369 122.913 979.369 M122.913 975.665 Q128.723 975.665 131.779 980.271 Q134.857 984.855 134.857 993.605 Q134.857 1002.33 131.779 1006.94 Q128.723 1011.52 122.913 1011.52 Q117.103 1011.52 114.024 1006.94 Q110.969 1002.33 110.969 993.605 Q110.969 984.855 114.024 980.271 Q117.103 975.665 122.913 975.665 Z" fill="#000000" fill-rule="nonzero" fill-opacity="1" /><path clip-path="url(#clip940)" d="M53.3995 760.476 L61.0384 760.476 L61.0384 734.11 L52.7282 735.777 L52.7282 731.518 L60.9921 729.851 L65.668 729.851 L65.668 760.476 L73.3068 760.476 L73.3068 764.411 L53.3995 764.411 L53.3995 760.476 Z" fill="#000000" fill-rule="nonzero" fill-opacity="1" /><path clip-path="url(#clip940)" d="M82.7975 729.851 L101.154 729.851 L101.154 733.786 L87.0799 733.786 L87.0799 742.258 Q88.0984 741.911 89.1169 741.749 Q90.1354 741.564 91.1539 741.564 Q96.941 741.564 100.321 744.735 Q103.7 747.906 103.7 753.323 Q103.7 758.902 100.228 762.003 Q96.7558 765.082 90.4364 765.082 Q88.2604 765.082 85.9919 764.712 Q83.7466 764.341 81.3392 763.601 L81.3392 758.902 Q83.4225 760.036 85.6447 760.591 Q87.8669 761.147 90.3438 761.147 Q94.3484 761.147 96.6863 759.041 Q99.0243 756.934 99.0243 753.323 Q99.0243 749.712 96.6863 747.605 Q94.3484 745.499 90.3438 745.499 Q88.4688 745.499 86.5938 745.916 Q84.7419 746.332 82.7975 747.212 L82.7975 729.851 Z" fill="#000000" fill-rule="nonzero" fill-opacity="1" /><path clip-path="url(#clip940)" d="M122.913 732.93 Q119.302 732.93 117.473 736.494 Q115.668 740.036 115.668 747.166 Q115.668 754.272 117.473 757.837 Q119.302 761.378 122.913 761.378 Q126.547 761.378 128.353 757.837 Q130.182 754.272 130.182 747.166 Q130.182 740.036 128.353 736.494 Q126.547 732.93 122.913 732.93 M122.913 729.226 Q128.723 729.226 131.779 733.832 Q134.857 738.416 134.857 747.166 Q134.857 755.892 131.779 760.499 Q128.723 765.082 122.913 765.082 Q117.103 765.082 114.024 760.499 Q110.969 755.892 110.969 747.166 Q110.969 738.416 114.024 733.832 Q117.103 729.226 122.913 729.226 Z" fill="#000000" fill-rule="nonzero" fill-opacity="1" /><path clip-path="url(#clip940)" d="M56.6171 514.037 L72.9365 514.037 L72.9365 517.972 L50.9921 517.972 L50.9921 514.037 Q53.6541 511.282 58.2375 506.652 Q62.8439 502 64.0245 500.657 Q66.2698 498.134 67.1494 496.398 Q68.0522 494.639 68.0522 492.949 Q68.0522 490.194 66.1078 488.458 Q64.1865 486.722 61.0847 486.722 Q58.8856 486.722 56.4319 487.486 Q54.0014 488.25 51.2236 489.801 L51.2236 485.079 Q54.0477 483.944 56.5014 483.366 Q58.955 482.787 60.9921 482.787 Q66.3624 482.787 69.5568 485.472 Q72.7513 488.157 72.7513 492.648 Q72.7513 494.778 71.9411 496.699 Q71.1541 498.597 69.0476 501.19 Q68.4689 501.861 65.367 505.078 Q62.2652 508.273 56.6171 514.037 Z" fill="#000000" fill-rule="nonzero" fill-opacity="1" /><path clip-path="url(#clip940)" d="M92.7512 486.491 Q89.1401 486.491 87.3114 490.055 Q85.5058 493.597 85.5058 500.727 Q85.5058 507.833 87.3114 511.398 Q89.1401 514.939 92.7512 514.939 Q96.3854 514.939 98.1909 511.398 Q100.02 507.833 100.02 500.727 Q100.02 493.597 98.1909 490.055 Q96.3854 486.491 92.7512 486.491 M92.7512 482.787 Q98.5613 482.787 101.617 487.393 Q104.696 491.977 104.696 500.727 Q104.696 509.453 101.617 514.06 Q98.5613 518.643 92.7512 518.643 Q86.941 518.643 83.8623 514.06 Q80.8068 509.453 80.8068 500.727 Q80.8068 491.977 83.8623 487.393 Q86.941 482.787 92.7512 482.787 Z" fill="#000000" fill-rule="nonzero" fill-opacity="1" /><path clip-path="url(#clip940)" d="M122.913 486.491 Q119.302 486.491 117.473 490.055 Q115.668 493.597 115.668 500.727 Q115.668 507.833 117.473 511.398 Q119.302 514.939 122.913 514.939 Q126.547 514.939 128.353 511.398 Q130.182 507.833 130.182 500.727 Q130.182 493.597 128.353 490.055 Q126.547 486.491 122.913 486.491 M122.913 482.787 Q128.723 482.787 131.779 487.393 Q134.857 491.977 134.857 500.727 Q134.857 509.453 131.779 514.06 Q128.723 518.643 122.913 518.643 Q117.103 518.643 114.024 514.06 Q110.969 509.453 110.969 500.727 Q110.969 491.977 114.024 487.393 Q117.103 482.787 122.913 482.787 Z" fill="#000000" fill-rule="nonzero" fill-opacity="1" /><path clip-path="url(#clip940)" d="M56.6171 267.598 L72.9365 267.598 L72.9365 271.533 L50.9921 271.533 L50.9921 267.598 Q53.6541 264.843 58.2375 260.213 Q62.8439 255.561 64.0245 254.218 Q66.2698 251.695 67.1494 249.959 Q68.0522 248.2 68.0522 246.51 Q68.0522 243.755 66.1078 242.019 Q64.1865 240.283 61.0847 240.283 Q58.8856 240.283 56.4319 241.047 Q54.0014 241.811 51.2236 243.362 L51.2236 238.64 Q54.0477 237.505 56.5014 236.927 Q58.955 236.348 60.9921 236.348 Q66.3624 236.348 69.5568 239.033 Q72.7513 241.718 72.7513 246.209 Q72.7513 248.339 71.9411 250.26 Q71.1541 252.158 69.0476 254.751 Q68.4689 255.422 65.367 258.639 Q62.2652 261.834 56.6171 267.598 Z" fill="#000000" fill-rule="nonzero" fill-opacity="1" /><path clip-path="url(#clip940)" d="M82.7975 236.973 L101.154 236.973 L101.154 240.908 L87.0799 240.908 L87.0799 249.38 Q88.0984 249.033 89.1169 248.871 Q90.1354 248.686 91.1539 248.686 Q96.941 248.686 100.321 251.857 Q103.7 255.028 103.7 260.445 Q103.7 266.024 100.228 269.125 Q96.7558 272.204 90.4364 272.204 Q88.2604 272.204 85.9919 271.834 Q83.7466 271.463 81.3392 270.723 L81.3392 266.024 Q83.4225 267.158 85.6447 267.713 Q87.8669 268.269 90.3438 268.269 Q94.3484 268.269 96.6863 266.163 Q99.0243 264.056 99.0243 260.445 Q99.0243 256.834 96.6863 254.727 Q94.3484 252.621 90.3438 252.621 Q88.4688 252.621 86.5938 253.038 Q84.7419 253.454 82.7975 254.334 L82.7975 236.973 Z" fill="#000000" fill-rule="nonzero" fill-opacity="1" /><path clip-path="url(#clip940)" d="M122.913 240.052 Q119.302 240.052 117.473 243.616 Q115.668 247.158 115.668 254.288 Q115.668 261.394 117.473 264.959 Q119.302 268.5 122.913 268.5 Q126.547 268.5 128.353 264.959 Q130.182 261.394 130.182 254.288 Q130.182 247.158 128.353 243.616 Q126.547 240.052 122.913 240.052 M122.913 236.348 Q128.723 236.348 131.779 240.954 Q134.857 245.538 134.857 254.288 Q134.857 263.014 131.779 267.621 Q128.723 272.204 122.913 272.204 Q117.103 272.204 114.024 267.621 Q110.969 263.014 110.969 254.288 Q110.969 245.538 114.024 240.954 Q117.103 236.348 122.913 236.348 Z" fill="#000000" fill-rule="nonzero" fill-opacity="1" /><path clip-path="url(#clip942)" d="M290.866 1481.52 L290.866 1486.45 L313.711 1486.45 L313.711 1481.52 L290.866 1481.52 L290.866 1481.52  Z" fill="#009af9" fill-rule="evenodd" fill-opacity="1"/>
<polyline clip-path="url(#clip942)" style="stroke:#000000; stroke-linecap:round; stroke-linejoin:round; stroke-width:4; stroke-opacity:1; fill:none" points="290.866,1481.52 290.866,1486.45 313.711,1486.45 313.711,1481.52 290.866,1481.52 "/>
<path clip-path="url(#clip942)" d="M313.711 1486.45 L313.711 1486.45 L336.557 1486.45 L336.557 1486.45 L313.711 1486.45 L313.711 1486.45  Z" fill="#009af9" fill-rule="evenodd" fill-opacity="1"/>
<polyline clip-path="url(#clip942)" style="stroke:#000000; stroke-linecap:round; stroke-linejoin:round; stroke-width:4; stroke-opacity:1; fill:none" points="313.711,1486.45 313.711,1486.45 336.557,1486.45 313.711,1486.45 "/>
<path clip-path="url(#clip942)" d="M336.557 1481.52 L336.557 1486.45 L359.403 1486.45 L359.403 1481.52 L336.557 1481.52 L336.557 1481.52  Z" fill="#009af9" fill-rule="evenodd" fill-opacity="1"/>
<polyline clip-path="url(#clip942)" style="stroke:#000000; stroke-linecap:round; stroke-linejoin:round; stroke-width:4; stroke-opacity:1; fill:none" points="336.557,1481.52 336.557,1486.45 359.403,1486.45 359.403,1481.52 336.557,1481.52 "/>
<path clip-path="url(#clip942)" d="M359.403 1466.73 L359.403 1486.45 L382.248 1486.45 L382.248 1466.73 L359.403 1466.73 L359.403 1466.73  Z" fill="#009af9" fill-rule="evenodd" fill-opacity="1"/>
<polyline clip-path="url(#clip942)" style="stroke:#000000; stroke-linecap:round; stroke-linejoin:round; stroke-width:4; stroke-opacity:1; fill:none" points="359.403,1466.73 359.403,1486.45 382.248,1486.45 382.248,1466.73 359.403,1466.73 "/>
<path clip-path="url(#clip942)" d="M382.248 1476.59 L382.248 1486.45 L405.094 1486.45 L405.094 1476.59 L382.248 1476.59 L382.248 1476.59  Z" fill="#009af9" fill-rule="evenodd" fill-opacity="1"/>
<polyline clip-path="url(#clip942)" style="stroke:#000000; stroke-linecap:round; stroke-linejoin:round; stroke-width:4; stroke-opacity:1; fill:none" points="382.248,1476.59 382.248,1486.45 405.094,1486.45 405.094,1476.59 382.248,1476.59 "/>
<path clip-path="url(#clip942)" d="M405.094 1442.09 L405.094 1486.45 L427.94 1486.45 L427.94 1442.09 L405.094 1442.09 L405.094 1442.09  Z" fill="#009af9" fill-rule="evenodd" fill-opacity="1"/>
<polyline clip-path="url(#clip942)" style="stroke:#000000; stroke-linecap:round; stroke-linejoin:round; stroke-width:4; stroke-opacity:1; fill:none" points="405.094,1442.09 405.094,1486.45 427.94,1486.45 427.94,1442.09 405.094,1442.09 "/>
<path clip-path="url(#clip942)" d="M427.94 1348.44 L427.94 1486.45 L450.785 1486.45 L450.785 1348.44 L427.94 1348.44 L427.94 1348.44  Z" fill="#009af9" fill-rule="evenodd" fill-opacity="1"/>
<polyline clip-path="url(#clip942)" style="stroke:#000000; stroke-linecap:round; stroke-linejoin:round; stroke-width:4; stroke-opacity:1; fill:none" points="427.94,1348.44 427.94,1486.45 450.785,1486.45 450.785,1348.44 427.94,1348.44 "/>
<path clip-path="url(#clip942)" d="M450.785 1175.93 L450.785 1486.45 L473.631 1486.45 L473.631 1175.93 L450.785 1175.93 L450.785 1175.93  Z" fill="#009af9" fill-rule="evenodd" fill-opacity="1"/>
<polyline clip-path="url(#clip942)" style="stroke:#000000; stroke-linecap:round; stroke-linejoin:round; stroke-width:4; stroke-opacity:1; fill:none" points="450.785,1175.93 450.785,1486.45 473.631,1486.45 473.631,1175.93 450.785,1175.93 "/>
<path clip-path="url(#clip942)" d="M473.631 968.926 L473.631 1486.45 L496.477 1486.45 L496.477 968.926 L473.631 968.926 L473.631 968.926  Z" fill="#009af9" fill-rule="evenodd" fill-opacity="1"/>
<polyline clip-path="url(#clip942)" style="stroke:#000000; stroke-linecap:round; stroke-linejoin:round; stroke-width:4; stroke-opacity:1; fill:none" points="473.631,968.926 473.631,1486.45 496.477,1486.45 496.477,968.926 473.631,968.926 "/>
<path clip-path="url(#clip942)" d="M496.477 530.265 L496.477 1486.45 L519.322 1486.45 L519.322 530.265 L496.477 530.265 L496.477 530.265  Z" fill="#009af9" fill-rule="evenodd" fill-opacity="1"/>
<polyline clip-path="url(#clip942)" style="stroke:#000000; stroke-linecap:round; stroke-linejoin:round; stroke-width:4; stroke-opacity:1; fill:none" points="496.477,530.265 496.477,1486.45 519.322,1486.45 519.322,530.265 496.477,530.265 "/>
<path clip-path="url(#clip942)" d="M519.322 47.2441 L519.322 1486.45 L542.168 1486.45 L542.168 47.2441 L519.322 47.2441 L519.322 47.2441  Z" fill="#009af9" fill-rule="evenodd" fill-opacity="1"/>
<polyline clip-path="url(#clip942)" style="stroke:#000000; stroke-linecap:round; stroke-linejoin:round; stroke-width:4; stroke-opacity:1; fill:none" points="519.322,47.2441 519.322,1486.45 542.168,1486.45 542.168,47.2441 519.322,47.2441 "/>
<path clip-path="url(#clip942)" d="M542.168 357.757 L542.168 1486.45 L565.014 1486.45 L565.014 357.757 L542.168 357.757 L542.168 357.757  Z" fill="#009af9" fill-rule="evenodd" fill-opacity="1"/>
<polyline clip-path="url(#clip942)" style="stroke:#000000; stroke-linecap:round; stroke-linejoin:round; stroke-width:4; stroke-opacity:1; fill:none" points="542.168,357.757 542.168,1486.45 565.014,1486.45 565.014,357.757 542.168,357.757 "/>
<path clip-path="url(#clip942)" d="M565.014 229.609 L565.014 1486.45 L587.859 1486.45 L587.859 229.609 L565.014 229.609 L565.014 229.609  Z" fill="#009af9" fill-rule="evenodd" fill-opacity="1"/>
<polyline clip-path="url(#clip942)" style="stroke:#000000; stroke-linecap:round; stroke-linejoin:round; stroke-width:4; stroke-opacity:1; fill:none" points="565.014,229.609 565.014,1486.45 587.859,1486.45 587.859,229.609 565.014,229.609 "/>
<path clip-path="url(#clip942)" d="M587.859 150.748 L587.859 1486.45 L610.705 1486.45 L610.705 150.748 L587.859 150.748 L587.859 150.748  Z" fill="#009af9" fill-rule="evenodd" fill-opacity="1"/>
<polyline clip-path="url(#clip942)" style="stroke:#000000; stroke-linecap:round; stroke-linejoin:round; stroke-width:4; stroke-opacity:1; fill:none" points="587.859,150.748 587.859,1486.45 610.705,1486.45 610.705,150.748 587.859,150.748 "/>
<path clip-path="url(#clip942)" d="M610.705 569.695 L610.705 1486.45 L633.551 1486.45 L633.551 569.695 L610.705 569.695 L610.705 569.695  Z" fill="#009af9" fill-rule="evenodd" fill-opacity="1"/>
<polyline clip-path="url(#clip942)" style="stroke:#000000; stroke-linecap:round; stroke-linejoin:round; stroke-width:4; stroke-opacity:1; fill:none" points="610.705,569.695 610.705,1486.45 633.551,1486.45 633.551,569.695 610.705,569.695 "/>
<path clip-path="url(#clip942)" d="M633.551 1018.21 L633.551 1486.45 L656.396 1486.45 L656.396 1018.21 L633.551 1018.21 L633.551 1018.21  Z" fill="#009af9" fill-rule="evenodd" fill-opacity="1"/>
<polyline clip-path="url(#clip942)" style="stroke:#000000; stroke-linecap:round; stroke-linejoin:round; stroke-width:4; stroke-opacity:1; fill:none" points="633.551,1018.21 633.551,1486.45 656.396,1486.45 656.396,1018.21 633.551,1018.21 "/>
<path clip-path="url(#clip942)" d="M656.396 1289.3 L656.396 1486.45 L679.242 1486.45 L679.242 1289.3 L656.396 1289.3 L656.396 1289.3  Z" fill="#009af9" fill-rule="evenodd" fill-opacity="1"/>
<polyline clip-path="url(#clip942)" style="stroke:#000000; stroke-linecap:round; stroke-linejoin:round; stroke-width:4; stroke-opacity:1; fill:none" points="656.396,1289.3 656.396,1486.45 679.242,1486.45 679.242,1289.3 656.396,1289.3 "/>
<path clip-path="url(#clip942)" d="M679.242 1427.3 L679.242 1486.45 L702.088 1486.45 L702.088 1427.3 L679.242 1427.3 L679.242 1427.3  Z" fill="#009af9" fill-rule="evenodd" fill-opacity="1"/>
<polyline clip-path="url(#clip942)" style="stroke:#000000; stroke-linecap:round; stroke-linejoin:round; stroke-width:4; stroke-opacity:1; fill:none" points="679.242,1427.3 679.242,1486.45 702.088,1486.45 702.088,1427.3 679.242,1427.3 "/>
<path clip-path="url(#clip942)" d="M702.088 1461.8 L702.088 1486.45 L724.933 1486.45 L724.933 1461.8 L702.088 1461.8 L702.088 1461.8  Z" fill="#009af9" fill-rule="evenodd" fill-opacity="1"/>
<polyline clip-path="url(#clip942)" style="stroke:#000000; stroke-linecap:round; stroke-linejoin:round; stroke-width:4; stroke-opacity:1; fill:none" points="702.088,1461.8 702.088,1486.45 724.933,1486.45 724.933,1461.8 702.088,1461.8 "/>
<path clip-path="url(#clip942)" d="M724.933 1466.73 L724.933 1486.45 L747.779 1486.45 L747.779 1466.73 L724.933 1466.73 L724.933 1466.73  Z" fill="#009af9" fill-rule="evenodd" fill-opacity="1"/>
<polyline clip-path="url(#clip942)" style="stroke:#000000; stroke-linecap:round; stroke-linejoin:round; stroke-width:4; stroke-opacity:1; fill:none" points="724.933,1466.73 724.933,1486.45 747.779,1486.45 747.779,1466.73 724.933,1466.73 "/>
<path clip-path="url(#clip942)" d="M747.779 1471.66 L747.779 1486.45 L770.625 1486.45 L770.625 1471.66 L747.779 1471.66 L747.779 1471.66  Z" fill="#009af9" fill-rule="evenodd" fill-opacity="1"/>
<polyline clip-path="url(#clip942)" style="stroke:#000000; stroke-linecap:round; stroke-linejoin:round; stroke-width:4; stroke-opacity:1; fill:none" points="747.779,1471.66 747.779,1486.45 770.625,1486.45 770.625,1471.66 747.779,1471.66 "/>
<path clip-path="url(#clip942)" d="M770.625 1481.52 L770.625 1486.45 L793.47 1486.45 L793.47 1481.52 L770.625 1481.52 L770.625 1481.52  Z" fill="#009af9" fill-rule="evenodd" fill-opacity="1"/>
<polyline clip-path="url(#clip942)" style="stroke:#000000; stroke-linecap:round; stroke-linejoin:round; stroke-width:4; stroke-opacity:1; fill:none" points="770.625,1481.52 770.625,1486.45 793.47,1486.45 793.47,1481.52 770.625,1481.52 "/>
<path clip-path="url(#clip942)" d="M793.47 1486.45 L793.47 1486.45 L816.316 1486.45 L816.316 1486.45 L793.47 1486.45 L793.47 1486.45  Z" fill="#009af9" fill-rule="evenodd" fill-opacity="1"/>
<polyline clip-path="url(#clip942)" style="stroke:#000000; stroke-linecap:round; stroke-linejoin:round; stroke-width:4; stroke-opacity:1; fill:none" points="793.47,1486.45 793.47,1486.45 816.316,1486.45 793.47,1486.45 "/>
<path clip-path="url(#clip942)" d="M816.316 1486.45 L816.316 1486.45 L839.162 1486.45 L839.162 1486.45 L816.316 1486.45 L816.316 1486.45  Z" fill="#009af9" fill-rule="evenodd" fill-opacity="1"/>
<polyline clip-path="url(#clip942)" style="stroke:#000000; stroke-linecap:round; stroke-linejoin:round; stroke-width:4; stroke-opacity:1; fill:none" points="816.316,1486.45 816.316,1486.45 839.162,1486.45 816.316,1486.45 "/>
<path clip-path="url(#clip942)" d="M839.162 1486.45 L839.162 1486.45 L862.007 1486.45 L862.007 1486.45 L839.162 1486.45 L839.162 1486.45  Z" fill="#009af9" fill-rule="evenodd" fill-opacity="1"/>
<polyline clip-path="url(#clip942)" style="stroke:#000000; stroke-linecap:round; stroke-linejoin:round; stroke-width:4; stroke-opacity:1; fill:none" points="839.162,1486.45 839.162,1486.45 862.007,1486.45 839.162,1486.45 "/>
<path clip-path="url(#clip942)" d="M862.007 1486.45 L862.007 1486.45 L884.853 1486.45 L884.853 1486.45 L862.007 1486.45 L862.007 1486.45  Z" fill="#009af9" fill-rule="evenodd" fill-opacity="1"/>
<polyline clip-path="url(#clip942)" style="stroke:#000000; stroke-linecap:round; stroke-linejoin:round; stroke-width:4; stroke-opacity:1; fill:none" points="862.007,1486.45 862.007,1486.45 884.853,1486.45 862.007,1486.45 "/>
<path clip-path="url(#clip942)" d="M884.853 1486.45 L884.853 1486.45 L907.699 1486.45 L907.699 1486.45 L884.853 1486.45 L884.853 1486.45  Z" fill="#009af9" fill-rule="evenodd" fill-opacity="1"/>
<polyline clip-path="url(#clip942)" style="stroke:#000000; stroke-linecap:round; stroke-linejoin:round; stroke-width:4; stroke-opacity:1; fill:none" points="884.853,1486.45 884.853,1486.45 907.699,1486.45 884.853,1486.45 "/>
<path clip-path="url(#clip942)" d="M907.699 1486.45 L907.699 1486.45 L930.544 1486.45 L930.544 1486.45 L907.699 1486.45 L907.699 1486.45  Z" fill="#009af9" fill-rule="evenodd" fill-opacity="1"/>
<polyline clip-path="url(#clip942)" style="stroke:#000000; stroke-linecap:round; stroke-linejoin:round; stroke-width:4; stroke-opacity:1; fill:none" points="907.699,1486.45 907.699,1486.45 930.544,1486.45 907.699,1486.45 "/>
<path clip-path="url(#clip942)" d="M930.544 1486.45 L930.544 1486.45 L953.39 1486.45 L953.39 1486.45 L930.544 1486.45 L930.544 1486.45  Z" fill="#009af9" fill-rule="evenodd" fill-opacity="1"/>
<polyline clip-path="url(#clip942)" style="stroke:#000000; stroke-linecap:round; stroke-linejoin:round; stroke-width:4; stroke-opacity:1; fill:none" points="930.544,1486.45 930.544,1486.45 953.39,1486.45 930.544,1486.45 "/>
<path clip-path="url(#clip942)" d="M953.39 1486.45 L953.39 1486.45 L976.236 1486.45 L976.236 1486.45 L953.39 1486.45 L953.39 1486.45  Z" fill="#009af9" fill-rule="evenodd" fill-opacity="1"/>
<polyline clip-path="url(#clip942)" style="stroke:#000000; stroke-linecap:round; stroke-linejoin:round; stroke-width:4; stroke-opacity:1; fill:none" points="953.39,1486.45 953.39,1486.45 976.236,1486.45 953.39,1486.45 "/>
<path clip-path="url(#clip942)" d="M976.236 1486.45 L976.236 1486.45 L999.081 1486.45 L999.081 1486.45 L976.236 1486.45 L976.236 1486.45  Z" fill="#009af9" fill-rule="evenodd" fill-opacity="1"/>
<polyline clip-path="url(#clip942)" style="stroke:#000000; stroke-linecap:round; stroke-linejoin:round; stroke-width:4; stroke-opacity:1; fill:none" points="976.236,1486.45 976.236,1486.45 999.081,1486.45 976.236,1486.45 "/>
<path clip-path="url(#clip942)" d="M999.081 1486.45 L999.081 1486.45 L1021.93 1486.45 L1021.93 1486.45 L999.081 1486.45 L999.081 1486.45  Z" fill="#009af9" fill-rule="evenodd" fill-opacity="1"/>
<polyline clip-path="url(#clip942)" style="stroke:#000000; stroke-linecap:round; stroke-linejoin:round; stroke-width:4; stroke-opacity:1; fill:none" points="999.081,1486.45 999.081,1486.45 1021.93,1486.45 999.081,1486.45 "/>
<path clip-path="url(#clip942)" d="M1021.93 1486.45 L1021.93 1486.45 L1044.77 1486.45 L1044.77 1486.45 L1021.93 1486.45 L1021.93 1486.45  Z" fill="#009af9" fill-rule="evenodd" fill-opacity="1"/>
<polyline clip-path="url(#clip942)" style="stroke:#000000; stroke-linecap:round; stroke-linejoin:round; stroke-width:4; stroke-opacity:1; fill:none" points="1021.93,1486.45 1021.93,1486.45 1044.77,1486.45 1021.93,1486.45 "/>
<path clip-path="url(#clip942)" d="M1044.77 1486.45 L1044.77 1486.45 L1067.62 1486.45 L1067.62 1486.45 L1044.77 1486.45 L1044.77 1486.45  Z" fill="#009af9" fill-rule="evenodd" fill-opacity="1"/>
<polyline clip-path="url(#clip942)" style="stroke:#000000; stroke-linecap:round; stroke-linejoin:round; stroke-width:4; stroke-opacity:1; fill:none" points="1044.77,1486.45 1044.77,1486.45 1067.62,1486.45 1044.77,1486.45 "/>
<path clip-path="url(#clip942)" d="M1067.62 1486.45 L1067.62 1486.45 L1090.46 1486.45 L1090.46 1486.45 L1067.62 1486.45 L1067.62 1486.45  Z" fill="#009af9" fill-rule="evenodd" fill-opacity="1"/>
<polyline clip-path="url(#clip942)" style="stroke:#000000; stroke-linecap:round; stroke-linejoin:round; stroke-width:4; stroke-opacity:1; fill:none" points="1067.62,1486.45 1067.62,1486.45 1090.46,1486.45 1067.62,1486.45 "/>
<path clip-path="url(#clip942)" d="M1090.46 1486.45 L1090.46 1486.45 L1113.31 1486.45 L1113.31 1486.45 L1090.46 1486.45 L1090.46 1486.45  Z" fill="#009af9" fill-rule="evenodd" fill-opacity="1"/>
<polyline clip-path="url(#clip942)" style="stroke:#000000; stroke-linecap:round; stroke-linejoin:round; stroke-width:4; stroke-opacity:1; fill:none" points="1090.46,1486.45 1090.46,1486.45 1113.31,1486.45 1090.46,1486.45 "/>
<path clip-path="url(#clip942)" d="M1113.31 1486.45 L1113.31 1486.45 L1136.16 1486.45 L1136.16 1486.45 L1113.31 1486.45 L1113.31 1486.45  Z" fill="#009af9" fill-rule="evenodd" fill-opacity="1"/>
<polyline clip-path="url(#clip942)" style="stroke:#000000; stroke-linecap:round; stroke-linejoin:round; stroke-width:4; stroke-opacity:1; fill:none" points="1113.31,1486.45 1113.31,1486.45 1136.16,1486.45 1113.31,1486.45 "/>
<path clip-path="url(#clip942)" d="M1136.16 1486.45 L1136.16 1486.45 L1159 1486.45 L1159 1486.45 L1136.16 1486.45 L1136.16 1486.45  Z" fill="#009af9" fill-rule="evenodd" fill-opacity="1"/>
<polyline clip-path="url(#clip942)" style="stroke:#000000; stroke-linecap:round; stroke-linejoin:round; stroke-width:4; stroke-opacity:1; fill:none" points="1136.16,1486.45 1136.16,1486.45 1159,1486.45 1136.16,1486.45 "/>
<path clip-path="url(#clip942)" d="M1159 1486.45 L1159 1486.45 L1181.85 1486.45 L1181.85 1486.45 L1159 1486.45 L1159 1486.45  Z" fill="#009af9" fill-rule="evenodd" fill-opacity="1"/>
<polyline clip-path="url(#clip942)" style="stroke:#000000; stroke-linecap:round; stroke-linejoin:round; stroke-width:4; stroke-opacity:1; fill:none" points="1159,1486.45 1159,1486.45 1181.85,1486.45 1159,1486.45 "/>
<path clip-path="url(#clip942)" d="M1181.85 1486.45 L1181.85 1486.45 L1204.69 1486.45 L1204.69 1486.45 L1181.85 1486.45 L1181.85 1486.45  Z" fill="#009af9" fill-rule="evenodd" fill-opacity="1"/>
<polyline clip-path="url(#clip942)" style="stroke:#000000; stroke-linecap:round; stroke-linejoin:round; stroke-width:4; stroke-opacity:1; fill:none" points="1181.85,1486.45 1181.85,1486.45 1204.69,1486.45 1181.85,1486.45 "/>
<path clip-path="url(#clip942)" d="M1204.69 1486.45 L1204.69 1486.45 L1227.54 1486.45 L1227.54 1486.45 L1204.69 1486.45 L1204.69 1486.45  Z" fill="#009af9" fill-rule="evenodd" fill-opacity="1"/>
<polyline clip-path="url(#clip942)" style="stroke:#000000; stroke-linecap:round; stroke-linejoin:round; stroke-width:4; stroke-opacity:1; fill:none" points="1204.69,1486.45 1204.69,1486.45 1227.54,1486.45 1204.69,1486.45 "/>
<path clip-path="url(#clip942)" d="M1227.54 1486.45 L1227.54 1486.45 L1250.38 1486.45 L1250.38 1486.45 L1227.54 1486.45 L1227.54 1486.45  Z" fill="#009af9" fill-rule="evenodd" fill-opacity="1"/>
<polyline clip-path="url(#clip942)" style="stroke:#000000; stroke-linecap:round; stroke-linejoin:round; stroke-width:4; stroke-opacity:1; fill:none" points="1227.54,1486.45 1227.54,1486.45 1250.38,1486.45 1227.54,1486.45 "/>
<path clip-path="url(#clip942)" d="M1250.38 1486.45 L1250.38 1486.45 L1273.23 1486.45 L1273.23 1486.45 L1250.38 1486.45 L1250.38 1486.45  Z" fill="#009af9" fill-rule="evenodd" fill-opacity="1"/>
<polyline clip-path="url(#clip942)" style="stroke:#000000; stroke-linecap:round; stroke-linejoin:round; stroke-width:4; stroke-opacity:1; fill:none" points="1250.38,1486.45 1250.38,1486.45 1273.23,1486.45 1250.38,1486.45 "/>
<path clip-path="url(#clip942)" d="M1273.23 1486.45 L1273.23 1486.45 L1296.08 1486.45 L1296.08 1486.45 L1273.23 1486.45 L1273.23 1486.45  Z" fill="#009af9" fill-rule="evenodd" fill-opacity="1"/>
<polyline clip-path="url(#clip942)" style="stroke:#000000; stroke-linecap:round; stroke-linejoin:round; stroke-width:4; stroke-opacity:1; fill:none" points="1273.23,1486.45 1273.23,1486.45 1296.08,1486.45 1273.23,1486.45 "/>
<path clip-path="url(#clip942)" d="M1296.08 1486.45 L1296.08 1486.45 L1318.92 1486.45 L1318.92 1486.45 L1296.08 1486.45 L1296.08 1486.45  Z" fill="#009af9" fill-rule="evenodd" fill-opacity="1"/>
<polyline clip-path="url(#clip942)" style="stroke:#000000; stroke-linecap:round; stroke-linejoin:round; stroke-width:4; stroke-opacity:1; fill:none" points="1296.08,1486.45 1296.08,1486.45 1318.92,1486.45 1296.08,1486.45 "/>
<path clip-path="url(#clip942)" d="M1318.92 1486.45 L1318.92 1486.45 L1341.77 1486.45 L1341.77 1486.45 L1318.92 1486.45 L1318.92 1486.45  Z" fill="#009af9" fill-rule="evenodd" fill-opacity="1"/>
<polyline clip-path="url(#clip942)" style="stroke:#000000; stroke-linecap:round; stroke-linejoin:round; stroke-width:4; stroke-opacity:1; fill:none" points="1318.92,1486.45 1318.92,1486.45 1341.77,1486.45 1318.92,1486.45 "/>
<path clip-path="url(#clip942)" d="M1341.77 1486.45 L1341.77 1486.45 L1364.61 1486.45 L1364.61 1486.45 L1341.77 1486.45 L1341.77 1486.45  Z" fill="#009af9" fill-rule="evenodd" fill-opacity="1"/>
<polyline clip-path="url(#clip942)" style="stroke:#000000; stroke-linecap:round; stroke-linejoin:round; stroke-width:4; stroke-opacity:1; fill:none" points="1341.77,1486.45 1341.77,1486.45 1364.61,1486.45 1341.77,1486.45 "/>
<path clip-path="url(#clip942)" d="M1364.61 1486.45 L1364.61 1486.45 L1387.46 1486.45 L1387.46 1486.45 L1364.61 1486.45 L1364.61 1486.45  Z" fill="#009af9" fill-rule="evenodd" fill-opacity="1"/>
<polyline clip-path="url(#clip942)" style="stroke:#000000; stroke-linecap:round; stroke-linejoin:round; stroke-width:4; stroke-opacity:1; fill:none" points="1364.61,1486.45 1364.61,1486.45 1387.46,1486.45 1364.61,1486.45 "/>
<path clip-path="url(#clip942)" d="M1387.46 1486.45 L1387.46 1486.45 L1410.3 1486.45 L1410.3 1486.45 L1387.46 1486.45 L1387.46 1486.45  Z" fill="#009af9" fill-rule="evenodd" fill-opacity="1"/>
<polyline clip-path="url(#clip942)" style="stroke:#000000; stroke-linecap:round; stroke-linejoin:round; stroke-width:4; stroke-opacity:1; fill:none" points="1387.46,1486.45 1387.46,1486.45 1410.3,1486.45 1387.46,1486.45 "/>
<path clip-path="url(#clip942)" d="M1410.3 1486.45 L1410.3 1486.45 L1433.15 1486.45 L1433.15 1486.45 L1410.3 1486.45 L1410.3 1486.45  Z" fill="#009af9" fill-rule="evenodd" fill-opacity="1"/>
<polyline clip-path="url(#clip942)" style="stroke:#000000; stroke-linecap:round; stroke-linejoin:round; stroke-width:4; stroke-opacity:1; fill:none" points="1410.3,1486.45 1410.3,1486.45 1433.15,1486.45 1410.3,1486.45 "/>
<path clip-path="url(#clip942)" d="M1433.15 1486.45 L1433.15 1486.45 L1455.99 1486.45 L1455.99 1486.45 L1433.15 1486.45 L1433.15 1486.45  Z" fill="#009af9" fill-rule="evenodd" fill-opacity="1"/>
<polyline clip-path="url(#clip942)" style="stroke:#000000; stroke-linecap:round; stroke-linejoin:round; stroke-width:4; stroke-opacity:1; fill:none" points="1433.15,1486.45 1433.15,1486.45 1455.99,1486.45 1433.15,1486.45 "/>
<path clip-path="url(#clip942)" d="M1455.99 1486.45 L1455.99 1486.45 L1478.84 1486.45 L1478.84 1486.45 L1455.99 1486.45 L1455.99 1486.45  Z" fill="#009af9" fill-rule="evenodd" fill-opacity="1"/>
<polyline clip-path="url(#clip942)" style="stroke:#000000; stroke-linecap:round; stroke-linejoin:round; stroke-width:4; stroke-opacity:1; fill:none" points="1455.99,1486.45 1455.99,1486.45 1478.84,1486.45 1455.99,1486.45 "/>
<path clip-path="url(#clip942)" d="M1478.84 1486.45 L1478.84 1486.45 L1501.69 1486.45 L1501.69 1486.45 L1478.84 1486.45 L1478.84 1486.45  Z" fill="#009af9" fill-rule="evenodd" fill-opacity="1"/>
<polyline clip-path="url(#clip942)" style="stroke:#000000; stroke-linecap:round; stroke-linejoin:round; stroke-width:4; stroke-opacity:1; fill:none" points="1478.84,1486.45 1478.84,1486.45 1501.69,1486.45 1478.84,1486.45 "/>
<path clip-path="url(#clip942)" d="M1501.69 1486.45 L1501.69 1486.45 L1524.53 1486.45 L1524.53 1486.45 L1501.69 1486.45 L1501.69 1486.45  Z" fill="#009af9" fill-rule="evenodd" fill-opacity="1"/>
<polyline clip-path="url(#clip942)" style="stroke:#000000; stroke-linecap:round; stroke-linejoin:round; stroke-width:4; stroke-opacity:1; fill:none" points="1501.69,1486.45 1501.69,1486.45 1524.53,1486.45 1501.69,1486.45 "/>
<path clip-path="url(#clip942)" d="M1524.53 1486.45 L1524.53 1486.45 L1547.38 1486.45 L1547.38 1486.45 L1524.53 1486.45 L1524.53 1486.45  Z" fill="#009af9" fill-rule="evenodd" fill-opacity="1"/>
<polyline clip-path="url(#clip942)" style="stroke:#000000; stroke-linecap:round; stroke-linejoin:round; stroke-width:4; stroke-opacity:1; fill:none" points="1524.53,1486.45 1524.53,1486.45 1547.38,1486.45 1524.53,1486.45 "/>
<path clip-path="url(#clip942)" d="M1547.38 1486.45 L1547.38 1486.45 L1570.22 1486.45 L1570.22 1486.45 L1547.38 1486.45 L1547.38 1486.45  Z" fill="#009af9" fill-rule="evenodd" fill-opacity="1"/>
<polyline clip-path="url(#clip942)" style="stroke:#000000; stroke-linecap:round; stroke-linejoin:round; stroke-width:4; stroke-opacity:1; fill:none" points="1547.38,1486.45 1547.38,1486.45 1570.22,1486.45 1547.38,1486.45 "/>
<path clip-path="url(#clip942)" d="M1570.22 1486.45 L1570.22 1486.45 L1593.07 1486.45 L1593.07 1486.45 L1570.22 1486.45 L1570.22 1486.45  Z" fill="#009af9" fill-rule="evenodd" fill-opacity="1"/>
<polyline clip-path="url(#clip942)" style="stroke:#000000; stroke-linecap:round; stroke-linejoin:round; stroke-width:4; stroke-opacity:1; fill:none" points="1570.22,1486.45 1570.22,1486.45 1593.07,1486.45 1570.22,1486.45 "/>
<path clip-path="url(#clip942)" d="M1593.07 1486.45 L1593.07 1486.45 L1615.91 1486.45 L1615.91 1486.45 L1593.07 1486.45 L1593.07 1486.45  Z" fill="#009af9" fill-rule="evenodd" fill-opacity="1"/>
<polyline clip-path="url(#clip942)" style="stroke:#000000; stroke-linecap:round; stroke-linejoin:round; stroke-width:4; stroke-opacity:1; fill:none" points="1593.07,1486.45 1593.07,1486.45 1615.91,1486.45 1593.07,1486.45 "/>
<path clip-path="url(#clip942)" d="M1615.91 1486.45 L1615.91 1486.45 L1638.76 1486.45 L1638.76 1486.45 L1615.91 1486.45 L1615.91 1486.45  Z" fill="#009af9" fill-rule="evenodd" fill-opacity="1"/>
<polyline clip-path="url(#clip942)" style="stroke:#000000; stroke-linecap:round; stroke-linejoin:round; stroke-width:4; stroke-opacity:1; fill:none" points="1615.91,1486.45 1615.91,1486.45 1638.76,1486.45 1615.91,1486.45 "/>
<path clip-path="url(#clip942)" d="M1638.76 1486.45 L1638.76 1486.45 L1661.61 1486.45 L1661.61 1486.45 L1638.76 1486.45 L1638.76 1486.45  Z" fill="#009af9" fill-rule="evenodd" fill-opacity="1"/>
<polyline clip-path="url(#clip942)" style="stroke:#000000; stroke-linecap:round; stroke-linejoin:round; stroke-width:4; stroke-opacity:1; fill:none" points="1638.76,1486.45 1638.76,1486.45 1661.61,1486.45 1638.76,1486.45 "/>
<path clip-path="url(#clip942)" d="M1661.61 1486.45 L1661.61 1486.45 L1684.45 1486.45 L1684.45 1486.45 L1661.61 1486.45 L1661.61 1486.45  Z" fill="#009af9" fill-rule="evenodd" fill-opacity="1"/>
<polyline clip-path="url(#clip942)" style="stroke:#000000; stroke-linecap:round; stroke-linejoin:round; stroke-width:4; stroke-opacity:1; fill:none" points="1661.61,1486.45 1661.61,1486.45 1684.45,1486.45 1661.61,1486.45 "/>
<path clip-path="url(#clip942)" d="M1684.45 1486.45 L1684.45 1486.45 L1707.3 1486.45 L1707.3 1486.45 L1684.45 1486.45 L1684.45 1486.45  Z" fill="#009af9" fill-rule="evenodd" fill-opacity="1"/>
<polyline clip-path="url(#clip942)" style="stroke:#000000; stroke-linecap:round; stroke-linejoin:round; stroke-width:4; stroke-opacity:1; fill:none" points="1684.45,1486.45 1684.45,1486.45 1707.3,1486.45 1684.45,1486.45 "/>
<path clip-path="url(#clip942)" d="M1707.3 1486.45 L1707.3 1486.45 L1730.14 1486.45 L1730.14 1486.45 L1707.3 1486.45 L1707.3 1486.45  Z" fill="#009af9" fill-rule="evenodd" fill-opacity="1"/>
<polyline clip-path="url(#clip942)" style="stroke:#000000; stroke-linecap:round; stroke-linejoin:round; stroke-width:4; stroke-opacity:1; fill:none" points="1707.3,1486.45 1707.3,1486.45 1730.14,1486.45 1707.3,1486.45 "/>
<path clip-path="url(#clip942)" d="M1730.14 1486.45 L1730.14 1486.45 L1752.99 1486.45 L1752.99 1486.45 L1730.14 1486.45 L1730.14 1486.45  Z" fill="#009af9" fill-rule="evenodd" fill-opacity="1"/>
<polyline clip-path="url(#clip942)" style="stroke:#000000; stroke-linecap:round; stroke-linejoin:round; stroke-width:4; stroke-opacity:1; fill:none" points="1730.14,1486.45 1730.14,1486.45 1752.99,1486.45 1730.14,1486.45 "/>
<path clip-path="url(#clip942)" d="M1752.99 1486.45 L1752.99 1486.45 L1775.83 1486.45 L1775.83 1486.45 L1752.99 1486.45 L1752.99 1486.45  Z" fill="#009af9" fill-rule="evenodd" fill-opacity="1"/>
<polyline clip-path="url(#clip942)" style="stroke:#000000; stroke-linecap:round; stroke-linejoin:round; stroke-width:4; stroke-opacity:1; fill:none" points="1752.99,1486.45 1752.99,1486.45 1775.83,1486.45 1752.99,1486.45 "/>
<path clip-path="url(#clip942)" d="M1775.83 1486.45 L1775.83 1486.45 L1798.68 1486.45 L1798.68 1486.45 L1775.83 1486.45 L1775.83 1486.45  Z" fill="#009af9" fill-rule="evenodd" fill-opacity="1"/>
<polyline clip-path="url(#clip942)" style="stroke:#000000; stroke-linecap:round; stroke-linejoin:round; stroke-width:4; stroke-opacity:1; fill:none" points="1775.83,1486.45 1775.83,1486.45 1798.68,1486.45 1775.83,1486.45 "/>
<path clip-path="url(#clip942)" d="M1798.68 1486.45 L1798.68 1486.45 L1821.53 1486.45 L1821.53 1486.45 L1798.68 1486.45 L1798.68 1486.45  Z" fill="#009af9" fill-rule="evenodd" fill-opacity="1"/>
<polyline clip-path="url(#clip942)" style="stroke:#000000; stroke-linecap:round; stroke-linejoin:round; stroke-width:4; stroke-opacity:1; fill:none" points="1798.68,1486.45 1798.68,1486.45 1821.53,1486.45 1798.68,1486.45 "/>
<path clip-path="url(#clip942)" d="M1821.53 1486.45 L1821.53 1486.45 L1844.37 1486.45 L1844.37 1486.45 L1821.53 1486.45 L1821.53 1486.45  Z" fill="#009af9" fill-rule="evenodd" fill-opacity="1"/>
<polyline clip-path="url(#clip942)" style="stroke:#000000; stroke-linecap:round; stroke-linejoin:round; stroke-width:4; stroke-opacity:1; fill:none" points="1821.53,1486.45 1821.53,1486.45 1844.37,1486.45 1821.53,1486.45 "/>
<path clip-path="url(#clip942)" d="M1844.37 1486.45 L1844.37 1486.45 L1867.22 1486.45 L1867.22 1486.45 L1844.37 1486.45 L1844.37 1486.45  Z" fill="#009af9" fill-rule="evenodd" fill-opacity="1"/>
<polyline clip-path="url(#clip942)" style="stroke:#000000; stroke-linecap:round; stroke-linejoin:round; stroke-width:4; stroke-opacity:1; fill:none" points="1844.37,1486.45 1844.37,1486.45 1867.22,1486.45 1844.37,1486.45 "/>
<path clip-path="url(#clip942)" d="M1867.22 1486.45 L1867.22 1486.45 L1890.06 1486.45 L1890.06 1486.45 L1867.22 1486.45 L1867.22 1486.45  Z" fill="#009af9" fill-rule="evenodd" fill-opacity="1"/>
<polyline clip-path="url(#clip942)" style="stroke:#000000; stroke-linecap:round; stroke-linejoin:round; stroke-width:4; stroke-opacity:1; fill:none" points="1867.22,1486.45 1867.22,1486.45 1890.06,1486.45 1867.22,1486.45 "/>
<path clip-path="url(#clip942)" d="M1890.06 1486.45 L1890.06 1486.45 L1912.91 1486.45 L1912.91 1486.45 L1890.06 1486.45 L1890.06 1486.45  Z" fill="#009af9" fill-rule="evenodd" fill-opacity="1"/>
<polyline clip-path="url(#clip942)" style="stroke:#000000; stroke-linecap:round; stroke-linejoin:round; stroke-width:4; stroke-opacity:1; fill:none" points="1890.06,1486.45 1890.06,1486.45 1912.91,1486.45 1890.06,1486.45 "/>
<path clip-path="url(#clip942)" d="M1912.91 1486.45 L1912.91 1486.45 L1935.75 1486.45 L1935.75 1486.45 L1912.91 1486.45 L1912.91 1486.45  Z" fill="#009af9" fill-rule="evenodd" fill-opacity="1"/>
<polyline clip-path="url(#clip942)" style="stroke:#000000; stroke-linecap:round; stroke-linejoin:round; stroke-width:4; stroke-opacity:1; fill:none" points="1912.91,1486.45 1912.91,1486.45 1935.75,1486.45 1912.91,1486.45 "/>
<path clip-path="url(#clip942)" d="M1935.75 1486.45 L1935.75 1486.45 L1958.6 1486.45 L1958.6 1486.45 L1935.75 1486.45 L1935.75 1486.45  Z" fill="#009af9" fill-rule="evenodd" fill-opacity="1"/>
<polyline clip-path="url(#clip942)" style="stroke:#000000; stroke-linecap:round; stroke-linejoin:round; stroke-width:4; stroke-opacity:1; fill:none" points="1935.75,1486.45 1935.75,1486.45 1958.6,1486.45 1935.75,1486.45 "/>
<path clip-path="url(#clip942)" d="M1958.6 1486.45 L1958.6 1486.45 L1981.45 1486.45 L1981.45 1486.45 L1958.6 1486.45 L1958.6 1486.45  Z" fill="#009af9" fill-rule="evenodd" fill-opacity="1"/>
<polyline clip-path="url(#clip942)" style="stroke:#000000; stroke-linecap:round; stroke-linejoin:round; stroke-width:4; stroke-opacity:1; fill:none" points="1958.6,1486.45 1958.6,1486.45 1981.45,1486.45 1958.6,1486.45 "/>
<path clip-path="url(#clip942)" d="M1981.45 1486.45 L1981.45 1486.45 L2004.29 1486.45 L2004.29 1486.45 L1981.45 1486.45 L1981.45 1486.45  Z" fill="#009af9" fill-rule="evenodd" fill-opacity="1"/>
<polyline clip-path="url(#clip942)" style="stroke:#000000; stroke-linecap:round; stroke-linejoin:round; stroke-width:4; stroke-opacity:1; fill:none" points="1981.45,1486.45 1981.45,1486.45 2004.29,1486.45 1981.45,1486.45 "/>
<path clip-path="url(#clip942)" d="M2004.29 1486.45 L2004.29 1486.45 L2027.14 1486.45 L2027.14 1486.45 L2004.29 1486.45 L2004.29 1486.45  Z" fill="#009af9" fill-rule="evenodd" fill-opacity="1"/>
<polyline clip-path="url(#clip942)" style="stroke:#000000; stroke-linecap:round; stroke-linejoin:round; stroke-width:4; stroke-opacity:1; fill:none" points="2004.29,1486.45 2004.29,1486.45 2027.14,1486.45 2004.29,1486.45 "/>
<path clip-path="url(#clip942)" d="M2027.14 1486.45 L2027.14 1486.45 L2049.98 1486.45 L2049.98 1486.45 L2027.14 1486.45 L2027.14 1486.45  Z" fill="#009af9" fill-rule="evenodd" fill-opacity="1"/>
<polyline clip-path="url(#clip942)" style="stroke:#000000; stroke-linecap:round; stroke-linejoin:round; stroke-width:4; stroke-opacity:1; fill:none" points="2027.14,1486.45 2027.14,1486.45 2049.98,1486.45 2027.14,1486.45 "/>
<path clip-path="url(#clip942)" d="M2049.98 1486.45 L2049.98 1486.45 L2072.83 1486.45 L2072.83 1486.45 L2049.98 1486.45 L2049.98 1486.45  Z" fill="#009af9" fill-rule="evenodd" fill-opacity="1"/>
<polyline clip-path="url(#clip942)" style="stroke:#000000; stroke-linecap:round; stroke-linejoin:round; stroke-width:4; stroke-opacity:1; fill:none" points="2049.98,1486.45 2049.98,1486.45 2072.83,1486.45 2049.98,1486.45 "/>
<path clip-path="url(#clip942)" d="M2072.83 1486.45 L2072.83 1486.45 L2095.67 1486.45 L2095.67 1486.45 L2072.83 1486.45 L2072.83 1486.45  Z" fill="#009af9" fill-rule="evenodd" fill-opacity="1"/>
<polyline clip-path="url(#clip942)" style="stroke:#000000; stroke-linecap:round; stroke-linejoin:round; stroke-width:4; stroke-opacity:1; fill:none" points="2072.83,1486.45 2072.83,1486.45 2095.67,1486.45 2072.83,1486.45 "/>
<path clip-path="url(#clip942)" d="M2095.67 1486.45 L2095.67 1486.45 L2118.52 1486.45 L2118.52 1486.45 L2095.67 1486.45 L2095.67 1486.45  Z" fill="#009af9" fill-rule="evenodd" fill-opacity="1"/>
<polyline clip-path="url(#clip942)" style="stroke:#000000; stroke-linecap:round; stroke-linejoin:round; stroke-width:4; stroke-opacity:1; fill:none" points="2095.67,1486.45 2095.67,1486.45 2118.52,1486.45 2095.67,1486.45 "/>
<path clip-path="url(#clip942)" d="M2118.52 1486.45 L2118.52 1486.45 L2141.36 1486.45 L2141.36 1486.45 L2118.52 1486.45 L2118.52 1486.45  Z" fill="#009af9" fill-rule="evenodd" fill-opacity="1"/>
<polyline clip-path="url(#clip942)" style="stroke:#000000; stroke-linecap:round; stroke-linejoin:round; stroke-width:4; stroke-opacity:1; fill:none" points="2118.52,1486.45 2118.52,1486.45 2141.36,1486.45 2118.52,1486.45 "/>
<path clip-path="url(#clip942)" d="M2141.36 1486.45 L2141.36 1486.45 L2164.21 1486.45 L2164.21 1486.45 L2141.36 1486.45 L2141.36 1486.45  Z" fill="#009af9" fill-rule="evenodd" fill-opacity="1"/>
<polyline clip-path="url(#clip942)" style="stroke:#000000; stroke-linecap:round; stroke-linejoin:round; stroke-width:4; stroke-opacity:1; fill:none" points="2141.36,1486.45 2141.36,1486.45 2164.21,1486.45 2141.36,1486.45 "/>
<path clip-path="url(#clip942)" d="M2164.21 1486.45 L2164.21 1486.45 L2187.06 1486.45 L2187.06 1486.45 L2164.21 1486.45 L2164.21 1486.45  Z" fill="#009af9" fill-rule="evenodd" fill-opacity="1"/>
<polyline clip-path="url(#clip942)" style="stroke:#000000; stroke-linecap:round; stroke-linejoin:round; stroke-width:4; stroke-opacity:1; fill:none" points="2164.21,1486.45 2164.21,1486.45 2187.06,1486.45 2164.21,1486.45 "/>
<path clip-path="url(#clip942)" d="M2187.06 1486.45 L2187.06 1486.45 L2209.9 1486.45 L2209.9 1486.45 L2187.06 1486.45 L2187.06 1486.45  Z" fill="#009af9" fill-rule="evenodd" fill-opacity="1"/>
<polyline clip-path="url(#clip942)" style="stroke:#000000; stroke-linecap:round; stroke-linejoin:round; stroke-width:4; stroke-opacity:1; fill:none" points="2187.06,1486.45 2187.06,1486.45 2209.9,1486.45 2187.06,1486.45 "/>
<path clip-path="url(#clip942)" d="M2209.9 500.692 L2209.9 1486.45 L2232.75 1486.45 L2232.75 500.692 L2209.9 500.692 L2209.9 500.692  Z" fill="#009af9" fill-rule="evenodd" fill-opacity="1"/>
<polyline clip-path="url(#clip942)" style="stroke:#000000; stroke-linecap:round; stroke-linejoin:round; stroke-width:4; stroke-opacity:1; fill:none" points="2209.9,500.692 2209.9,1486.45 2232.75,1486.45 2232.75,500.692 2209.9,500.692 "/>
<circle clip-path="url(#clip942)" style="fill:#009af9; stroke:none; fill-opacity:0" cx="302.289" cy="1481.52" r="2"/>
<circle clip-path="url(#clip942)" style="fill:#009af9; stroke:none; fill-opacity:0" cx="325.134" cy="1486.45" r="2"/>
<circle clip-path="url(#clip942)" style="fill:#009af9; stroke:none; fill-opacity:0" cx="347.98" cy="1481.52" r="2"/>
<circle clip-path="url(#clip942)" style="fill:#009af9; stroke:none; fill-opacity:0" cx="370.826" cy="1466.73" r="2"/>
<circle clip-path="url(#clip942)" style="fill:#009af9; stroke:none; fill-opacity:0" cx="393.671" cy="1476.59" r="2"/>
<circle clip-path="url(#clip942)" style="fill:#009af9; stroke:none; fill-opacity:0" cx="416.517" cy="1442.09" r="2"/>
<circle clip-path="url(#clip942)" style="fill:#009af9; stroke:none; fill-opacity:0" cx="439.363" cy="1348.44" r="2"/>
<circle clip-path="url(#clip942)" style="fill:#009af9; stroke:none; fill-opacity:0" cx="462.208" cy="1175.93" r="2"/>
<circle clip-path="url(#clip942)" style="fill:#009af9; stroke:none; fill-opacity:0" cx="485.054" cy="968.926" r="2"/>
<circle clip-path="url(#clip942)" style="fill:#009af9; stroke:none; fill-opacity:0" cx="507.9" cy="530.265" r="2"/>
<circle clip-path="url(#clip942)" style="fill:#009af9; stroke:none; fill-opacity:0" cx="530.745" cy="47.2441" r="2"/>
<circle clip-path="url(#clip942)" style="fill:#009af9; stroke:none; fill-opacity:0" cx="553.591" cy="357.757" r="2"/>
<circle clip-path="url(#clip942)" style="fill:#009af9; stroke:none; fill-opacity:0" cx="576.437" cy="229.609" r="2"/>
<circle clip-path="url(#clip942)" style="fill:#009af9; stroke:none; fill-opacity:0" cx="599.282" cy="150.748" r="2"/>
<circle clip-path="url(#clip942)" style="fill:#009af9; stroke:none; fill-opacity:0" cx="622.128" cy="569.695" r="2"/>
<circle clip-path="url(#clip942)" style="fill:#009af9; stroke:none; fill-opacity:0" cx="644.974" cy="1018.21" r="2"/>
<circle clip-path="url(#clip942)" style="fill:#009af9; stroke:none; fill-opacity:0" cx="667.819" cy="1289.3" r="2"/>
<circle clip-path="url(#clip942)" style="fill:#009af9; stroke:none; fill-opacity:0" cx="690.665" cy="1427.3" r="2"/>
<circle clip-path="url(#clip942)" style="fill:#009af9; stroke:none; fill-opacity:0" cx="713.511" cy="1461.8" r="2"/>
<circle clip-path="url(#clip942)" style="fill:#009af9; stroke:none; fill-opacity:0" cx="736.356" cy="1466.73" r="2"/>
<circle clip-path="url(#clip942)" style="fill:#009af9; stroke:none; fill-opacity:0" cx="759.202" cy="1471.66" r="2"/>
<circle clip-path="url(#clip942)" style="fill:#009af9; stroke:none; fill-opacity:0" cx="782.048" cy="1481.52" r="2"/>
<circle clip-path="url(#clip942)" style="fill:#009af9; stroke:none; fill-opacity:0" cx="804.893" cy="1486.45" r="2"/>
<circle clip-path="url(#clip942)" style="fill:#009af9; stroke:none; fill-opacity:0" cx="827.739" cy="1486.45" r="2"/>
<circle clip-path="url(#clip942)" style="fill:#009af9; stroke:none; fill-opacity:0" cx="850.585" cy="1486.45" r="2"/>
<circle clip-path="url(#clip942)" style="fill:#009af9; stroke:none; fill-opacity:0" cx="873.43" cy="1486.45" r="2"/>
<circle clip-path="url(#clip942)" style="fill:#009af9; stroke:none; fill-opacity:0" cx="896.276" cy="1486.45" r="2"/>
<circle clip-path="url(#clip942)" style="fill:#009af9; stroke:none; fill-opacity:0" cx="919.122" cy="1486.45" r="2"/>
<circle clip-path="url(#clip942)" style="fill:#009af9; stroke:none; fill-opacity:0" cx="941.967" cy="1486.45" r="2"/>
<circle clip-path="url(#clip942)" style="fill:#009af9; stroke:none; fill-opacity:0" cx="964.813" cy="1486.45" r="2"/>
<circle clip-path="url(#clip942)" style="fill:#009af9; stroke:none; fill-opacity:0" cx="987.659" cy="1486.45" r="2"/>
<circle clip-path="url(#clip942)" style="fill:#009af9; stroke:none; fill-opacity:0" cx="1010.5" cy="1486.45" r="2"/>
<circle clip-path="url(#clip942)" style="fill:#009af9; stroke:none; fill-opacity:0" cx="1033.35" cy="1486.45" r="2"/>
<circle clip-path="url(#clip942)" style="fill:#009af9; stroke:none; fill-opacity:0" cx="1056.2" cy="1486.45" r="2"/>
<circle clip-path="url(#clip942)" style="fill:#009af9; stroke:none; fill-opacity:0" cx="1079.04" cy="1486.45" r="2"/>
<circle clip-path="url(#clip942)" style="fill:#009af9; stroke:none; fill-opacity:0" cx="1101.89" cy="1486.45" r="2"/>
<circle clip-path="url(#clip942)" style="fill:#009af9; stroke:none; fill-opacity:0" cx="1124.73" cy="1486.45" r="2"/>
<circle clip-path="url(#clip942)" style="fill:#009af9; stroke:none; fill-opacity:0" cx="1147.58" cy="1486.45" r="2"/>
<circle clip-path="url(#clip942)" style="fill:#009af9; stroke:none; fill-opacity:0" cx="1170.42" cy="1486.45" r="2"/>
<circle clip-path="url(#clip942)" style="fill:#009af9; stroke:none; fill-opacity:0" cx="1193.27" cy="1486.45" r="2"/>
<circle clip-path="url(#clip942)" style="fill:#009af9; stroke:none; fill-opacity:0" cx="1216.12" cy="1486.45" r="2"/>
<circle clip-path="url(#clip942)" style="fill:#009af9; stroke:none; fill-opacity:0" cx="1238.96" cy="1486.45" r="2"/>
<circle clip-path="url(#clip942)" style="fill:#009af9; stroke:none; fill-opacity:0" cx="1261.81" cy="1486.45" r="2"/>
<circle clip-path="url(#clip942)" style="fill:#009af9; stroke:none; fill-opacity:0" cx="1284.65" cy="1486.45" r="2"/>
<circle clip-path="url(#clip942)" style="fill:#009af9; stroke:none; fill-opacity:0" cx="1307.5" cy="1486.45" r="2"/>
<circle clip-path="url(#clip942)" style="fill:#009af9; stroke:none; fill-opacity:0" cx="1330.34" cy="1486.45" r="2"/>
<circle clip-path="url(#clip942)" style="fill:#009af9; stroke:none; fill-opacity:0" cx="1353.19" cy="1486.45" r="2"/>
<circle clip-path="url(#clip942)" style="fill:#009af9; stroke:none; fill-opacity:0" cx="1376.04" cy="1486.45" r="2"/>
<circle clip-path="url(#clip942)" style="fill:#009af9; stroke:none; fill-opacity:0" cx="1398.88" cy="1486.45" r="2"/>
<circle clip-path="url(#clip942)" style="fill:#009af9; stroke:none; fill-opacity:0" cx="1421.73" cy="1486.45" r="2"/>
<circle clip-path="url(#clip942)" style="fill:#009af9; stroke:none; fill-opacity:0" cx="1444.57" cy="1486.45" r="2"/>
<circle clip-path="url(#clip942)" style="fill:#009af9; stroke:none; fill-opacity:0" cx="1467.42" cy="1486.45" r="2"/>
<circle clip-path="url(#clip942)" style="fill:#009af9; stroke:none; fill-opacity:0" cx="1490.26" cy="1486.45" r="2"/>
<circle clip-path="url(#clip942)" style="fill:#009af9; stroke:none; fill-opacity:0" cx="1513.11" cy="1486.45" r="2"/>
<circle clip-path="url(#clip942)" style="fill:#009af9; stroke:none; fill-opacity:0" cx="1535.95" cy="1486.45" r="2"/>
<circle clip-path="url(#clip942)" style="fill:#009af9; stroke:none; fill-opacity:0" cx="1558.8" cy="1486.45" r="2"/>
<circle clip-path="url(#clip942)" style="fill:#009af9; stroke:none; fill-opacity:0" cx="1581.65" cy="1486.45" r="2"/>
<circle clip-path="url(#clip942)" style="fill:#009af9; stroke:none; fill-opacity:0" cx="1604.49" cy="1486.45" r="2"/>
<circle clip-path="url(#clip942)" style="fill:#009af9; stroke:none; fill-opacity:0" cx="1627.34" cy="1486.45" r="2"/>
<circle clip-path="url(#clip942)" style="fill:#009af9; stroke:none; fill-opacity:0" cx="1650.18" cy="1486.45" r="2"/>
<circle clip-path="url(#clip942)" style="fill:#009af9; stroke:none; fill-opacity:0" cx="1673.03" cy="1486.45" r="2"/>
<circle clip-path="url(#clip942)" style="fill:#009af9; stroke:none; fill-opacity:0" cx="1695.87" cy="1486.45" r="2"/>
<circle clip-path="url(#clip942)" style="fill:#009af9; stroke:none; fill-opacity:0" cx="1718.72" cy="1486.45" r="2"/>
<circle clip-path="url(#clip942)" style="fill:#009af9; stroke:none; fill-opacity:0" cx="1741.57" cy="1486.45" r="2"/>
<circle clip-path="url(#clip942)" style="fill:#009af9; stroke:none; fill-opacity:0" cx="1764.41" cy="1486.45" r="2"/>
<circle clip-path="url(#clip942)" style="fill:#009af9; stroke:none; fill-opacity:0" cx="1787.26" cy="1486.45" r="2"/>
<circle clip-path="url(#clip942)" style="fill:#009af9; stroke:none; fill-opacity:0" cx="1810.1" cy="1486.45" r="2"/>
<circle clip-path="url(#clip942)" style="fill:#009af9; stroke:none; fill-opacity:0" cx="1832.95" cy="1486.45" r="2"/>
<circle clip-path="url(#clip942)" style="fill:#009af9; stroke:none; fill-opacity:0" cx="1855.79" cy="1486.45" r="2"/>
<circle clip-path="url(#clip942)" style="fill:#009af9; stroke:none; fill-opacity:0" cx="1878.64" cy="1486.45" r="2"/>
<circle clip-path="url(#clip942)" style="fill:#009af9; stroke:none; fill-opacity:0" cx="1901.49" cy="1486.45" r="2"/>
<circle clip-path="url(#clip942)" style="fill:#009af9; stroke:none; fill-opacity:0" cx="1924.33" cy="1486.45" r="2"/>
<circle clip-path="url(#clip942)" style="fill:#009af9; stroke:none; fill-opacity:0" cx="1947.18" cy="1486.45" r="2"/>
<circle clip-path="url(#clip942)" style="fill:#009af9; stroke:none; fill-opacity:0" cx="1970.02" cy="1486.45" r="2"/>
<circle clip-path="url(#clip942)" style="fill:#009af9; stroke:none; fill-opacity:0" cx="1992.87" cy="1486.45" r="2"/>
<circle clip-path="url(#clip942)" style="fill:#009af9; stroke:none; fill-opacity:0" cx="2015.71" cy="1486.45" r="2"/>
<circle clip-path="url(#clip942)" style="fill:#009af9; stroke:none; fill-opacity:0" cx="2038.56" cy="1486.45" r="2"/>
<circle clip-path="url(#clip942)" style="fill:#009af9; stroke:none; fill-opacity:0" cx="2061.41" cy="1486.45" r="2"/>
<circle clip-path="url(#clip942)" style="fill:#009af9; stroke:none; fill-opacity:0" cx="2084.25" cy="1486.45" r="2"/>
<circle clip-path="url(#clip942)" style="fill:#009af9; stroke:none; fill-opacity:0" cx="2107.1" cy="1486.45" r="2"/>
<circle clip-path="url(#clip942)" style="fill:#009af9; stroke:none; fill-opacity:0" cx="2129.94" cy="1486.45" r="2"/>
<circle clip-path="url(#clip942)" style="fill:#009af9; stroke:none; fill-opacity:0" cx="2152.79" cy="1486.45" r="2"/>
<circle clip-path="url(#clip942)" style="fill:#009af9; stroke:none; fill-opacity:0" cx="2175.63" cy="1486.45" r="2"/>
<circle clip-path="url(#clip942)" style="fill:#009af9; stroke:none; fill-opacity:0" cx="2198.48" cy="1486.45" r="2"/>
<circle clip-path="url(#clip942)" style="fill:#009af9; stroke:none; fill-opacity:0" cx="2221.32" cy="500.692" r="2"/>
<polyline clip-path="url(#clip942)" style="stroke:#e26f46; stroke-linecap:round; stroke-linejoin:round; stroke-width:12; stroke-opacity:1; fill:none" points="723.59,2925.65 723.59,-1391.96 "/>
</svg>
